<svg xmlns="http://www.w3.org/2000/svg" xmlns:xlink="http://www.w3.org/1999/xlink" width="40" zoomAndPan="magnify" viewBox="0 0 30 30.000001" height="40" preserveAspectRatio="xMidYMid meet" version="1.0"><defs><clipPath id="28095d835f"><path d="M 1 4 L 29.515625 4 L 29.515625 26.855469 L 1 26.855469 Z M 1 4 " clip-rule="nonzero"/></clipPath><clipPath id="f7270cad64"><path d="M 1 6 L 27 6 L 27 26.855469 L 1 26.855469 Z M 1 6 " clip-rule="nonzero"/></clipPath></defs><g clip-path="url(#28095d835f)"><path fill="#000000" d="M 2.011719 14.421875 C 2.507812 13.28125 3.121094 12.207031 3.855469 11.203125 L 3.929688 11.101562 C 3.671875 10.90625 3.585938 10.652344 3.675781 10.34375 C 4.109375 8.75 4.867188 6.675781 6.285156 5.695312 C 7.652344 4.746094 9.179688 5.101562 10.503906 5.953125 C 10.65625 6.046875 10.757812 6.179688 10.808594 6.351562 C 12.753906 5.839844 15.074219 5.761719 17.066406 6.058594 L 17.074219 6.058594 L 17.160156 6.074219 C 17.1875 5.914062 17.265625 5.78125 17.386719 5.671875 C 18.5 4.652344 19.960938 3.882812 21.441406 4.644531 C 22.921875 5.402344 23.765625 7.414062 24.257812 8.890625 C 24.355469 9.175781 24.296875 9.421875 24.078125 9.632812 C 25.160156 10.832031 25.992188 12.1875 26.566406 13.695312 C 27.035156 14.84375 27.335938 16.035156 27.480469 17.269531 C 27.527344 17.265625 27.574219 17.265625 27.625 17.269531 C 28.808594 17.425781 29.304688 18.277344 29.070312 19.40625 C 29.070312 19.417969 29.066406 19.433594 29.0625 19.453125 C 29.382812 19.75 29.515625 20.113281 29.460938 20.542969 C 29.398438 21.023438 29.144531 21.363281 28.703125 21.5625 C 28.597656 21.613281 28.472656 21.910156 28.425781 22.007812 C 28.046875 22.808594 27.234375 23.050781 26.414062 22.824219 C 26.386719 22.816406 26.359375 22.808594 26.332031 22.796875 C 26.300781 22.78125 26.265625 22.769531 26.230469 22.753906 C 26.199219 22.738281 26.164062 22.71875 26.132812 22.699219 C 25.347656 23.757812 24.269531 24.578125 23.019531 25.179688 C 21.109375 26.09375 18.890625 26.476562 16.785156 26.589844 C 16.601562 26.605469 16.4375 26.550781 16.292969 26.4375 C 16.046875 26.613281 15.769531 26.714844 15.464844 26.742188 C 15.160156 26.765625 14.871094 26.710938 14.597656 26.570312 C 14.167969 26.363281 13.867188 26.039062 13.699219 25.59375 L 13.691406 25.59375 C 13.667969 25.683594 13.644531 25.773438 13.621094 25.863281 C 13.417969 26.671875 12.75 26.839844 12.007812 26.695312 C 11.777344 26.652344 11.558594 26.574219 11.351562 26.46875 C 11.203125 26.628906 11.019531 26.703125 10.804688 26.695312 C 8.199219 26.65625 5.359375 26.179688 3.433594 24.285156 C 0.660156 21.558594 0.484375 17.863281 2.011719 14.421875 Z M 2.011719 14.421875 " fill-opacity="1" fill-rule="evenodd"/></g><g clip-path="url(#f7270cad64)"><path fill="#ffffff" d="M 25.890625 13.957031 C 23.753906 8.515625 19.070312 6.105469 12.984375 6.691406 C 8.460938 7.125 4.832031 9.84375 2.679688 14.699219 C 1.128906 18.191406 1.589844 21.464844 3.945312 23.78125 C 5.570312 25.382812 8.015625 25.941406 10.816406 25.984375 C 10.527344 25.558594 10.425781 25.164062 10.488281 24.789062 C 10.5 24.679688 10.558594 24.597656 10.65625 24.542969 C 10.761719 24.496094 10.863281 24.503906 10.957031 24.570312 C 11.046875 24.636719 11.089844 24.726562 11.089844 24.839844 C 11.144531 25.542969 11.527344 25.867188 12.152344 25.988281 C 12.609375 26.078125 12.835938 26.027344 12.925781 25.6875 C 12.976562 25.464844 13.042969 25.246094 13.117188 25.03125 C 13.121094 24.929688 13.171875 24.851562 13.261719 24.804688 C 13.347656 24.746094 13.4375 24.746094 13.527344 24.804688 C 13.5625 24.835938 13.59375 24.875 13.640625 24.875 C 13.691406 24.871094 13.730469 24.847656 13.753906 24.804688 C 13.808594 24.710938 13.894531 24.667969 14.003906 24.679688 C 14.121094 24.679688 14.195312 24.734375 14.230469 24.84375 C 14.335938 25.320312 14.519531 25.734375 14.914062 25.917969 C 15.382812 26.136719 15.800781 25.992188 16.097656 25.648438 C 16.3125 25.394531 16.324219 25.089844 16.269531 24.710938 C 16.246094 24.550781 16.414062 24.421875 16.574219 24.402344 C 16.738281 24.386719 16.925781 24.476562 16.941406 24.636719 C 16.996094 25.1875 16.894531 25.601562 16.753906 25.871094 C 19.230469 25.730469 21.203125 25.253906 22.710938 24.53125 C 26.476562 22.726562 27.925781 19.105469 25.90625 13.953125 Z M 15.558594 15.863281 C 15.585938 16.1875 15.507812 16.484375 15.328125 16.761719 C 15.066406 17.179688 14.621094 17.476562 14.175781 17.675781 C 13.625 17.925781 12.976562 17.988281 12.445312 17.652344 C 11.605469 17.121094 11.398438 16.320312 11.742188 15.566406 C 11.695312 15.527344 11.652344 15.484375 11.617188 15.4375 C 11.332031 15.054688 11.199219 14.597656 11.339844 14.132812 C 11.382812 13.980469 11.46875 13.855469 11.59375 13.761719 C 11.722656 13.664062 11.863281 13.617188 12.023438 13.617188 C 12.601562 13.617188 13.132812 13.460938 13.617188 13.152344 C 13.773438 13.054688 13.941406 13.015625 14.125 13.042969 C 14.304688 13.070312 14.457031 13.15625 14.574219 13.296875 C 14.867188 13.648438 15.222656 13.652344 15.644531 13.53125 C 15.757812 13.5 15.871094 13.496094 15.984375 13.515625 C 16.101562 13.539062 16.203125 13.585938 16.292969 13.65625 C 16.386719 13.730469 16.457031 13.816406 16.503906 13.921875 C 16.550781 14.027344 16.574219 14.140625 16.566406 14.253906 C 16.539062 14.867188 16.28125 15.363281 15.792969 15.738281 C 15.71875 15.792969 15.640625 15.832031 15.550781 15.859375 Z M 15.558594 15.863281 " fill-opacity="1" fill-rule="evenodd"/></g><path fill="#ffad3f" d="M 25.890625 13.957031 C 23.753906 8.515625 19.070312 6.105469 12.984375 6.691406 C 8.460938 7.125 4.832031 9.84375 2.679688 14.699219 C 5.523438 15.242188 8.628906 15.210938 11.167969 13.308594 C 12.042969 12.652344 12.585938 11.648438 13.675781 11.53125 C 14.765625 11.410156 15.59375 12.136719 16.515625 12.726562 C 19.234375 14.476562 22.71875 14.59375 25.890625 13.957031 Z M 25.890625 13.957031 " fill-opacity="1" fill-rule="evenodd"/><path fill="#ffad3f" d="M 4.375 10.53125 C 5.5625 6.191406 7.476562 4.867188 10.113281 6.554688 C 7.808594 7.308594 5.890625 8.695312 4.375 10.53125 Z M 4.375 10.53125 " fill-opacity="1" fill-rule="evenodd"/><path fill="#ffb9b1" d="M 8.910156 7.019531 C 7.691406 7.570312 6.597656 8.300781 5.625 9.210938 C 6.652344 7.285156 7.75 6.554688 8.910156 7.019531 Z M 8.910156 7.019531 " fill-opacity="1" fill-rule="evenodd"/><path fill="#ffad3f" d="M 17.878906 6.199219 C 20.285156 4.003906 22.183594 4.976562 23.570312 9.117188 C 22 7.617188 20.0625 6.65625 17.878906 6.199219 Z M 17.878906 6.199219 " fill-opacity="1" fill-rule="evenodd"/><path fill="#ffb9b1" d="M 22.195312 8 C 21.355469 7.429688 20.457031 6.976562 19.5 6.644531 C 20.730469 5.871094 21.628906 6.320312 22.195312 8 Z M 22.195312 8 " fill-opacity="1" fill-rule="evenodd"/><path fill="#ffffff" d="M 27.769531 21.703125 C 27.554688 22.15625 27.121094 22.269531 26.613281 22.132812 L 26.535156 22.097656 C 26.792969 21.664062 27 21.203125 27.15625 20.722656 C 27.441406 19.832031 27.566406 18.921875 27.527344 17.988281 C 28.257812 18.085938 28.519531 18.507812 28.363281 19.265625 C 28.292969 19.613281 28.363281 19.832031 28.507812 19.9375 C 28.695312 20.0625 28.773438 20.238281 28.746094 20.464844 C 28.707031 20.679688 28.589844 20.828125 28.386719 20.914062 C 28.070312 21.066406 27.929688 21.367188 27.769531 21.703125 Z M 27.769531 21.703125 " fill-opacity="1" fill-rule="evenodd"/><path fill="#ffad3f" d="M 26.691406 21.816406 C 26.878906 21.464844 27.035156 21.101562 27.15625 20.722656 C 27.347656 20.140625 27.464844 19.546875 27.507812 18.9375 C 27.601562 19.050781 27.679688 19.171875 27.742188 19.304688 C 27.804688 19.4375 27.847656 19.578125 27.878906 19.71875 C 27.90625 19.863281 27.917969 20.007812 27.914062 20.152344 C 27.910156 20.300781 27.886719 20.445312 27.847656 20.585938 C 27.808594 20.726562 27.75 20.859375 27.679688 20.988281 C 27.605469 21.113281 27.519531 21.230469 27.421875 21.339844 C 27.320312 21.445312 27.210938 21.539062 27.085938 21.621094 C 26.964844 21.703125 26.832031 21.769531 26.695312 21.816406 Z M 26.691406 21.816406 " fill-opacity="1" fill-rule="evenodd"/><path fill="#000000" d="M 8.8125 11.835938 C 9.382812 11.519531 9.660156 11.585938 10.003906 11.703125 C 11.019531 12.058594 11.21875 13.535156 10.414062 12.789062 C 10.117188 12.515625 9.660156 12.554688 9.296875 12.730469 C 9.175781 12.777344 9.054688 12.777344 8.933594 12.730469 C 8.8125 12.683594 8.722656 12.601562 8.667969 12.484375 C 8.546875 12.257812 8.589844 11.957031 8.8125 11.835938 Z M 8.8125 11.835938 " fill-opacity="1" fill-rule="evenodd"/><path fill="#775055" d="M 15.851562 14.226562 C 15.832031 14.617188 15.667969 14.929688 15.355469 15.167969 C 14.929688 14.691406 14.378906 14.542969 13.703125 14.71875 C 13.203125 14.460938 12.703125 14.558594 12.203125 15.007812 C 12.03125 14.773438 11.976562 14.554688 12.039062 14.339844 C 12.757812 14.335938 13.417969 14.144531 14.019531 13.757812 C 14.464844 14.285156 15.070312 14.441406 15.84375 14.226562 Z M 15.851562 14.226562 " fill-opacity="1" fill-rule="evenodd"/><path fill="#ffb9b1" d="M 14.730469 15.628906 C 14.386719 15.0625 13.828125 15.128906 13.300781 15.675781 C 13.382812 14.988281 13.183594 14.90625 12.707031 15.421875 C 12.160156 16.015625 12.164062 16.617188 12.839844 17.046875 C 13.140625 17.234375 13.523438 17.179688 13.882812 17.019531 C 14.679688 16.664062 15.039062 16.132812 14.730469 15.628906 Z M 14.730469 15.628906 " fill-opacity="1" fill-rule="evenodd"/><path fill="#000000" d="M 18.3125 11.730469 C 18.390625 11.820312 18.445312 11.921875 18.480469 12.039062 C 18.515625 12.15625 18.523438 12.277344 18.507812 12.402344 C 18.488281 12.527344 18.449219 12.648438 18.386719 12.765625 C 18.320312 12.882812 18.238281 12.984375 18.136719 13.074219 C 18.035156 13.164062 17.921875 13.230469 17.796875 13.277344 C 17.671875 13.328125 17.542969 13.351562 17.417969 13.351562 C 17.289062 13.347656 17.167969 13.324219 17.058594 13.277344 C 16.945312 13.226562 16.847656 13.160156 16.769531 13.070312 C 16.691406 12.980469 16.636719 12.875 16.601562 12.761719 C 16.566406 12.644531 16.558594 12.523438 16.574219 12.394531 C 16.59375 12.269531 16.632812 12.148438 16.695312 12.03125 C 16.761719 11.917969 16.84375 11.8125 16.945312 11.726562 C 17.046875 11.636719 17.160156 11.566406 17.285156 11.519531 C 17.410156 11.472656 17.535156 11.449219 17.664062 11.449219 C 17.792969 11.449219 17.914062 11.472656 18.023438 11.523438 C 18.136719 11.570312 18.230469 11.640625 18.3125 11.730469 Z M 18.3125 11.730469 " fill-opacity="1" fill-rule="nonzero"/><path fill="#ffffff" d="M 11.277344 9.820312 C 11.445312 9.886719 11.566406 9.992188 11.644531 10.136719 C 11.71875 10.28125 11.730469 10.425781 11.675781 10.566406 C 11.617188 10.707031 11.511719 10.800781 11.355469 10.855469 C 11.199219 10.910156 11.039062 10.902344 10.871094 10.839844 C 10.707031 10.773438 10.585938 10.667969 10.507812 10.523438 C 10.429688 10.378906 10.421875 10.234375 10.476562 10.09375 C 10.53125 9.953125 10.636719 9.855469 10.796875 9.804688 C 10.953125 9.75 11.113281 9.753906 11.277344 9.820312 Z M 11.277344 9.820312 " fill-opacity="1" fill-rule="nonzero"/><path fill="#ffffff" d="M 17.128906 9.726562 C 17.183594 9.867188 17.175781 10.011719 17.097656 10.15625 C 17.019531 10.300781 16.898438 10.40625 16.734375 10.472656 C 16.566406 10.535156 16.40625 10.542969 16.25 10.488281 C 16.09375 10.433594 15.988281 10.335938 15.929688 10.195312 C 15.875 10.054688 15.886719 9.914062 15.960938 9.769531 C 16.039062 9.621094 16.160156 9.519531 16.328125 9.453125 C 16.492188 9.386719 16.652344 9.382812 16.808594 9.4375 C 16.964844 9.488281 17.074219 9.585938 17.128906 9.726562 Z M 17.128906 9.726562 " fill-opacity="1" fill-rule="nonzero"/></svg>