<svg xmlns="http://www.w3.org/2000/svg" xmlns:xlink="http://www.w3.org/1999/xlink" width="40" zoomAndPan="magnify" viewBox="0 0 30 30.000001" height="40" preserveAspectRatio="xMidYMid meet" version="1.0"><defs><clipPath id="75616d4ba9"><path d="M 1 0 L 29.515625 0 L 29.515625 26.128906 L 1 26.128906 Z M 1 0 " clip-rule="nonzero"/></clipPath></defs><g clip-path="url(#75616d4ba9)"><path fill="#000000" d="M 27.347656 17.707031 C 27.289062 18.4375 27.113281 19.140625 26.816406 19.8125 C 27.378906 19.574219 27.800781 19.183594 28.082031 18.640625 C 28.171875 18.472656 28.304688 18.359375 28.480469 18.296875 C 28.660156 18.234375 28.835938 18.242188 29.007812 18.320312 C 29.179688 18.394531 29.300781 18.519531 29.378906 18.695312 C 29.453125 18.867188 29.460938 19.042969 29.398438 19.222656 C 28.804688 20.964844 27.578125 22.027344 25.765625 22.285156 C 25.523438 22.324219 25.316406 22.253906 25.148438 22.074219 C 24.792969 22.390625 24.414062 22.675781 24.011719 22.929688 C 22.457031 23.917969 20.433594 24.40625 18.410156 24.601562 C 18.417969 24.722656 18.402344 24.835938 18.355469 24.949219 C 18.210938 25.289062 17.988281 25.5625 17.6875 25.769531 C 17.382812 25.980469 17.050781 26.085938 16.683594 26.097656 C 16.320312 26.105469 15.980469 26.015625 15.667969 25.824219 C 15.355469 25.628906 15.117188 25.367188 14.960938 25.035156 C 14.90625 24.929688 14.882812 24.816406 14.882812 24.699219 L 14.34375 24.671875 C 10.796875 24.476562 3.070312 23.542969 1.742188 19.429688 C 0.914062 16.863281 0.851562 14.175781 1.773438 11.632812 C 2.136719 10.640625 2.621094 9.71875 3.234375 8.863281 C 0.953125 7.417969 0.488281 5.125 2.078125 2.882812 C 3.527344 0.839844 5.742188 0 8.03125 1.125 C 8.554688 1.390625 8.996094 1.765625 9.347656 2.242188 C 9.699219 2.71875 9.929688 3.253906 10.03125 3.839844 C 12.792969 3 15.800781 3.183594 18.527344 4.214844 C 18.542969 4.175781 18.558594 4.140625 18.582031 4.109375 C 19.886719 1.921875 21.863281 0.914062 24.335938 1.695312 C 26.476562 2.371094 27.945312 4.539062 27.628906 6.8125 C 27.457031 8.0625 26.523438 9.128906 25.644531 9.953125 C 25.609375 9.988281 25.570312 10.019531 25.527344 10.046875 C 25.636719 10.234375 25.738281 10.429688 25.839844 10.625 C 26.957031 12.8125 27.554688 15.246094 27.347656 17.710938 Z M 27.347656 17.707031 " fill-opacity="1" fill-rule="evenodd"/></g><path fill="#ffffff" d="M 26.625 17.644531 C 26.835938 15.140625 26.152344 12.828125 25.199219 10.953125 C 24.132812 8.855469 22.664062 7.289062 20.546875 6 C 16.453125 3.515625 11.195312 3.261719 7.242188 5.972656 C 2.535156 9.199219 0.785156 14.101562 2.433594 19.207031 C 3.382812 22.152344 8.703125 23.632812 14.386719 23.945312 C 18.105469 24.152344 21.503906 23.660156 23.625 22.3125 C 25.339844 21.226562 26.453125 19.710938 26.625 17.644531 Z M 26.625 17.644531 " fill-opacity="1" fill-rule="evenodd"/><path fill="#ffffff" d="M 3.671875 8.277344 C 1.796875 7.121094 1.238281 5.320312 2.664062 3.304688 C 4.09375 1.292969 5.992188 0.933594 7.714844 1.78125 C 8.152344 2.003906 8.515625 2.320312 8.800781 2.726562 C 9.089844 3.128906 9.269531 3.578125 9.339844 4.070312 C 8.453125 4.398438 7.617188 4.832031 6.835938 5.367188 C 5.636719 6.179688 4.582031 7.148438 3.671875 8.277344 Z M 3.671875 8.277344 " fill-opacity="1" fill-rule="evenodd"/><path fill="#ffffff" d="M 26.914062 6.707031 C 26.789062 7.640625 26.09375 8.523438 25.148438 9.417969 C 24.070312 7.746094 22.683594 6.445312 20.917969 5.375 C 20.363281 5.039062 19.789062 4.742188 19.199219 4.480469 C 20.398438 2.476562 22.050781 1.734375 24.121094 2.386719 C 25.9375 2.960938 27.175781 4.800781 26.921875 6.707031 Z M 26.914062 6.707031 " fill-opacity="1" fill-rule="evenodd"/><path fill="#f5cad3" d="M 8.25 4.539062 C 7.761719 4.78125 7.289062 5.058594 6.835938 5.367188 C 6.171875 5.824219 5.546875 6.324219 4.960938 6.878906 C 4.800781 6.785156 4.652344 6.671875 4.519531 6.539062 C 4.386719 6.40625 4.269531 6.261719 4.171875 6.101562 C 4.074219 5.9375 4 5.769531 3.945312 5.589844 C 3.890625 5.40625 3.859375 5.222656 3.851562 5.035156 C 3.84375 4.847656 3.859375 4.660156 3.894531 4.476562 C 3.933594 4.292969 3.992188 4.113281 4.078125 3.945312 C 4.160156 3.777344 4.261719 3.621094 4.382812 3.476562 C 4.503906 3.332031 4.640625 3.207031 4.792969 3.097656 C 4.945312 2.992188 5.109375 2.902344 5.28125 2.835938 C 5.457031 2.769531 5.636719 2.726562 5.820312 2.703125 C 6.007812 2.683594 6.191406 2.6875 6.378906 2.710938 C 6.5625 2.738281 6.742188 2.789062 6.914062 2.859375 C 7.085938 2.933594 7.246094 3.023438 7.394531 3.136719 C 7.542969 3.25 7.679688 3.378906 7.796875 3.527344 C 7.914062 3.671875 8.007812 3.832031 8.085938 4.003906 C 8.164062 4.175781 8.21875 4.355469 8.25 4.539062 Z M 8.25 4.539062 " fill-opacity="1" fill-rule="evenodd"/><path fill="#f5cad3" d="M 24.273438 8.226562 C 23.3125 7.082031 22.195312 6.132812 20.914062 5.375 L 20.8125 5.3125 C 20.886719 5.148438 20.980469 4.996094 21.089844 4.855469 C 21.199219 4.714844 21.324219 4.589844 21.464844 4.476562 C 21.601562 4.363281 21.75 4.269531 21.910156 4.191406 C 22.074219 4.113281 22.238281 4.054688 22.414062 4.015625 C 22.585938 3.976562 22.761719 3.960938 22.941406 3.960938 C 23.117188 3.964844 23.292969 3.984375 23.464844 4.027344 C 23.636719 4.070312 23.804688 4.132812 23.960938 4.210938 C 24.121094 4.292969 24.269531 4.390625 24.40625 4.503906 C 24.542969 4.621094 24.664062 4.75 24.769531 4.894531 C 24.878906 5.035156 24.96875 5.191406 25.042969 5.355469 C 25.113281 5.519531 25.167969 5.6875 25.199219 5.863281 C 25.234375 6.039062 25.25 6.21875 25.242188 6.398438 C 25.234375 6.578125 25.210938 6.753906 25.164062 6.929688 C 25.117188 7.101562 25.050781 7.265625 24.96875 7.425781 C 24.882812 7.582031 24.78125 7.730469 24.664062 7.867188 C 24.546875 8 24.417969 8.121094 24.273438 8.226562 Z M 24.273438 8.226562 " fill-opacity="1" fill-rule="evenodd"/><path fill="#ffffff" d="M 15.617188 24.71875 C 16.289062 24.726562 16.992188 24.710938 17.699219 24.664062 C 17.609375 24.871094 17.472656 25.039062 17.289062 25.167969 C 17.101562 25.292969 16.898438 25.359375 16.675781 25.367188 C 16.453125 25.371094 16.242188 25.316406 16.050781 25.199219 C 15.859375 25.082031 15.714844 24.921875 15.617188 24.71875 Z M 15.617188 24.71875 " fill-opacity="1" fill-rule="evenodd"/><path fill="#f5cad3" d="M 25.664062 21.566406 C 27.191406 21.347656 28.210938 20.488281 28.71875 18.992188 C 28.222656 19.921875 27.421875 20.5 26.320312 20.734375 C 26.125 21.027344 25.90625 21.304688 25.664062 21.566406 Z M 25.664062 21.566406 " fill-opacity="1" fill-rule="evenodd"/><path fill="#000000" d="M 12.265625 14.851562 C 12.765625 14.265625 13.472656 14.222656 14.175781 14.867188 C 14.445312 15.125 14.648438 15.429688 14.78125 15.785156 C 14.792969 15.820312 14.8125 15.859375 14.832031 15.894531 C 14.992188 15.964844 15.046875 16.082031 14.996094 16.25 C 14.949219 16.417969 14.839844 16.488281 14.667969 16.457031 C 14.441406 16.414062 14.320312 16.199219 14.238281 16.007812 C 14.140625 15.734375 13.992188 15.503906 13.785156 15.304688 C 13.21875 14.789062 12.820312 14.9375 12.484375 15.582031 C 12.382812 15.78125 12.363281 15.992188 12.425781 16.210938 C 12.496094 16.511719 12.722656 16.785156 12.925781 17 C 12.976562 17.058594 13.003906 17.128906 13 17.207031 C 12.996094 17.285156 12.964844 17.351562 12.90625 17.40625 C 12.851562 17.460938 12.785156 17.488281 12.707031 17.488281 C 12.628906 17.488281 12.558594 17.460938 12.503906 17.40625 C 12.351562 17.242188 12.214844 17.066406 12.09375 16.878906 C 11.953125 17.066406 11.785156 17.234375 11.59375 17.375 C 11.53125 17.417969 11.460938 17.433594 11.382812 17.421875 C 11.308594 17.40625 11.246094 17.371094 11.199219 17.308594 C 11.152344 17.246094 11.136719 17.175781 11.144531 17.097656 C 11.152344 17.019531 11.1875 16.957031 11.246094 16.90625 C 11.511719 16.722656 11.703125 16.480469 11.824219 16.179688 C 11.90625 15.960938 11.925781 15.734375 11.886719 15.5 C 11.867188 15.40625 11.839844 15.316406 11.800781 15.230469 C 11.453125 14.421875 10.546875 15 10.097656 15.378906 C 10.035156 15.429688 9.964844 15.449219 9.886719 15.441406 C 9.808594 15.433594 9.746094 15.398438 9.695312 15.335938 C 9.644531 15.277344 9.621094 15.203125 9.625 15.125 C 9.632812 15.046875 9.664062 14.980469 9.722656 14.925781 C 10.121094 14.589844 10.648438 14.261719 11.179688 14.234375 C 11.40625 14.21875 11.617188 14.265625 11.8125 14.378906 C 12.007812 14.492188 12.160156 14.648438 12.261719 14.851562 Z M 6.332031 11.171875 L 7.371094 11.515625 C 7.453125 11.535156 7.511719 11.582031 7.554688 11.65625 C 7.59375 11.730469 7.601562 11.808594 7.574219 11.890625 C 7.550781 11.96875 7.5 12.027344 7.421875 12.066406 C 7.347656 12.101562 7.269531 12.105469 7.191406 12.074219 L 6.152344 11.734375 C 6.078125 11.707031 6.019531 11.660156 5.984375 11.585938 C 5.949219 11.515625 5.941406 11.441406 5.96875 11.363281 C 5.992188 11.285156 6.039062 11.226562 6.113281 11.191406 C 6.183594 11.152344 6.257812 11.148438 6.332031 11.171875 Z M 5.917969 12.875 L 7.152344 12.863281 C 7.238281 12.855469 7.308594 12.882812 7.371094 12.941406 C 7.433594 13 7.464844 13.070312 7.464844 13.15625 C 7.464844 13.242188 7.433594 13.3125 7.371094 13.371094 C 7.308594 13.429688 7.238281 13.457031 7.152344 13.449219 L 5.917969 13.464844 C 5.835938 13.472656 5.761719 13.445312 5.699219 13.386719 C 5.636719 13.332031 5.605469 13.257812 5.605469 13.175781 C 5.605469 13.089844 5.632812 13.015625 5.695312 12.957031 C 5.753906 12.898438 5.828125 12.871094 5.914062 12.875 Z M 14.132812 12.566406 C 13.632812 12.804688 13.109375 12.882812 12.5625 12.796875 C 12.480469 12.789062 12.414062 12.75 12.359375 12.683594 C 12.308594 12.617188 12.289062 12.542969 12.300781 12.460938 C 12.3125 12.378906 12.351562 12.3125 12.421875 12.261719 C 12.488281 12.214844 12.5625 12.195312 12.644531 12.210938 C 13.136719 12.296875 13.597656 12.210938 14.027344 11.957031 C 14.152344 11.882812 14.269531 11.894531 14.375 11.996094 C 14.757812 12.355469 15.207031 12.601562 15.742188 12.585938 C 15.824219 12.578125 15.898438 12.601562 15.960938 12.660156 C 16.023438 12.714844 16.054688 12.785156 16.058594 12.871094 C 16.058594 12.957031 16.03125 13.027344 15.972656 13.089844 C 15.914062 13.148438 15.839844 13.175781 15.757812 13.175781 C 15.140625 13.179688 14.597656 12.976562 14.136719 12.566406 Z M 20.296875 12.695312 L 21.539062 12.550781 C 21.621094 12.539062 21.695312 12.558594 21.757812 12.609375 C 21.824219 12.660156 21.859375 12.726562 21.871094 12.808594 C 21.878906 12.890625 21.859375 12.964844 21.804688 13.027344 C 21.753906 13.09375 21.6875 13.128906 21.605469 13.136719 L 20.367188 13.28125 C 20.285156 13.289062 20.214844 13.269531 20.152344 13.21875 C 20.089844 13.167969 20.050781 13.101562 20.042969 13.023438 C 20.035156 12.941406 20.054688 12.867188 20.105469 12.804688 C 20.152344 12.742188 20.21875 12.703125 20.296875 12.695312 Z M 20.601562 13.929688 L 21.535156 14.300781 C 21.605469 14.332031 21.652344 14.386719 21.683594 14.457031 C 21.710938 14.53125 21.710938 14.601562 21.683594 14.675781 C 21.65625 14.746094 21.609375 14.800781 21.539062 14.832031 C 21.46875 14.867188 21.398438 14.871094 21.324219 14.847656 L 20.390625 14.480469 C 20.316406 14.445312 20.265625 14.394531 20.238281 14.320312 C 20.207031 14.25 20.207031 14.175781 20.234375 14.101562 C 20.265625 14.027344 20.3125 13.976562 20.382812 13.941406 C 20.457031 13.910156 20.527344 13.90625 20.601562 13.929688 Z M 7.796875 21.632812 C 7.84375 20.988281 8.179688 20.511719 8.828125 20.398438 C 9.894531 20.210938 10.511719 20.839844 10.792969 21.832031 C 10.8125 21.90625 10.800781 21.980469 10.761719 22.050781 C 10.722656 22.117188 10.667969 22.164062 10.589844 22.183594 C 10.515625 22.207031 10.441406 22.199219 10.375 22.160156 C 10.304688 22.125 10.257812 22.070312 10.234375 21.992188 C 10.035156 21.296875 9.691406 20.84375 8.929688 20.980469 C 8.546875 21.046875 8.40625 21.300781 8.375 21.675781 C 8.367188 21.753906 8.332031 21.816406 8.269531 21.867188 C 8.210938 21.917969 8.144531 21.9375 8.066406 21.933594 C 7.988281 21.925781 7.925781 21.894531 7.871094 21.835938 C 7.820312 21.777344 7.792969 21.710938 7.796875 21.632812 Z M 7.796875 21.632812 " fill-opacity="1" fill-rule="evenodd"/><path fill="#000000" d="M 10.273438 10.800781 C 10.636719 10.800781 10.925781 11.1875 10.914062 11.664062 C 10.90625 12.140625 10.601562 12.527344 10.234375 12.527344 C 9.867188 12.527344 9.582031 12.140625 9.589844 11.664062 C 9.601562 11.1875 9.90625 10.800781 10.273438 10.800781 Z M 10.273438 10.800781 " fill-opacity="1" fill-rule="evenodd"/><path fill="#000000" d="M 18.027344 11.613281 C 18.390625 11.613281 18.679688 12 18.667969 12.476562 C 18.660156 12.957031 18.355469 13.339844 17.988281 13.339844 C 17.625 13.339844 17.335938 12.957031 17.34375 12.476562 C 17.355469 12 17.652344 11.613281 18.027344 11.613281 Z M 18.027344 11.613281 " fill-opacity="1" fill-rule="evenodd"/><path fill="#f5cad3" d="M 8.199219 12.496094 C 8.667969 12.457031 9.125 12.519531 9.5625 12.691406 C 9.628906 12.71875 9.675781 12.769531 9.707031 12.835938 C 9.734375 12.902344 9.734375 12.96875 9.707031 13.039062 C 9.683594 13.105469 9.636719 13.15625 9.570312 13.183594 C 9.507812 13.214844 9.441406 13.21875 9.371094 13.195312 C 9.007812 13.054688 8.632812 13 8.246094 13.03125 C 8.167969 13.042969 8.101562 13.023438 8.042969 12.972656 C 7.984375 12.925781 7.949219 12.863281 7.945312 12.785156 C 7.9375 12.710938 7.960938 12.644531 8.011719 12.585938 C 8.0625 12.527344 8.125 12.5 8.199219 12.496094 Z M 18.152344 13.429688 C 18.632812 13.363281 19.113281 13.363281 19.59375 13.429688 C 19.664062 13.441406 19.722656 13.476562 19.769531 13.535156 C 19.8125 13.59375 19.828125 13.660156 19.820312 13.734375 C 19.808594 13.808594 19.773438 13.867188 19.714844 13.910156 C 19.65625 13.957031 19.589844 13.972656 19.519531 13.960938 C 19.085938 13.902344 18.65625 13.902344 18.226562 13.960938 C 18.152344 13.972656 18.085938 13.957031 18.027344 13.910156 C 17.96875 13.867188 17.933594 13.808594 17.925781 13.734375 C 17.914062 13.660156 17.933594 13.59375 17.976562 13.535156 C 18.019531 13.476562 18.078125 13.441406 18.152344 13.429688 Z M 18.152344 13.429688 " fill-opacity="1" fill-rule="evenodd"/></svg>