<svg xmlns="http://www.w3.org/2000/svg" xmlns:xlink="http://www.w3.org/1999/xlink" width="40" zoomAndPan="magnify" viewBox="0 0 30 30.000001" height="40" preserveAspectRatio="xMidYMid meet" version="1.0"><defs><clipPath id="0c1e4aad0a"><path d="M 1 1.953125 L 29 1.953125 L 29 27.355469 L 1 27.355469 Z M 1 1.953125 " clip-rule="nonzero"/></clipPath></defs><g clip-path="url(#0c1e4aad0a)"><path fill="#000000" d="M 27.921875 13.332031 C 29.515625 18.640625 28.496094 22.945312 23.003906 24.914062 C 22.453125 25.113281 21.898438 25.285156 21.332031 25.441406 C 21.375 25.554688 21.398438 25.675781 21.398438 25.800781 C 21.398438 26.34375 20.949219 26.84375 20.386719 26.769531 C 20.304688 26.757812 20.191406 26.734375 20.136719 26.8125 C 19.964844 27.058594 19.792969 27.246094 19.476562 27.296875 C 19.160156 27.339844 18.902344 27.238281 18.695312 26.992188 C 18.363281 27.21875 17.960938 27.351562 17.578125 27.121094 C 17.425781 27.027344 17.316406 26.898438 17.246094 26.734375 C 17.175781 26.570312 17.15625 26.402344 17.191406 26.226562 C 14.953125 26.460938 12.710938 26.492188 10.46875 26.316406 C 8.507812 26.175781 6.519531 25.621094 4.875 24.503906 C 3.429688 23.507812 2.320312 22.113281 1.878906 20.394531 C 0.488281 14.972656 2.910156 10.09375 7.285156 6.933594 C 8.648438 5.929688 10.140625 5.183594 11.761719 4.699219 C 11.714844 4.523438 11.730469 4.351562 11.808594 4.1875 C 12.039062 3.6875 12.269531 3.1875 12.5 2.6875 C 12.546875 2.589844 12.613281 2.503906 12.695312 2.433594 C 12.777344 2.363281 12.867188 2.3125 12.972656 2.285156 C 13.074219 2.253906 13.179688 2.246094 13.285156 2.261719 C 13.390625 2.277344 13.492188 2.316406 13.582031 2.375 C 13.847656 2.546875 14.121094 2.71875 14.386719 2.898438 C 14.820312 2.566406 15.289062 2.285156 15.789062 2.058594 C 16.066406 1.941406 16.320312 1.984375 16.546875 2.1875 C 16.828125 2.425781 17.109375 2.664062 17.390625 2.90625 C 17.410156 2.925781 17.429688 2.945312 17.449219 2.964844 C 17.488281 2.953125 17.527344 2.9375 17.550781 2.929688 C 17.953125 2.773438 18.367188 2.679688 18.796875 2.644531 C 18.957031 2.640625 19.097656 2.683594 19.230469 2.773438 C 19.359375 2.863281 19.453125 2.984375 19.507812 3.136719 L 20.074219 4.675781 C 20.136719 4.851562 20.136719 5.027344 20.074219 5.199219 C 21.296875 5.699219 22.449219 6.332031 23.53125 7.089844 C 25.773438 8.648438 27.136719 10.726562 27.921875 13.332031 Z M 27.921875 13.332031 " fill-opacity="1" fill-rule="evenodd"/></g><path fill="#ffe866" d="M 27.210938 13.550781 C 26.621094 11.589844 25.542969 9.402344 23.109375 7.714844 C 17.839844 4.058594 12.488281 4.105469 7.71875 7.550781 C 3.574219 10.542969 1.296875 15.113281 2.601562 20.199219 C 3.359375 23.140625 6.394531 25.25 10.519531 25.550781 L 10.761719 25.570312 C 10.605469 25.523438 10.453125 25.464844 10.308594 25.394531 C 9.316406 24.921875 9.140625 23.972656 9.53125 23.011719 C 9.578125 22.894531 9.652344 22.792969 9.75 22.710938 C 9.847656 22.632812 9.960938 22.578125 10.085938 22.554688 C 10.207031 22.53125 10.332031 22.539062 10.453125 22.578125 C 10.574219 22.617188 10.675781 22.683594 10.761719 22.777344 C 10.8125 22.828125 10.863281 22.878906 10.917969 22.921875 C 10.941406 22.890625 10.960938 22.859375 10.96875 22.839844 C 11.035156 22.726562 11.125 22.636719 11.234375 22.570312 C 11.347656 22.503906 11.46875 22.46875 11.597656 22.464844 C 11.726562 22.460938 11.847656 22.492188 11.964844 22.550781 C 12.078125 22.613281 12.171875 22.695312 12.242188 22.804688 C 12.25 22.820312 12.257812 22.832031 12.269531 22.847656 C 12.308594 22.828125 12.347656 22.8125 12.382812 22.789062 C 12.554688 22.6875 12.734375 22.660156 12.925781 22.703125 C 13.117188 22.746094 13.269531 22.847656 13.378906 23.011719 C 14.011719 23.941406 13.667969 24.84375 12.730469 25.355469 C 12.5 25.488281 12.253906 25.578125 11.992188 25.632812 C 16.3125 25.792969 19.921875 25.214844 22.753906 24.199219 C 27.496094 22.5 28.820312 18.929688 27.210938 13.550781 Z M 13.816406 15.878906 C 13.902344 15.703125 14.019531 15.554688 14.167969 15.433594 C 14.683594 15.015625 15.441406 15.019531 16.066406 15.117188 C 16.300781 15.15625 16.535156 15.21875 16.769531 15.269531 C 17.09375 15.335938 17.421875 15.382812 17.753906 15.410156 C 17.824219 15.414062 17.886719 15.445312 17.933594 15.5 C 17.984375 15.558594 18.003906 15.621094 18 15.699219 C 17.992188 15.773438 17.964844 15.832031 17.90625 15.882812 C 17.851562 15.929688 17.789062 15.953125 17.714844 15.945312 C 17.359375 15.921875 17.007812 15.871094 16.660156 15.796875 C 16.433594 15.75 16.207031 15.6875 15.980469 15.652344 C 15.53125 15.578125 14.886719 15.542969 14.507812 15.855469 C 14.171875 16.128906 14.148438 16.601562 14.199219 17.003906 C 14.300781 17.746094 14.613281 18.378906 15.242188 18.792969 C 15.308594 18.832031 15.351562 18.886719 15.367188 18.964844 C 15.386719 19.039062 15.375 19.109375 15.332031 19.175781 C 15.289062 19.238281 15.230469 19.277344 15.15625 19.292969 C 15.082031 19.304688 15.011719 19.289062 14.949219 19.242188 C 14.191406 18.746094 13.792969 17.976562 13.671875 17.070312 C 13.660156 16.96875 13.652344 16.863281 13.648438 16.761719 C 13.601562 16.886719 13.550781 17.015625 13.5 17.144531 C 13.234375 17.753906 12.742188 18.199219 12.269531 18.644531 C 12.214844 18.695312 12.152344 18.722656 12.078125 18.71875 C 12.003906 18.714844 11.945312 18.6875 11.894531 18.632812 C 11.84375 18.578125 11.820312 18.515625 11.820312 18.441406 C 11.824219 18.367188 11.851562 18.304688 11.90625 18.253906 C 12.308594 17.871094 12.789062 17.449219 13.011719 16.925781 C 13.480469 15.851562 13.46875 14.988281 12.121094 14.957031 C 11.027344 14.933594 10.085938 15.640625 9.367188 16.40625 C 9.320312 16.464844 9.253906 16.496094 9.179688 16.5 C 9.105469 16.503906 9.039062 16.476562 8.984375 16.425781 C 8.929688 16.371094 8.902344 16.308594 8.898438 16.230469 C 8.898438 16.152344 8.925781 16.089844 8.980469 16.035156 C 9.808594 15.152344 10.878906 14.390625 12.132812 14.421875 C 12.730469 14.433594 13.378906 14.601562 13.671875 15.1875 C 13.78125 15.40625 13.828125 15.636719 13.820312 15.882812 Z M 14.753906 13.816406 C 14.003906 13.769531 13.257812 13.785156 12.511719 13.871094 C 12.191406 13.90625 11.949219 13.78125 11.789062 13.5 C 11.628906 13.214844 11.640625 12.941406 11.828125 12.679688 C 12.265625 12.070312 12.871094 11.460938 13.660156 11.441406 C 14.453125 11.421875 15.050781 12.019531 15.449219 12.667969 C 15.609375 12.929688 15.609375 13.195312 15.449219 13.457031 C 15.292969 13.722656 15.058594 13.84375 14.753906 13.816406 Z M 14.753906 13.816406 " fill-opacity="1" fill-rule="evenodd"/><path fill="#ffad3f" d="M 12.375 24.695312 C 12.976562 24.367188 13.109375 23.957031 12.761719 23.441406 C 12.28125 23.730469 11.898438 23.65625 11.617188 23.222656 C 11.246094 23.867188 10.78125 23.894531 10.226562 23.300781 C 9.949219 23.984375 10.082031 24.449219 10.628906 24.707031 C 11.253906 25.003906 11.832031 24.992188 12.378906 24.691406 Z M 12.375 24.695312 " fill-opacity="1" fill-rule="evenodd"/><path fill="#ffad3f" d="M 20.578125 25.632812 C 20.628906 25.675781 20.652344 25.734375 20.652344 25.800781 C 20.652344 25.902344 20.582031 26.03125 20.484375 26.019531 C 20.148438 25.976562 19.777344 26.011719 19.523438 26.378906 C 19.378906 26.585938 19.355469 26.613281 19.179688 26.410156 C 18.886719 26.070312 18.625 26.101562 18.34375 26.316406 C 17.964844 26.605469 17.828125 26.503906 17.992188 26.117188 C 18.863281 25.996094 19.726562 25.835938 20.578125 25.632812 Z M 20.578125 25.632812 " fill-opacity="1" fill-rule="evenodd"/><path fill="#ffad3f" d="M 12.488281 4.511719 L 13.179688 3.011719 L 14.0625 3.582031 C 14.367188 3.78125 14.554688 3.699219 14.800781 3.523438 C 15.195312 3.222656 15.617188 2.964844 16.066406 2.757812 L 16.902344 3.480469 C 17.136719 3.800781 17.40625 3.785156 17.800781 3.640625 C 18.125 3.511719 18.460938 3.429688 18.8125 3.402344 L 19.378906 4.9375 C 17.105469 4.152344 14.78125 3.992188 12.496094 4.507812 Z M 12.488281 4.511719 " fill-opacity="1" fill-rule="evenodd"/><path fill="#ffad3f" d="M 12.4375 13.121094 C 13.230469 13.03125 14.023438 13.011719 14.816406 13.066406 C 14.101562 11.890625 13.308594 11.90625 12.4375 13.121094 Z M 12.4375 13.121094 " fill-opacity="1" fill-rule="evenodd"/><path fill="#000000" d="M 9.578125 11.3125 C 9.765625 11.382812 9.894531 11.535156 9.957031 11.769531 C 10.023438 12.003906 10.007812 12.253906 9.914062 12.511719 C 9.816406 12.773438 9.667969 12.96875 9.464844 13.101562 C 9.265625 13.238281 9.070312 13.269531 8.878906 13.195312 C 8.691406 13.125 8.566406 12.972656 8.5 12.738281 C 8.433594 12.503906 8.449219 12.253906 8.542969 11.996094 C 8.640625 11.734375 8.789062 11.539062 8.992188 11.40625 C 9.191406 11.273438 9.386719 11.242188 9.578125 11.3125 Z M 9.578125 11.3125 " fill-opacity="1" fill-rule="nonzero"/><path fill="#000000" d="M 18.644531 11.714844 C 18.722656 11.949219 18.722656 12.171875 18.644531 12.382812 C 18.5625 12.597656 18.425781 12.738281 18.234375 12.804688 C 18.039062 12.871094 17.847656 12.847656 17.65625 12.730469 C 17.460938 12.613281 17.328125 12.4375 17.246094 12.203125 C 17.167969 11.96875 17.167969 11.746094 17.25 11.535156 C 17.328125 11.320312 17.464844 11.183594 17.660156 11.113281 C 17.851562 11.046875 18.042969 11.074219 18.238281 11.191406 C 18.429688 11.308594 18.566406 11.484375 18.644531 11.714844 Z M 18.644531 11.714844 " fill-opacity="1" fill-rule="nonzero"/><path fill="#ffb9b1" d="M 6.769531 14.015625 C 6.769531 14.117188 6.753906 14.207031 6.722656 14.277344 C 6.691406 14.351562 6.652344 14.386719 6.605469 14.386719 C 6.558594 14.386719 6.519531 14.351562 6.488281 14.277344 C 6.457031 14.207031 6.4375 14.117188 6.4375 14.015625 C 6.4375 13.914062 6.457031 13.828125 6.488281 13.753906 C 6.519531 13.683594 6.558594 13.644531 6.605469 13.644531 C 6.652344 13.644531 6.691406 13.683594 6.722656 13.753906 C 6.753906 13.828125 6.769531 13.914062 6.769531 14.015625 Z M 6.769531 14.015625 " fill-opacity="1" fill-rule="nonzero"/><path fill="#ffb9b1" d="M 7.84375 14.015625 C 7.84375 14.117188 7.828125 14.207031 7.792969 14.277344 C 7.761719 14.351562 7.722656 14.386719 7.675781 14.386719 C 7.632812 14.386719 7.59375 14.351562 7.5625 14.277344 C 7.527344 14.207031 7.511719 14.117188 7.511719 14.015625 C 7.511719 13.914062 7.527344 13.828125 7.5625 13.753906 C 7.59375 13.683594 7.632812 13.644531 7.675781 13.644531 C 7.722656 13.644531 7.761719 13.683594 7.792969 13.753906 C 7.828125 13.828125 7.84375 13.914062 7.84375 14.015625 Z M 7.84375 14.015625 " fill-opacity="1" fill-rule="nonzero"/><path fill="#ffb9b1" d="M 8.917969 14.015625 C 8.917969 14.117188 8.902344 14.207031 8.867188 14.277344 C 8.835938 14.351562 8.796875 14.386719 8.75 14.386719 C 8.707031 14.386719 8.667969 14.351562 8.632812 14.277344 C 8.601562 14.207031 8.585938 14.117188 8.585938 14.015625 C 8.585938 13.914062 8.601562 13.828125 8.632812 13.753906 C 8.667969 13.683594 8.707031 13.644531 8.75 13.644531 C 8.796875 13.644531 8.835938 13.683594 8.867188 13.753906 C 8.902344 13.828125 8.917969 13.914062 8.917969 14.015625 Z M 8.917969 14.015625 " fill-opacity="1" fill-rule="nonzero"/><path fill="#ffb9b1" d="M 18.914062 13.722656 C 18.914062 13.824219 18.898438 13.910156 18.863281 13.984375 C 18.832031 14.054688 18.792969 14.089844 18.746094 14.089844 C 18.703125 14.089844 18.664062 14.054688 18.628906 13.984375 C 18.597656 13.910156 18.582031 13.824219 18.582031 13.722656 C 18.582031 13.617188 18.597656 13.53125 18.628906 13.460938 C 18.664062 13.386719 18.703125 13.351562 18.746094 13.351562 C 18.792969 13.351562 18.832031 13.386719 18.863281 13.460938 C 18.898438 13.53125 18.914062 13.617188 18.914062 13.722656 Z M 18.914062 13.722656 " fill-opacity="1" fill-rule="nonzero"/><path fill="#ffb9b1" d="M 19.988281 13.722656 C 19.988281 13.824219 19.972656 13.910156 19.9375 13.984375 C 19.90625 14.054688 19.867188 14.089844 19.820312 14.089844 C 19.777344 14.089844 19.738281 14.054688 19.703125 13.984375 C 19.671875 13.910156 19.65625 13.824219 19.65625 13.722656 C 19.65625 13.617188 19.671875 13.53125 19.703125 13.460938 C 19.738281 13.386719 19.777344 13.351562 19.820312 13.351562 C 19.867188 13.351562 19.90625 13.386719 19.9375 13.460938 C 19.972656 13.53125 19.988281 13.617188 19.988281 13.722656 Z M 19.988281 13.722656 " fill-opacity="1" fill-rule="nonzero"/><path fill="#ffb9b1" d="M 21.0625 13.722656 C 21.0625 13.824219 21.046875 13.910156 21.011719 13.984375 C 20.980469 14.054688 20.941406 14.089844 20.894531 14.089844 C 20.851562 14.089844 20.8125 14.054688 20.777344 13.984375 C 20.746094 13.910156 20.730469 13.824219 20.730469 13.722656 C 20.730469 13.617188 20.746094 13.53125 20.777344 13.460938 C 20.8125 13.386719 20.851562 13.351562 20.894531 13.351562 C 20.941406 13.351562 20.980469 13.386719 21.011719 13.460938 C 21.046875 13.53125 21.0625 13.617188 21.0625 13.722656 Z M 21.0625 13.722656 " fill-opacity="1" fill-rule="nonzero"/></svg>