<svg xmlns="http://www.w3.org/2000/svg" xmlns:xlink="http://www.w3.org/1999/xlink" width="40" zoomAndPan="magnify" viewBox="0 0 30 30.000001" height="40" preserveAspectRatio="xMidYMid meet" version="1.0"><defs><clipPath id="32e5cf14b2"><path d="M 0.484375 3 L 29.515625 3 L 29.515625 26.855469 L 0.484375 26.855469 Z M 0.484375 3 " clip-rule="nonzero"/></clipPath></defs><g clip-path="url(#32e5cf14b2)"><path fill="#000000" d="M 11.195312 20.804688 C 9.34375 20.597656 7.277344 20.121094 5.917969 18.792969 C 4.539062 17.445312 3.976562 15.875 3.957031 14.25 C 3.007812 14.34375 2.121094 14.007812 1.539062 13.230469 C 0.566406 11.933594 0.484375 10.425781 1.601562 9.199219 C 2.765625 7.925781 4.195312 7.96875 5.476562 8.984375 C 5.554688 8.835938 5.636719 8.6875 5.722656 8.542969 C 7.375 5.710938 10.378906 4.066406 13.558594 3.574219 C 17.824219 2.921875 21.453125 4.261719 24.121094 7.722656 C 24.304688 7.960938 24.476562 8.207031 24.632812 8.464844 C 25.609375 7.558594 26.84375 7.519531 27.921875 8.375 C 29.511719 9.640625 29.429688 11.394531 28.195312 12.890625 C 27.636719 13.574219 26.773438 13.71875 25.9375 13.640625 C 26.066406 17.667969 23.574219 19.726562 19.578125 20.523438 C 19.402344 20.558594 19.125 20.585938 18.984375 20.707031 C 18.636719 21.027344 18.238281 21.265625 17.792969 21.421875 C 17.488281 21.53125 17.183594 21.535156 16.878906 21.433594 C 16.574219 21.328125 16.335938 21.144531 16.160156 20.871094 C 16.074219 20.917969 15.984375 20.941406 15.882812 20.941406 L 15.730469 20.941406 C 15.726562 20.992188 15.722656 21.042969 15.710938 21.089844 C 15.6875 21.15625 15.675781 21.222656 15.6875 21.292969 C 15.800781 21.574219 16.160156 21.964844 16.363281 22.191406 C 17.136719 23.046875 17.207031 24.074219 16.675781 25.082031 C 15.875 26.585938 14.386719 26.832031 12.902344 26.15625 C 12.375 25.914062 11.929688 25.496094 11.757812 24.929688 C 11.585938 24.324219 11.695312 23.777344 12.078125 23.285156 C 12.796875 22.296875 13.921875 22.570312 14.136719 23.757812 C 14.148438 23.894531 14.203125 24.015625 14.292969 24.121094 C 14.402344 24.226562 14.59375 24.378906 14.757812 24.390625 C 14.828125 24.390625 14.859375 24.359375 14.898438 24.300781 C 15.273438 23.730469 14.609375 22.757812 14.269531 22.328125 C 13.933594 21.902344 13.773438 21.4375 13.929688 20.941406 L 13.90625 20.933594 C 13.78125 21.132812 13.613281 21.289062 13.40625 21.402344 C 13.003906 21.605469 12.589844 21.636719 12.164062 21.488281 C 11.777344 21.355469 11.453125 21.128906 11.191406 20.8125 Z M 11.195312 20.804688 " fill-opacity="1" fill-rule="evenodd"/></g><path fill="#caa65c" d="M 25.289062 12.976562 C 25.140625 11.523438 24.9375 9.773438 23.640625 8.089844 L 23.523438 7.953125 C 23.53125 8.335938 23.507812 8.722656 23.457031 9.101562 C 23.507812 9.15625 23.5625 9.207031 23.609375 9.261719 C 24.835938 10.679688 25.160156 12.328125 24.289062 14.003906 C 23.757812 15.03125 22.535156 15.5625 21.484375 15.871094 C 20.890625 16.042969 20.289062 16.171875 19.679688 16.265625 C 19.851562 16.570312 19.148438 17.257812 18.863281 16.382812 C 18.292969 14.65625 16.113281 14.3125 16.457031 16.566406 C 16.539062 17.089844 16.136719 17.152344 15.90625 16.589844 C 15.300781 16.609375 14.699219 16.609375 14.097656 16.59375 C 13.90625 16.972656 13.429688 17.28125 13.40625 16.570312 C 13.347656 14.707031 11.722656 14.640625 11.089844 16.394531 C 10.90625 16.910156 10.351562 17.011719 10.371094 16.304688 C 8.933594 16.089844 7.679688 15.582031 6.605469 14.558594 C 5.878906 13.855469 5.25 12.957031 5.175781 11.921875 C 5.101562 10.933594 5.554688 10.082031 6.285156 9.433594 C 6.292969 9.425781 6.304688 9.414062 6.3125 9.40625 C 6.324219 9.316406 6.324219 9.222656 6.320312 9.132812 C 6.320312 8.992188 6.320312 8.855469 6.328125 8.71875 C 6.296875 8.761719 6.269531 8.808594 6.242188 8.855469 C 3.964844 12.761719 4.003906 16.089844 6.339844 18.367188 C 7.492188 19.492188 9.308594 20.015625 11.511719 20.234375 C 12.539062 21.703125 14.234375 20.699219 13.160156 19.449219 C 12.988281 19.253906 12.707031 19.199219 12.449219 19.21875 C 12.324219 19.222656 12.238281 19.164062 12.1875 19.050781 C 12.136719 18.941406 12.148438 18.835938 12.226562 18.742188 C 12.308594 18.664062 12.40625 18.632812 12.519531 18.648438 C 13.359375 18.648438 13.886719 19.191406 14.097656 20.351562 L 15.878906 20.332031 C 15.96875 19.371094 16.394531 18.792969 17.164062 18.605469 C 17.328125 18.570312 17.445312 18.625 17.515625 18.777344 C 17.597656 18.925781 17.570312 19.050781 17.433594 19.15625 C 17.359375 19.203125 17.203125 19.167969 17.054688 19.257812 C 16.058594 19.859375 16.652344 21.160156 17.601562 20.84375 C 17.972656 20.714844 18.300781 20.515625 18.589844 20.246094 C 18.855469 20.011719 19.171875 19.980469 19.460938 19.925781 C 23.917969 19.039062 25.671875 16.703125 25.289062 12.972656 Z M 17.359375 4.160156 C 16.195312 3.976562 15.027344 3.972656 13.859375 4.144531 C 14.230469 4.296875 14.582031 4.492188 14.90625 4.726562 C 14.960938 4.769531 15.023438 4.804688 15.089844 4.828125 C 15.1875 4.796875 15.277344 4.753906 15.359375 4.699219 C 15.90625 4.394531 16.625 4.230469 17.359375 4.15625 Z M 17.359375 4.160156 " fill-opacity="1" fill-rule="evenodd"/><path fill="#ffe7db" d="M 18.488281 4.710938 C 17.410156 4.710938 16.378906 4.859375 15.71875 5.199219 L 15.65625 5.230469 L 15.640625 5.230469 C 15.484375 5.332031 15.3125 5.394531 15.125 5.417969 L 15.070312 5.417969 C 15.015625 5.414062 14.960938 5.40625 14.90625 5.390625 L 14.890625 5.390625 L 14.871094 5.398438 C 14.773438 5.363281 14.679688 5.3125 14.59375 5.25 L 14.578125 5.242188 L 14.570312 5.234375 L 14.5625 5.234375 L 14.535156 5.214844 L 14.464844 5.167969 L 14.457031 5.164062 L 14.453125 5.164062 L 14.4375 5.152344 L 14.40625 5.117188 L 14.390625 5.109375 L 14.378906 5.101562 L 14.367188 5.089844 L 14.351562 5.082031 L 14.339844 5.074219 L 14.28125 5.039062 L 14.269531 5.03125 L 14.253906 5.023438 L 14.242188 5.011719 C 14.046875 4.898438 13.84375 4.796875 13.632812 4.707031 L 13.625 4.707031 C 13.269531 4.5625 12.902344 4.464844 12.523438 4.410156 C 11.261719 4.71875 9.535156 5.484375 8.351562 6.449219 C 7.457031 7.171875 6.890625 7.941406 6.921875 9.109375 L 6.921875 9.132812 C 6.933594 9.265625 6.925781 9.398438 6.902344 9.53125 C 6.902344 9.542969 6.898438 9.554688 6.894531 9.566406 C 6.875 9.640625 6.839844 9.707031 6.792969 9.765625 C 6.785156 9.777344 6.777344 9.785156 6.769531 9.796875 L 6.710938 9.855469 L 6.703125 9.855469 L 6.644531 9.910156 L 6.617188 9.949219 L 6.574219 9.988281 L 6.554688 10.011719 L 6.527344 10.035156 C 6.105469 10.4375 5.855469 10.925781 5.785156 11.503906 L 5.785156 11.617188 C 5.785156 11.632812 5.785156 11.648438 5.785156 11.664062 L 5.785156 11.746094 C 5.785156 11.765625 5.785156 11.785156 5.785156 11.808594 C 5.78125 11.828125 5.78125 11.851562 5.785156 11.871094 C 5.785156 11.894531 5.785156 11.914062 5.789062 11.9375 C 5.789062 11.960938 5.789062 11.980469 5.796875 12.003906 C 5.847656 12.351562 5.960938 12.675781 6.132812 12.976562 L 6.171875 13.042969 L 6.207031 13.105469 L 6.21875 13.121094 L 6.25 13.171875 L 6.261719 13.191406 L 6.292969 13.238281 L 6.339844 13.300781 L 6.375 13.355469 L 6.382812 13.367188 L 6.425781 13.425781 L 6.425781 13.433594 C 6.445312 13.453125 6.460938 13.476562 6.472656 13.496094 C 6.507812 13.539062 6.539062 13.582031 6.574219 13.621094 L 6.601562 13.652344 L 6.644531 13.703125 L 6.664062 13.726562 L 6.699219 13.761719 L 6.734375 13.800781 L 6.757812 13.828125 L 6.800781 13.875 L 6.816406 13.894531 L 6.886719 13.964844 C 6.90625 13.984375 6.921875 14.003906 6.945312 14.019531 L 6.953125 14.03125 L 7.019531 14.097656 L 7.070312 14.144531 L 7.085938 14.15625 L 7.125 14.191406 L 7.136719 14.203125 L 7.175781 14.238281 L 7.1875 14.25 L 7.234375 14.292969 C 7.550781 14.5625 7.890625 14.796875 8.253906 14.992188 L 8.304688 15.019531 L 8.324219 15.027344 L 8.386719 15.058594 L 8.398438 15.058594 C 9.050781 15.371094 9.734375 15.578125 10.449219 15.671875 L 10.460938 15.671875 C 10.546875 15.683594 10.628906 15.695312 10.714844 15.707031 C 11.074219 15.027344 11.683594 14.4375 12.496094 14.484375 C 12.964844 14.519531 13.332031 14.730469 13.597656 15.121094 C 13.769531 15.375 13.886719 15.648438 13.945312 15.949219 L 14.109375 15.949219 C 14.589844 15.960938 15.070312 15.960938 15.554688 15.949219 L 15.820312 15.949219 C 15.824219 15.601562 15.917969 15.28125 16.097656 14.984375 C 16.234375 14.773438 16.410156 14.609375 16.632812 14.496094 C 16.855469 14.378906 17.089844 14.328125 17.339844 14.34375 C 18.160156 14.371094 18.851562 14.972656 19.230469 15.683594 C 19.941406 15.59375 20.636719 15.453125 21.328125 15.257812 C 21.882812 15.121094 22.410156 14.90625 22.902344 14.617188 L 22.972656 14.570312 L 22.980469 14.5625 L 23.042969 14.523438 L 23.058594 14.511719 L 23.109375 14.472656 L 23.132812 14.457031 L 23.175781 14.421875 L 23.199219 14.402344 L 23.226562 14.378906 L 23.269531 14.34375 L 23.292969 14.324219 L 23.320312 14.300781 L 23.4375 14.183594 L 23.457031 14.160156 L 23.480469 14.132812 C 23.492188 14.125 23.503906 14.109375 23.511719 14.097656 L 23.53125 14.074219 L 23.558594 14.042969 L 23.582031 14.015625 L 23.605469 13.984375 L 23.617188 13.964844 C 23.628906 13.949219 23.640625 13.933594 23.648438 13.917969 L 23.660156 13.902344 L 23.6875 13.863281 L 23.695312 13.851562 L 23.71875 13.800781 L 23.726562 13.785156 L 23.757812 13.730469 L 23.789062 13.667969 L 23.796875 13.648438 L 23.816406 13.605469 L 23.828125 13.582031 L 23.847656 13.539062 L 23.859375 13.515625 L 23.878906 13.472656 L 23.886719 13.453125 L 23.914062 13.390625 L 23.914062 13.378906 C 23.921875 13.363281 23.925781 13.347656 23.933594 13.328125 L 23.941406 13.308594 L 23.957031 13.265625 L 23.964844 13.246094 L 23.980469 13.199219 L 23.988281 13.179688 L 24.003906 13.128906 L 24.003906 13.117188 C 24.375 11.972656 24.101562 10.886719 23.335938 9.902344 L 23.332031 9.894531 L 23.296875 9.847656 L 23.277344 9.828125 L 23.25 9.789062 L 23.21875 9.753906 L 23.199219 9.730469 L 23.144531 9.667969 C 23.105469 9.621094 23.0625 9.582031 23.019531 9.539062 C 23.007812 9.523438 22.996094 9.511719 22.984375 9.496094 C 22.875 9.378906 22.824219 9.300781 22.855469 9.050781 C 23.054688 7.605469 22.1875 6.480469 21.148438 5.71875 C 20.347656 5.136719 19.53125 4.722656 18.484375 4.726562 Z M 14.171875 8.925781 C 14.890625 9.125 15.601562 9.121094 16.316406 8.914062 C 16.457031 8.871094 16.597656 8.878906 16.734375 8.941406 C 16.867188 9 16.96875 9.097656 17.03125 9.234375 C 17.574219 10.371094 17.363281 11.464844 16.214844 12.082031 C 15.347656 12.546875 14.398438 12.5 13.648438 11.839844 C 12.785156 11.078125 12.914062 10.046875 13.519531 9.167969 C 13.679688 8.929688 13.898438 8.847656 14.171875 8.925781 Z M 23.890625 13.449219 L 23.917969 13.390625 Z M 23.890625 13.449219 " fill-opacity="1" fill-rule="evenodd"/><path fill="#ffe7db" d="M 2.019531 12.867188 C 2.46875 13.460938 3.152344 13.746094 3.976562 13.640625 C 4.074219 12.261719 4.53125 10.855469 5.1875 9.53125 C 4.089844 8.609375 2.984375 8.578125 2.046875 9.609375 C 1.175781 10.566406 1.179688 11.742188 2.019531 12.867188 Z M 2.019531 12.867188 " fill-opacity="1" fill-rule="evenodd"/><path fill="#ffe7db" d="M 27.730469 12.503906 C 27.335938 12.984375 26.683594 13.117188 25.902344 13.027344 C 25.902344 12.988281 25.902344 12.953125 25.890625 12.917969 C 25.742188 11.464844 25.527344 10.21875 24.933594 9.015625 C 25.671875 8.25 26.609375 8.101562 27.546875 8.851562 C 28.789062 9.839844 28.828125 11.183594 27.730469 12.503906 Z M 27.730469 12.503906 " fill-opacity="1" fill-rule="evenodd"/><path fill="#ffb9b1" d="M 4.601562 10.886719 C 4.648438 10.773438 4.691406 10.644531 4.742188 10.523438 C 4.273438 10.320312 3.828125 10.363281 3.40625 10.648438 C 3.308594 10.722656 3.292969 10.8125 3.359375 10.914062 C 3.425781 11.011719 3.511719 11.035156 3.617188 10.976562 C 3.929688 10.765625 4.257812 10.734375 4.601562 10.890625 Z M 4.601562 10.886719 " fill-opacity="1" fill-rule="evenodd"/><path fill="#ffb9b1" d="M 25.550781 10.75 C 25.519531 10.625 25.484375 10.496094 25.449219 10.371094 C 25.765625 10.3125 26.078125 10.320312 26.390625 10.402344 C 26.503906 10.441406 26.546875 10.523438 26.511719 10.636719 C 26.480469 10.753906 26.40625 10.800781 26.285156 10.777344 C 26.042969 10.71875 25.796875 10.707031 25.550781 10.75 Z M 25.550781 10.75 " fill-opacity="1" fill-rule="evenodd"/><path fill="#caa65c" d="M 15.121094 20.953125 C 15.054688 21.148438 15.054688 21.34375 15.128906 21.535156 C 15.246094 21.816406 15.519531 22.167969 15.914062 22.605469 C 16.496094 23.242188 16.574219 23.984375 16.140625 24.804688 C 15.570312 25.875 14.523438 26.238281 13.15625 25.613281 C 12.292969 25.214844 12.027344 24.390625 12.574219 23.644531 C 12.996094 23.066406 13.433594 23.234375 13.550781 23.871094 C 13.582031 24.136719 13.691406 24.363281 13.878906 24.558594 C 14.425781 25.089844 15.054688 25.175781 15.40625 24.636719 C 15.863281 23.949219 15.554688 22.976562 14.75 21.953125 C 14.433594 21.558594 14.414062 21.28125 14.578125 20.960938 L 15.125 20.960938 Z M 15.121094 20.953125 " fill-opacity="1" fill-rule="evenodd"/><path fill="#a35f60" d="M 15.925781 11.546875 C 16.742188 11.109375 16.917969 10.394531 16.484375 9.492188 C 15.664062 9.734375 14.835938 9.738281 14.011719 9.507812 C 13.507812 10.246094 13.488281 10.898438 14.039062 11.382812 C 14.589844 11.871094 15.246094 11.910156 15.925781 11.546875 Z M 15.925781 11.546875 " fill-opacity="1" fill-rule="evenodd"/><path fill="#ffb9b1" d="M 15.925781 11.546875 C 16.5 11.238281 16.757812 10.796875 16.707031 10.246094 C 16.183594 10.097656 15.742188 10.152344 15.378906 10.402344 C 14.921875 10.15625 14.339844 10.210938 13.632812 10.570312 C 13.648438 10.90625 13.785156 11.175781 14.042969 11.386719 C 14.578125 11.855469 15.246094 11.914062 15.929688 11.550781 Z M 15.925781 11.546875 " fill-opacity="1" fill-rule="evenodd"/><path fill="#000000" d="M 12.433594 8.277344 C 12.578125 8.351562 12.667969 8.480469 12.699219 8.664062 C 12.734375 8.851562 12.703125 9.035156 12.609375 9.222656 C 12.515625 9.410156 12.382812 9.542969 12.210938 9.621094 C 12.042969 9.703125 11.886719 9.707031 11.742188 9.632812 C 11.597656 9.558594 11.507812 9.429688 11.472656 9.242188 C 11.4375 9.058594 11.46875 8.875 11.566406 8.6875 C 11.660156 8.5 11.792969 8.367188 11.960938 8.285156 C 12.132812 8.207031 12.289062 8.203125 12.433594 8.277344 Z M 12.433594 8.277344 " fill-opacity="1" fill-rule="nonzero"/><path fill="#000000" d="M 19.011719 8.578125 C 19.140625 8.765625 19.195312 8.957031 19.179688 9.160156 C 19.164062 9.367188 19.082031 9.519531 18.933594 9.621094 C 18.785156 9.726562 18.613281 9.75 18.417969 9.691406 C 18.222656 9.632812 18.058594 9.511719 17.933594 9.328125 C 17.804688 9.144531 17.75 8.949219 17.761719 8.746094 C 17.777344 8.542969 17.859375 8.386719 18.011719 8.285156 C 18.160156 8.179688 18.332031 8.160156 18.527344 8.214844 C 18.722656 8.273438 18.882812 8.394531 19.011719 8.578125 Z M 19.011719 8.578125 " fill-opacity="1" fill-rule="nonzero"/><path fill="#ffb9b1" d="M 10.730469 9.417969 C 10.882812 9.441406 11.027344 9.484375 11.160156 9.550781 C 11.292969 9.617188 11.40625 9.703125 11.503906 9.804688 C 11.597656 9.902344 11.667969 10.015625 11.710938 10.132812 C 11.75 10.253906 11.761719 10.375 11.746094 10.496094 C 11.730469 10.617188 11.683594 10.726562 11.609375 10.832031 C 11.535156 10.933594 11.4375 11.019531 11.316406 11.089844 C 11.199219 11.160156 11.066406 11.207031 10.917969 11.234375 C 10.769531 11.257812 10.621094 11.261719 10.46875 11.238281 C 10.316406 11.21875 10.175781 11.171875 10.039062 11.105469 C 9.90625 11.039062 9.792969 10.957031 9.695312 10.855469 C 9.601562 10.753906 9.53125 10.644531 9.492188 10.523438 C 9.449219 10.40625 9.4375 10.285156 9.453125 10.164062 C 9.472656 10.042969 9.515625 9.929688 9.589844 9.828125 C 9.664062 9.726562 9.761719 9.636719 9.882812 9.570312 C 10 9.5 10.136719 9.449219 10.28125 9.425781 C 10.429688 9.398438 10.578125 9.398438 10.730469 9.417969 Z M 10.730469 9.417969 " fill-opacity="1" fill-rule="nonzero"/><path fill="#ffb9b1" d="M 21.394531 10.226562 C 21.410156 10.347656 21.398438 10.46875 21.355469 10.585938 C 21.3125 10.707031 21.246094 10.816406 21.148438 10.917969 C 21.054688 11.019531 20.9375 11.101562 20.804688 11.167969 C 20.671875 11.234375 20.527344 11.277344 20.375 11.296875 C 20.222656 11.320312 20.074219 11.316406 19.925781 11.292969 C 19.78125 11.265625 19.648438 11.21875 19.527344 11.148438 C 19.40625 11.078125 19.3125 10.992188 19.238281 10.886719 C 19.164062 10.785156 19.117188 10.671875 19.101562 10.550781 C 19.082031 10.429688 19.097656 10.308594 19.136719 10.191406 C 19.179688 10.070312 19.25 9.960938 19.34375 9.859375 C 19.441406 9.757812 19.554688 9.675781 19.691406 9.609375 C 19.824219 9.542969 19.964844 9.5 20.117188 9.476562 C 20.269531 9.457031 20.421875 9.460938 20.566406 9.484375 C 20.714844 9.511719 20.847656 9.558594 20.96875 9.628906 C 21.085938 9.699219 21.183594 9.785156 21.257812 9.890625 C 21.332031 9.992188 21.375 10.105469 21.394531 10.226562 Z M 21.394531 10.226562 " fill-opacity="1" fill-rule="nonzero"/></svg>