<svg xmlns="http://www.w3.org/2000/svg" xmlns:xlink="http://www.w3.org/1999/xlink" width="40" zoomAndPan="magnify" viewBox="0 0 30 30.000001" height="40" preserveAspectRatio="xMidYMid meet" version="1.0"><defs><clipPath id="c232bfc48e"><path d="M 0.484375 1.601562 L 29.515625 1.601562 L 29.515625 27.730469 L 0.484375 27.730469 Z M 0.484375 1.601562 " clip-rule="nonzero"/></clipPath></defs><g clip-path="url(#c232bfc48e)"><path fill="#000000" d="M 26.941406 9.617188 C 28.464844 11.941406 29.519531 14.601562 29.328125 17.441406 C 29.050781 21.4375 25.972656 23.464844 22.566406 24.578125 C 22.652344 24.808594 22.625 25.03125 22.492188 25.238281 C 21.714844 26.476562 20.546875 26.8125 19.316406 25.980469 C 19.128906 25.859375 19.019531 25.683594 18.992188 25.460938 L 18.476562 25.550781 C 17.390625 25.730469 16.238281 25.894531 15.058594 25.984375 C 15.058594 26.042969 15.054688 26.101562 15.046875 26.15625 C 15.046875 26.179688 15.039062 26.207031 15.035156 26.230469 C 15.007812 26.355469 14.953125 26.464844 14.871094 26.5625 C 13.90625 27.710938 12.707031 27.695312 11.769531 26.519531 C 11.648438 26.367188 11.59375 26.195312 11.605469 26 C 9.835938 25.851562 8.121094 25.433594 6.625 24.570312 C 2.96875 22.449219 2.542969 18.199219 3.007812 14.363281 L 2.96875 14.363281 C 2.316406 14.34375 1.660156 14.148438 1.171875 13.6875 C 0.6875 13.226562 0.480469 12.664062 0.550781 12 C 0.71875 10.085938 2.347656 9.636719 3.988281 9.660156 C 4.542969 9.671875 5.1875 9.105469 5.558594 8.742188 L 5.671875 8.628906 C 5.597656 8.542969 5.542969 8.445312 5.507812 8.335938 C 5.199219 7.324219 5.136719 6.257812 5.578125 5.269531 C 5.75 4.890625 5.992188 4.53125 6.375 4.347656 C 6.808594 4.152344 7.222656 4.191406 7.617188 4.46875 C 8.140625 4.808594 8.703125 5.085938 9.253906 5.378906 C 9.382812 5.445312 9.484375 5.539062 9.558594 5.667969 C 10.722656 4.996094 11.960938 4.523438 13.269531 4.253906 C 14.839844 3.925781 16.417969 3.878906 18.003906 4.105469 C 18.023438 3.988281 18.070312 3.882812 18.144531 3.785156 C 18.457031 3.359375 18.75 2.910156 19.085938 2.503906 C 19.394531 2.128906 19.789062 1.785156 20.277344 1.707031 C 20.792969 1.628906 21.234375 1.859375 21.5625 2.238281 C 22.300781 3.085938 22.605469 4.1875 22.691406 5.292969 C 22.703125 5.4375 22.679688 5.574219 22.613281 5.699219 C 22.679688 5.734375 22.742188 5.773438 22.808594 5.808594 C 23.246094 6.085938 23.699219 6.105469 24.160156 5.867188 C 25.042969 5.425781 26.007812 5.109375 26.984375 5.433594 C 27.734375 5.679688 28.242188 6.375 28.371094 7.152344 C 28.441406 7.535156 28.410156 7.910156 28.285156 8.277344 C 28.15625 8.648438 27.949219 8.957031 27.65625 9.214844 C 27.445312 9.398438 27.207031 9.53125 26.941406 9.617188 Z M 26.941406 9.617188 " fill-opacity="1" fill-rule="evenodd"/></g><path fill="#ffffff" d="M 22.4375 6.46875 C 19.617188 4.847656 16.625 4.351562 13.417969 4.992188 C 10.945312 5.488281 8.503906 6.914062 6.082031 9.285156 C 5.398438 9.957031 4.691406 10.429688 3.984375 10.417969 C 2.371094 10.390625 1.414062 10.820312 1.300781 12.0625 C 1.226562 12.898438 1.847656 13.566406 2.988281 13.601562 C 3.664062 13.625 4.171875 13.128906 4.539062 12.574219 C 4.632812 12.4375 4.761719 12.386719 4.925781 12.417969 C 5.085938 12.449219 5.1875 12.542969 5.226562 12.703125 C 5.246094 12.863281 5.191406 12.996094 5.066406 13.09375 C 4.679688 13.488281 4.25 13.832031 3.785156 14.125 C 3.117188 19.015625 4.1875 22.273438 6.992188 23.898438 C 9.738281 25.492188 13.488281 25.601562 18.351562 24.785156 C 24.847656 23.699219 28.296875 21.417969 28.578125 17.382812 C 28.746094 14.925781 27.914062 12.382812 26.136719 9.761719 C 25.238281 9.632812 24.585938 9.371094 24.15625 9.007812 C 24.042969 8.921875 23.992188 8.8125 23.996094 8.671875 C 24.007812 8.53125 24.078125 8.429688 24.207031 8.371094 C 24.335938 8.320312 24.457031 8.335938 24.574219 8.410156 C 25.703125 9.0625 26.585938 9.132812 27.171875 8.628906 C 27.578125 8.265625 27.730469 7.816406 27.636719 7.277344 C 27.550781 6.773438 27.234375 6.308594 26.75 6.152344 C 26.046875 5.917969 25.304688 6.136719 24.488281 6.539062 C 24.164062 6.707031 23.816406 6.785156 23.453125 6.769531 C 23.085938 6.757812 22.75 6.652344 22.433594 6.464844 Z M 22.4375 6.46875 " fill-opacity="1" fill-rule="evenodd"/><path fill="#cccccc" d="M 22.4375 6.46875 C 21.28125 5.792969 20.054688 5.308594 18.753906 5.015625 C 18.453125 5.332031 18.1875 5.671875 17.953125 6.042969 C 17.722656 6.410156 17.527344 6.800781 17.371094 7.207031 C 17.210938 7.617188 17.097656 8.035156 17.019531 8.46875 C 16.945312 8.898438 16.914062 9.332031 16.921875 9.769531 C 16.929688 10.210938 16.980469 10.640625 17.074219 11.070312 C 17.167969 11.496094 17.300781 11.910156 17.476562 12.3125 C 17.652344 12.714844 17.863281 13.09375 18.109375 13.453125 C 18.359375 13.8125 18.636719 14.140625 18.949219 14.445312 C 19.261719 14.75 19.601562 15.019531 19.964844 15.253906 C 20.332031 15.488281 20.714844 15.6875 21.117188 15.84375 C 21.523438 16.003906 21.9375 16.121094 22.363281 16.199219 C 22.789062 16.273438 23.21875 16.308594 23.652344 16.296875 C 24.085938 16.289062 24.511719 16.238281 24.933594 16.144531 C 25.359375 16.046875 25.765625 15.914062 26.164062 15.738281 C 26.558594 15.5625 26.933594 15.347656 27.289062 15.097656 C 27.644531 14.84375 27.972656 14.5625 28.269531 14.246094 C 27.886719 12.78125 27.175781 11.289062 26.144531 9.773438 C 25.246094 9.644531 24.589844 9.382812 24.160156 9.019531 C 24.046875 8.933594 23.996094 8.824219 24.003906 8.683594 C 24.015625 8.542969 24.085938 8.441406 24.214844 8.382812 C 24.34375 8.332031 24.464844 8.347656 24.578125 8.421875 C 25.707031 9.074219 26.59375 9.144531 27.175781 8.640625 C 27.585938 8.273438 27.738281 7.820312 27.636719 7.277344 C 27.550781 6.773438 27.230469 6.308594 26.75 6.152344 C 26.046875 5.917969 25.304688 6.136719 24.488281 6.539062 C 24.164062 6.707031 23.816406 6.785156 23.453125 6.769531 C 23.085938 6.757812 22.75 6.652344 22.433594 6.464844 Z M 22.4375 6.46875 " fill-opacity="1" fill-rule="evenodd"/><path fill="#aba9aa" d="M 22.4375 6.46875 C 22.195312 6.324219 21.945312 6.191406 21.699219 6.070312 C 20.25 9.34375 21.777344 10.648438 26.285156 9.988281 C 26.238281 9.914062 26.1875 9.84375 26.140625 9.773438 C 25.242188 9.644531 24.585938 9.382812 24.15625 9.019531 C 24.042969 8.933594 23.992188 8.824219 24 8.683594 C 24.011719 8.542969 24.082031 8.441406 24.210938 8.382812 C 24.339844 8.332031 24.460938 8.347656 24.574219 8.421875 C 25.703125 9.074219 26.589844 9.144531 27.171875 8.640625 C 27.582031 8.273438 27.738281 7.820312 27.636719 7.277344 C 27.550781 6.773438 27.230469 6.308594 26.75 6.152344 C 26.046875 5.917969 25.304688 6.136719 24.488281 6.539062 C 24.164062 6.707031 23.816406 6.785156 23.453125 6.769531 C 23.085938 6.757812 22.75 6.652344 22.433594 6.464844 Z M 22.4375 6.46875 " fill-opacity="1" fill-rule="evenodd"/><path fill="#aba9aa" d="M 12.503906 5.21875 C 10.480469 5.8125 8.480469 7.035156 6.503906 8.882812 C 7.898438 10.949219 10.480469 9.777344 10.097656 8.152344 C 11.210938 8.488281 13.164062 8.609375 12.945312 6.5625 C 12.96875 6.058594 12.824219 5.609375 12.503906 5.21875 Z M 12.503906 5.21875 " fill-opacity="1" fill-rule="evenodd"/><path fill="#cccccc" d="M 3.652344 17.988281 C 3.761719 19.257812 4.054688 20.359375 4.527344 21.292969 C 5.855469 23.148438 7.269531 23.101562 8.535156 21 C 9.65625 19.140625 9.527344 17.601562 8.128906 17.105469 C 7.128906 16.746094 6.300781 17.292969 5.792969 18.128906 C 5.242188 17.089844 4.527344 17.046875 3.652344 17.988281 Z M 3.652344 17.988281 " fill-opacity="1" fill-rule="evenodd"/><path fill="#fcc25e" d="M 8.917969 6.046875 C 7.960938 6.65625 7.0625 7.34375 6.222656 8.113281 C 5.9375 7.148438 5.9375 6.300781 6.265625 5.589844 C 6.53125 4.996094 6.835938 4.863281 7.222656 5.109375 C 7.777344 5.464844 8.355469 5.757812 8.917969 6.046875 Z M 8.917969 6.046875 " fill-opacity="1" fill-rule="evenodd"/><path fill="#ffffff" d="M 12.355469 26.039062 C 12.996094 26.84375 13.648438 26.851562 14.308594 26.066406 L 14.316406 26.027344 C 13.660156 26.058594 13.003906 26.066406 12.355469 26.039062 Z M 12.355469 26.039062 " fill-opacity="1" fill-rule="evenodd"/><path fill="#ffffff" d="M 19.734375 25.355469 C 20.578125 25.929688 21.285156 25.753906 21.863281 24.835938 L 21.84375 24.800781 C 21.140625 25.003906 20.433594 25.171875 19.734375 25.3125 C 19.730469 25.328125 19.730469 25.34375 19.734375 25.355469 Z M 19.734375 25.355469 " fill-opacity="1" fill-rule="evenodd"/><path fill="#fcc25e" d="M 21.949219 5.351562 C 20.921875 4.84375 19.855469 4.472656 18.738281 4.238281 C 19.085938 3.769531 19.367188 3.328125 19.65625 2.988281 C 20.195312 2.335938 20.625 2.304688 21.003906 2.738281 C 21.503906 3.3125 21.855469 4.144531 21.949219 5.351562 Z M 21.949219 5.351562 " fill-opacity="1" fill-rule="evenodd"/><path fill="#000000" d="M 11.21875 22.109375 C 11.34375 22.339844 11.527344 22.515625 11.757812 22.628906 C 11.992188 22.746094 12.238281 22.785156 12.496094 22.746094 C 12.753906 22.707031 12.980469 22.597656 13.171875 22.417969 C 13.359375 22.238281 13.484375 22.019531 13.539062 21.761719 C 13.5625 21.679688 13.605469 21.617188 13.675781 21.570312 C 13.75 21.527344 13.824219 21.515625 13.90625 21.53125 C 13.988281 21.546875 14.050781 21.59375 14.101562 21.660156 C 14.148438 21.730469 14.164062 21.808594 14.152344 21.890625 C 14.066406 22.277344 13.882812 22.605469 13.597656 22.875 C 13.3125 23.144531 12.976562 23.308594 12.589844 23.367188 C 12.203125 23.421875 11.832031 23.363281 11.484375 23.191406 C 11.132812 23.015625 10.859375 22.753906 10.671875 22.410156 C 10.628906 22.332031 10.617188 22.253906 10.640625 22.167969 C 10.664062 22.085938 10.714844 22.019531 10.789062 21.976562 C 10.867188 21.933594 10.945312 21.925781 11.027344 21.949219 C 11.113281 21.972656 11.175781 22.023438 11.21875 22.101562 Z M 19.90625 20.722656 C 20.054688 20.9375 20.25 21.09375 20.492188 21.195312 C 20.734375 21.292969 20.980469 21.3125 21.234375 21.261719 C 21.488281 21.207031 21.710938 21.089844 21.894531 20.902344 C 22.078125 20.714844 22.195312 20.492188 22.246094 20.234375 C 22.261719 20.152344 22.308594 20.082031 22.378906 20.035156 C 22.453125 19.988281 22.53125 19.972656 22.617188 19.992188 C 22.703125 20.007812 22.765625 20.054688 22.816406 20.128906 C 22.863281 20.199219 22.878906 20.28125 22.859375 20.367188 C 22.78125 20.746094 22.609375 21.074219 22.335938 21.351562 C 22.0625 21.625 21.738281 21.804688 21.363281 21.882812 C 20.984375 21.960938 20.617188 21.925781 20.261719 21.78125 C 19.902344 21.636719 19.613281 21.40625 19.394531 21.085938 C 19.351562 21.015625 19.339844 20.9375 19.359375 20.859375 C 19.378906 20.777344 19.417969 20.714844 19.488281 20.667969 C 19.554688 20.621094 19.628906 20.601562 19.710938 20.613281 C 19.789062 20.625 19.855469 20.664062 19.90625 20.726562 Z M 19.90625 20.722656 " fill-opacity="1" fill-rule="evenodd"/><path fill="#f5cad3" d="M 15.308594 11.519531 C 16.929688 11.425781 18.246094 12.320312 18.246094 13.515625 C 18.246094 14.714844 16.929688 15.761719 15.308594 15.855469 C 13.6875 15.945312 12.371094 15.054688 12.371094 13.855469 C 12.371094 12.660156 13.679688 11.613281 15.308594 11.519531 Z M 15.308594 11.519531 " fill-opacity="1" fill-rule="evenodd"/><path fill="#a35f60" d="M 14.417969 12.636719 C 14.492188 12.636719 14.554688 12.664062 14.605469 12.71875 C 14.660156 12.769531 14.683594 12.832031 14.683594 12.90625 C 14.683594 12.980469 14.65625 13.042969 14.605469 13.097656 C 14.554688 13.148438 14.492188 13.175781 14.417969 13.175781 C 14.34375 13.175781 14.28125 13.148438 14.230469 13.097656 C 14.179688 13.042969 14.152344 12.980469 14.152344 12.90625 C 14.152344 12.832031 14.179688 12.769531 14.230469 12.714844 C 14.285156 12.664062 14.347656 12.636719 14.417969 12.636719 Z M 14.417969 12.636719 " fill-opacity="1" fill-rule="evenodd"/><path fill="#a35f60" d="M 15.667969 12.371094 C 15.742188 12.371094 15.804688 12.398438 15.855469 12.449219 C 15.90625 12.5 15.933594 12.566406 15.933594 12.640625 C 15.933594 12.714844 15.910156 12.777344 15.855469 12.832031 C 15.804688 12.882812 15.742188 12.910156 15.667969 12.910156 C 15.59375 12.910156 15.53125 12.882812 15.480469 12.828125 C 15.429688 12.777344 15.402344 12.714844 15.402344 12.640625 C 15.402344 12.566406 15.429688 12.5 15.480469 12.449219 C 15.53125 12.398438 15.59375 12.371094 15.667969 12.371094 Z M 15.667969 12.371094 " fill-opacity="1" fill-rule="evenodd"/><path fill="#f5cad3" d="M 9.402344 14.621094 C 10.191406 14.566406 10.828125 14.960938 10.828125 15.507812 C 10.828125 16.054688 10.1875 16.539062 9.402344 16.59375 C 8.621094 16.648438 7.976562 16.25 7.976562 15.703125 C 7.976562 15.160156 8.613281 14.671875 9.402344 14.621094 Z M 9.402344 14.621094 " fill-opacity="1" fill-rule="evenodd"/><path fill="#f5cad3" d="M 21.796875 12.226562 C 20.980469 12.285156 20.324219 12.777344 20.324219 13.320312 C 20.324219 13.867188 20.980469 14.261719 21.796875 14.199219 C 22.609375 14.140625 23.265625 13.648438 23.265625 13.101562 C 23.265625 12.558594 22.609375 12.164062 21.796875 12.226562 Z M 21.796875 12.226562 " fill-opacity="1" fill-rule="evenodd"/><path fill="#000000" d="M 11.019531 13.03125 C 11.484375 13.03125 11.8125 13.519531 11.761719 14.125 C 11.707031 14.726562 11.289062 15.214844 10.828125 15.214844 C 10.367188 15.214844 10.035156 14.726562 10.089844 14.125 C 10.140625 13.519531 10.558594 13.03125 11.019531 13.03125 Z M 11.019531 13.03125 " fill-opacity="1" fill-rule="evenodd"/><path fill="#000000" d="M 19.429688 11.554688 C 18.945312 11.554688 18.632812 12.003906 18.726562 12.558594 C 18.820312 13.113281 19.289062 13.5625 19.769531 13.5625 C 20.25 13.5625 20.566406 13.113281 20.46875 12.558594 C 20.375 12.003906 19.910156 11.554688 19.429688 11.554688 Z M 19.429688 11.554688 " fill-opacity="1" fill-rule="evenodd"/></svg>