<svg xmlns="http://www.w3.org/2000/svg" xmlns:xlink="http://www.w3.org/1999/xlink" width="40" zoomAndPan="magnify" viewBox="0 0 30 30.000001" height="40" preserveAspectRatio="xMidYMid meet" version="1.0"><defs><clipPath id="d0b8b40230"><path d="M 0.484375 3 L 29.515625 3 L 29.515625 24.675781 L 0.484375 24.675781 Z M 0.484375 3 " clip-rule="nonzero"/></clipPath></defs><g clip-path="url(#d0b8b40230)"><path fill="#000000" d="M 4.003906 18.910156 C 2.738281 16.890625 2.609375 14.550781 3.660156 11.945312 C 5.542969 7.253906 8.878906 3.875 14.039062 3.265625 C 16.957031 2.917969 19.632812 3.230469 22.257812 4.558594 C 24.597656 5.746094 26.601562 7.792969 27.808594 10.117188 C 28.996094 12.390625 29.484375 15.09375 28.566406 17.542969 C 26.714844 22.464844 21.546875 23.609375 16.886719 24.175781 C 13.28125 24.613281 9.746094 24.660156 6.1875 23.828125 C 4.378906 23.410156 2.199219 22.558594 1.042969 21.03125 C 0.730469 20.617188 0.484375 20.0625 0.847656 19.585938 C 1.210938 19.109375 1.789062 19.191406 2.273438 19.351562 C 2.90625 19.5625 3.496094 19.285156 4 18.910156 Z M 4.003906 18.910156 " fill-opacity="1" fill-rule="evenodd"/></g><path fill="#b9eefe" d="M 2.042969 20.039062 C 2.792969 20.289062 3.582031 20.125 4.4375 19.492188 C 4.980469 20.261719 5.550781 20.855469 6.191406 21.183594 C 6.324219 21.253906 6.488281 21.164062 6.570312 21.042969 C 6.652344 20.917969 6.675781 20.730469 6.558594 20.640625 C 3.753906 18.398438 2.96875 15.609375 4.339844 12.214844 C 6.25 7.457031 9.511719 4.53125 14.132812 3.984375 C 17.242188 3.617188 19.691406 4.070312 21.933594 5.207031 C 26.320312 7.4375 29.519531 12.949219 27.882812 17.292969 C 26.15625 21.890625 21.203125 22.925781 16.792969 23.460938 C 13.472656 23.863281 9.976562 23.976562 6.351562 23.125 C 3.960938 22.5625 2.390625 21.613281 1.621094 20.59375 C 1.203125 20.039062 1.375 19.816406 2.042969 20.039062 Z M 2.042969 20.039062 " fill-opacity="1" fill-rule="evenodd"/><path fill="#ffffff" d="M 25.527344 20.574219 C 23.199219 22.472656 19.867188 23.089844 16.792969 23.460938 C 13.839844 23.820312 10.746094 23.945312 7.550781 23.375 C 9.683594 22.519531 11.476562 21.578125 12.929688 20.542969 C 18.285156 16.738281 22.484375 16.746094 25.527344 20.574219 Z M 25.527344 20.574219 " fill-opacity="1" fill-rule="evenodd"/><path fill="#ffb9a8" d="M 12.046875 13.320312 C 12.0625 13.496094 12.03125 13.664062 11.957031 13.832031 C 11.882812 14 11.769531 14.148438 11.617188 14.285156 C 11.46875 14.421875 11.289062 14.53125 11.082031 14.613281 C 10.878906 14.695312 10.660156 14.746094 10.433594 14.765625 C 10.207031 14.785156 9.984375 14.769531 9.769531 14.71875 C 9.550781 14.671875 9.359375 14.589844 9.1875 14.480469 C 9.015625 14.375 8.882812 14.242188 8.78125 14.089844 C 8.679688 13.9375 8.625 13.773438 8.609375 13.601562 C 8.59375 13.429688 8.625 13.257812 8.699219 13.089844 C 8.773438 12.925781 8.886719 12.773438 9.039062 12.636719 C 9.1875 12.503906 9.367188 12.394531 9.574219 12.308594 C 9.777344 12.226562 9.992188 12.175781 10.222656 12.15625 C 10.449219 12.140625 10.671875 12.152344 10.886719 12.203125 C 11.105469 12.253906 11.296875 12.332031 11.46875 12.441406 C 11.640625 12.550781 11.773438 12.679688 11.875 12.832031 C 11.976562 12.984375 12.03125 13.148438 12.046875 13.320312 Z M 12.046875 13.320312 " fill-opacity="1" fill-rule="nonzero"/><path fill="#ffb9a8" d="M 23.335938 10.941406 C 23.355469 11.085938 23.339844 11.234375 23.28125 11.382812 C 23.222656 11.527344 23.128906 11.664062 23 11.789062 C 22.871094 11.917969 22.714844 12.023438 22.53125 12.109375 C 22.347656 12.195312 22.15625 12.253906 21.949219 12.285156 C 21.742188 12.316406 21.539062 12.320312 21.339844 12.292969 C 21.140625 12.265625 20.957031 12.214844 20.796875 12.132812 C 20.632812 12.050781 20.503906 11.949219 20.402344 11.828125 C 20.304688 11.703125 20.242188 11.570312 20.21875 11.421875 C 20.195312 11.277344 20.214844 11.132812 20.273438 10.984375 C 20.332031 10.835938 20.425781 10.699219 20.554688 10.574219 C 20.683594 10.449219 20.839844 10.34375 21.023438 10.257812 C 21.203125 10.171875 21.398438 10.113281 21.605469 10.082031 C 21.8125 10.046875 22.015625 10.046875 22.214844 10.070312 C 22.414062 10.097656 22.59375 10.152344 22.757812 10.230469 C 22.917969 10.3125 23.050781 10.414062 23.148438 10.539062 C 23.25 10.660156 23.3125 10.792969 23.335938 10.941406 Z M 23.335938 10.941406 " fill-opacity="1" fill-rule="nonzero"/><path fill="#000000" d="M 15.746094 11.105469 C 15.199219 11.6875 14.480469 11.808594 13.683594 11.570312 C 13.617188 11.550781 13.566406 11.511719 13.53125 11.449219 C 13.496094 11.386719 13.488281 11.320312 13.511719 11.253906 C 13.53125 11.183594 13.570312 11.132812 13.632812 11.101562 C 13.695312 11.066406 13.761719 11.058594 13.828125 11.078125 C 14.492188 11.273438 15.054688 11.179688 15.488281 10.617188 C 15.582031 10.492188 15.695312 10.472656 15.828125 10.558594 C 16.433594 10.941406 17.015625 11.011719 17.609375 10.570312 C 17.664062 10.527344 17.730469 10.507812 17.800781 10.519531 C 17.871094 10.527344 17.925781 10.5625 17.96875 10.617188 C 18.011719 10.675781 18.027344 10.738281 18.019531 10.808594 C 18.007812 10.878906 17.976562 10.9375 17.917969 10.980469 C 17.21875 11.507812 16.472656 11.496094 15.746094 11.105469 Z M 15.746094 11.105469 " fill-opacity="1" fill-rule="evenodd"/><path fill="#000000" d="M 11.539062 10.492188 C 11.996094 10.492188 12.363281 10.902344 12.363281 11.414062 C 12.363281 11.921875 11.996094 12.332031 11.539062 12.332031 C 11.085938 12.332031 10.71875 11.921875 10.71875 11.414062 C 10.71875 10.902344 11.085938 10.492188 11.539062 10.492188 Z M 11.539062 10.492188 " fill-opacity="1" fill-rule="evenodd"/><path fill="#000000" d="M 20.035156 9.296875 C 20.445312 9.296875 20.78125 9.667969 20.78125 10.128906 C 20.78125 10.589844 20.445312 10.960938 20.035156 10.960938 C 19.621094 10.960938 19.289062 10.589844 19.289062 10.128906 C 19.289062 9.667969 19.621094 9.296875 20.035156 9.296875 Z M 20.035156 9.296875 " fill-opacity="1" fill-rule="evenodd"/><path fill="#8d5b5e" d="M 15.433594 11.375 C 15.546875 11.296875 15.652344 11.207031 15.746094 11.105469 C 15.851562 11.160156 15.960938 11.210938 16.070312 11.253906 C 16.117188 11.847656 16.761719 12.082031 17.839844 12.097656 C 18.523438 12.105469 19.027344 12.390625 19.230469 12.898438 C 19.40625 13.332031 19.183594 13.4375 18.777344 13.082031 C 18.53125 12.867188 18.460938 12.953125 18.359375 13.40625 C 18.277344 13.757812 18.035156 13.90625 17.816406 13.769531 C 17.601562 13.636719 17.585938 13.339844 17.796875 13.054688 C 18.078125 12.679688 17.808594 12.664062 16.910156 12.625 C 16.195312 12.59375 15.746094 12.054688 15.433594 11.378906 Z M 15.433594 11.375 " fill-opacity="1" fill-rule="evenodd"/></svg>