<svg xmlns="http://www.w3.org/2000/svg" xmlns:xlink="http://www.w3.org/1999/xlink" width="40" zoomAndPan="magnify" viewBox="0 0 30 30.000001" height="40" preserveAspectRatio="xMidYMid meet" version="1.0"><defs><clipPath id="f15b61ef2e"><path d="M 0.484375 1.632812 L 29.515625 1.632812 L 29.515625 26.308594 L 0.484375 26.308594 Z M 0.484375 1.632812 " clip-rule="nonzero"/></clipPath></defs><g clip-path="url(#f15b61ef2e)"><path fill="#000000" d="M 18.425781 24.515625 C 18.449219 24.835938 18.320312 25.070312 18.042969 25.226562 C 17.675781 25.433594 17.28125 25.527344 16.859375 25.519531 C 16.441406 25.507812 16.050781 25.386719 15.695312 25.164062 C 15.566406 25.082031 15.46875 24.96875 15.40625 24.824219 C 14.816406 25.085938 14.199219 25.207031 13.554688 25.191406 C 13.542969 25.382812 13.464844 25.550781 13.324219 25.683594 C 13.121094 25.882812 12.886719 26.03125 12.621094 26.132812 C 12.355469 26.234375 12.082031 26.28125 11.796875 26.269531 C 11.511719 26.257812 11.242188 26.1875 10.988281 26.066406 C 10.730469 25.941406 10.507812 25.773438 10.320312 25.558594 C 10.242188 25.472656 10.1875 25.371094 10.15625 25.261719 C 9.300781 25.433594 8.445312 25.382812 7.65625 24.953125 C 6.265625 25.324219 5.039062 25.003906 4.363281 23.710938 C 2.648438 23.339844 1.855469 22.046875 1.804688 20.292969 C 0.484375 18.851562 0.488281 17.1875 1.4375 15.554688 C 0.644531 14.074219 0.851562 12.628906 2.011719 11.386719 C 2.007812 10.578125 2.1875 9.8125 2.550781 9.09375 C 2.914062 8.375 3.421875 7.777344 4.070312 7.304688 C 4.128906 6.9375 4.242188 6.59375 4.417969 6.265625 C 4.589844 5.941406 4.816406 5.652344 5.085938 5.402344 C 5.359375 5.152344 5.664062 4.957031 6.003906 4.8125 C 6.339844 4.667969 6.695312 4.585938 7.0625 4.5625 C 7.988281 2.996094 9.96875 2.601562 11.683594 2.660156 C 11.878906 2.667969 11.960938 2.691406 12.128906 2.589844 C 13.375 1.851562 14.796875 1.6875 16.191406 2.035156 C 16.304688 2.0625 16.710938 2.191406 16.816406 2.15625 C 18.566406 1.636719 20.5 1.644531 21.722656 3.203125 C 21.726562 3.207031 21.734375 3.214844 21.738281 3.222656 C 23.9375 3.277344 25.042969 4.824219 25.507812 6.832031 C 26.828125 7.96875 27.601562 9.441406 27.636719 11.191406 C 28.820312 12.214844 28.957031 13.71875 28.617188 15.21875 C 29.523438 16.855469 29.167969 18.378906 27.761719 19.59375 C 27.535156 20.828125 26.839844 21.800781 25.632812 22.265625 C 25.144531 22.457031 24.507812 22.625 24.074219 22.941406 C 23.179688 23.597656 22.179688 23.902344 21.074219 23.753906 C 20.707031 23.707031 20.28125 23.714844 19.957031 23.921875 C 19.484375 24.222656 18.976562 24.421875 18.425781 24.511719 Z M 18.425781 24.515625 " fill-opacity="1" fill-rule="evenodd"/></g><path fill="#ffffff" d="M 11.660156 3.421875 C 9.386719 3.34375 8.007812 4.089844 7.527344 5.324219 C 7.183594 5.289062 6.847656 5.320312 6.519531 5.425781 C 6.191406 5.527344 5.898438 5.695312 5.636719 5.921875 C 5.378906 6.148438 5.175781 6.417969 5.027344 6.734375 C 4.878906 7.046875 4.800781 7.375 4.789062 7.722656 C 3.378906 8.671875 2.703125 9.996094 2.769531 11.695312 C 1.527344 12.871094 1.382812 14.15625 2.328125 15.550781 C 1.175781 17.238281 1.253906 18.714844 2.554688 19.976562 C 2.519531 21.820312 3.292969 22.835938 4.882812 23.019531 C 5.347656 24.253906 6.308594 24.621094 7.765625 24.121094 C 8.605469 24.722656 9.65625 24.738281 10.945312 24.222656 C 11.4375 24.015625 11.933594 24.007812 12.433594 24.199219 C 13.414062 24.570312 14.402344 24.5 15.390625 23.996094 C 15.960938 23.6875 16.5625 23.605469 17.195312 23.75 C 18.042969 23.917969 18.832031 23.765625 19.554688 23.289062 C 19.980469 23.019531 20.519531 22.917969 21.175781 23.011719 C 22.078125 23.136719 22.882812 22.890625 23.632812 22.335938 C 24.144531 21.964844 24.757812 21.800781 25.367188 21.570312 C 26.394531 21.171875 26.933594 20.3125 27.0625 19.203125 C 28.488281 18.089844 28.738281 16.804688 27.808594 15.347656 C 28.285156 13.582031 27.976562 12.320312 26.878906 11.574219 C 26.953125 9.855469 26.265625 8.417969 24.824219 7.257812 C 24.394531 5.070312 23.339844 4.007812 21.65625 3.992188 C 21.425781 3.984375 21.25 3.878906 21.128906 3.683594 C 20.28125 2.589844 18.878906 2.34375 17.03125 2.890625 C 16.691406 2.988281 16.394531 2.867188 16.011719 2.765625 C 14.664062 2.429688 13.460938 2.671875 12.515625 3.238281 C 12.148438 3.457031 11.902344 3.425781 11.660156 3.414062 Z M 13.019531 21.535156 C 12.882812 22.304688 12.429688 23.089844 11.589844 23.207031 C 10.769531 23.320312 10.136719 22.714844 9.855469 21.992188 C 9.816406 21.890625 9.800781 21.785156 9.804688 21.671875 C 9.8125 21.5625 9.839844 21.460938 9.890625 21.363281 C 9.941406 21.265625 10.011719 21.179688 10.097656 21.113281 C 10.183594 21.046875 10.277344 21 10.386719 20.972656 C 10.449219 20.960938 10.5 20.925781 10.539062 20.871094 C 10.640625 20.714844 10.785156 20.609375 10.964844 20.5625 C 11.144531 20.511719 11.320312 20.53125 11.488281 20.613281 C 11.679688 20.703125 11.875 20.722656 12.078125 20.664062 C 12.203125 20.632812 12.328125 20.628906 12.453125 20.660156 C 12.578125 20.691406 12.6875 20.75 12.785156 20.835938 C 12.878906 20.921875 12.949219 21.027344 12.992188 21.152344 C 13.03125 21.273438 13.042969 21.402344 13.019531 21.527344 Z M 17.023438 20.488281 C 17.054688 20.5 17.089844 20.503906 17.121094 20.503906 C 17.417969 20.453125 17.660156 20.542969 17.84375 20.78125 C 18.03125 21.015625 18.0625 21.273438 17.945312 21.550781 C 17.210938 23.257812 14.941406 23.121094 14.777344 21.175781 C 14.765625 21.050781 14.785156 20.933594 14.828125 20.820312 C 14.875 20.707031 14.945312 20.609375 15.039062 20.53125 C 15.132812 20.453125 15.238281 20.398438 15.355469 20.371094 C 15.476562 20.339844 15.59375 20.34375 15.710938 20.371094 C 15.910156 20.421875 15.972656 20.394531 16.164062 20.308594 C 16.308594 20.242188 16.460938 20.226562 16.621094 20.261719 C 16.777344 20.292969 16.910156 20.371094 17.019531 20.488281 Z M 14.820312 9.496094 C 15.921875 9.921875 16.902344 9.789062 17.824219 9.039062 C 18.445312 8.539062 19.652344 10.132812 20.769531 8.179688 C 20.8125 8.089844 20.878906 8.027344 20.972656 7.992188 C 21.0625 7.953125 21.152344 7.953125 21.246094 7.988281 C 21.335938 8.023438 21.402344 8.085938 21.445312 8.175781 C 21.488281 8.261719 21.496094 8.355469 21.46875 8.449219 C 21.425781 8.554688 21.382812 8.652344 21.332031 8.746094 C 21.433594 8.746094 21.539062 8.730469 21.605469 8.722656 C 21.945312 8.683594 22.285156 8.671875 22.625 8.679688 C 23.816406 8.742188 24.414062 9.914062 24.046875 10.988281 C 23.550781 12.433594 22.261719 12.710938 21.015625 11.988281 C 20.96875 11.960938 20.921875 11.933594 20.875 11.90625 C 21.167969 12.550781 21.371094 13.222656 21.488281 13.921875 C 21.867188 16.15625 20.625 17.902344 18.550781 18.679688 C 16.164062 19.578125 13.976562 19.636719 11.476562 19.636719 C 9.640625 19.636719 7.714844 19.289062 6.523438 17.753906 C 5.296875 16.175781 5.589844 14.078125 6.199219 12.300781 C 5.746094 12.476562 5.285156 12.535156 4.804688 12.472656 C 4.058594 12.386719 3.59375 11.765625 3.570312 11.03125 C 3.53125 9.625 4.539062 8.972656 5.839844 9.042969 C 5.933594 9.050781 6.023438 9.070312 6.109375 9.109375 C 6.347656 8.785156 6.667969 8.644531 7.066406 8.679688 C 7.109375 8.621094 7.144531 8.558594 7.179688 8.496094 C 7.46875 7.980469 7.898438 7.421875 8.515625 7.316406 C 9.152344 7.210938 9.617188 7.613281 9.886719 8.144531 C 9.933594 8.132812 9.976562 8.117188 10.003906 8.109375 C 10.265625 8.019531 10.53125 8.015625 10.800781 8.097656 C 11.066406 8.179688 11.285156 8.328125 11.457031 8.550781 C 11.625 8.773438 11.71875 9.023438 11.730469 9.304688 C 11.742188 9.585938 11.671875 9.84375 11.519531 10.082031 C 12.429688 10.328125 13.316406 10.296875 14.054688 9.636719 C 14.28125 9.429688 14.535156 9.382812 14.820312 9.496094 Z M 14.820312 9.496094 " fill-opacity="1" fill-rule="evenodd"/><path fill="#f7e674" d="M 10.246094 8.824219 C 9.726562 9.007812 9.402344 8.9375 9.257812 8.59375 C 8.933594 7.816406 8.390625 7.871094 7.832031 8.871094 C 7.554688 9.363281 7.367188 9.484375 6.984375 9.4375 C 6.722656 9.40625 6.550781 9.738281 6.527344 10.003906 C 6.507812 10.269531 6.632812 10.582031 6.894531 10.632812 C 7.421875 10.738281 7.585938 10.921875 7.59375 11.390625 C 7.609375 11.941406 8.070312 12.082031 8.574219 11.632812 C 9.078125 11.183594 9.371094 11.015625 9.683594 11.273438 C 10.132812 11.644531 10.464844 11.519531 10.417969 10.980469 C 10.371094 10.390625 10.410156 10.019531 10.734375 9.808594 C 10.847656 9.730469 10.925781 9.625 10.960938 9.488281 C 10.996094 9.355469 10.980469 9.222656 10.917969 9.097656 C 10.859375 8.972656 10.761719 8.886719 10.632812 8.832031 C 10.503906 8.78125 10.375 8.777344 10.246094 8.824219 Z M 10.246094 8.824219 " fill-opacity="1" fill-rule="evenodd"/><path fill="#fee4d7" d="M 20.746094 14.039062 C 21.019531 15.644531 20.308594 17.203125 18.300781 17.960938 C 15.796875 18.898438 13.445312 18.867188 11.484375 18.867188 C 9.386719 18.867188 7.976562 18.375 7.125 17.273438 C 6.269531 16.175781 6.183594 14.507812 7.035156 12.21875 L 7.074219 12.179688 C 7.230469 12.40625 7.441406 12.554688 7.707031 12.621094 C 8.207031 12.753906 8.699219 12.535156 9.070312 12.203125 C 9.125 12.15625 9.246094 12.046875 9.347656 11.972656 C 9.6875 12.203125 10.09375 12.335938 10.5 12.183594 C 11.027344 11.984375 11.210938 11.441406 11.171875 10.921875 C 11.171875 10.894531 11.164062 10.839844 11.160156 10.78125 L 11.246094 10.792969 C 12.585938 11.171875 13.6875 10.976562 14.550781 10.203125 C 15.921875 10.734375 17.167969 10.542969 18.292969 9.632812 C 19.640625 10.886719 20.460938 12.355469 20.742188 14.042969 Z M 20.746094 14.039062 " fill-opacity="1" fill-rule="evenodd"/><path fill="#fee4d7" d="M 4.886719 11.714844 C 5.472656 11.804688 5.984375 11.65625 6.433594 11.265625 C 5.972656 11.019531 5.734375 10.472656 5.777344 9.945312 C 5.777344 9.898438 5.789062 9.851562 5.792969 9.804688 C 4.824219 9.75 4.296875 10.152344 4.324219 11.011719 C 4.339844 11.402344 4.554688 11.679688 4.890625 11.71875 Z M 4.886719 11.714844 " fill-opacity="1" fill-rule="evenodd"/><path fill="#fee4d7" d="M 20.261719 10.214844 C 20.53125 10.695312 20.90625 11.066406 21.390625 11.324219 C 22.289062 11.839844 23.015625 11.664062 23.335938 10.730469 C 23.542969 10.125 23.261719 9.460938 22.585938 9.425781 C 21.894531 9.390625 21.390625 9.566406 20.976562 9.453125 C 20.199219 9.246094 19.917969 9.5625 20.261719 10.210938 Z M 20.261719 10.214844 " fill-opacity="1" fill-rule="evenodd"/><path fill="#ffb9a8" d="M 8.667969 18.417969 C 8.054688 18.179688 7.539062 17.796875 7.128906 17.273438 C 6.941406 17.035156 6.792969 16.769531 6.683594 16.484375 C 6.761719 16.328125 6.855469 16.183594 6.96875 16.050781 C 7.578125 15.328125 8.519531 15.207031 9.070312 15.785156 C 9.621094 16.363281 9.570312 17.417969 8.957031 18.144531 C 8.875 18.246094 8.777344 18.335938 8.675781 18.417969 Z M 8.667969 18.417969 " fill-opacity="1" fill-rule="evenodd"/><path fill="#ffb9a8" d="M 20.800781 14.613281 C 20.820312 15.117188 20.722656 15.597656 20.515625 16.058594 C 20.304688 16.515625 20.003906 16.902344 19.613281 17.21875 C 18.921875 17.082031 18.332031 16.378906 18.25 15.53125 C 18.152344 14.585938 18.71875 13.816406 19.515625 13.816406 C 20.023438 13.816406 20.503906 14.132812 20.808594 14.613281 Z M 20.800781 14.613281 " fill-opacity="1" fill-rule="evenodd"/><path fill="#000000" d="M 10.445312 14.148438 C 10.5625 14.167969 10.667969 14.214844 10.765625 14.285156 C 10.863281 14.359375 10.945312 14.453125 11.011719 14.570312 C 11.074219 14.6875 11.121094 14.8125 11.140625 14.957031 C 11.164062 15.097656 11.164062 15.238281 11.140625 15.382812 C 11.117188 15.527344 11.070312 15.664062 11.007812 15.789062 C 10.941406 15.917969 10.859375 16.023438 10.757812 16.113281 C 10.660156 16.203125 10.554688 16.265625 10.4375 16.304688 C 10.320312 16.339844 10.207031 16.351562 10.089844 16.332031 C 9.976562 16.3125 9.867188 16.265625 9.769531 16.195312 C 9.671875 16.121094 9.589844 16.027344 9.527344 15.910156 C 9.460938 15.792969 9.417969 15.664062 9.394531 15.523438 C 9.371094 15.382812 9.371094 15.242188 9.394531 15.097656 C 9.417969 14.953125 9.464844 14.816406 9.53125 14.6875 C 9.597656 14.5625 9.679688 14.457031 9.777344 14.367188 C 9.875 14.277344 9.984375 14.214844 10.097656 14.175781 C 10.214844 14.140625 10.328125 14.128906 10.445312 14.148438 Z M 10.445312 14.148438 " fill-opacity="1" fill-rule="nonzero"/><path fill="#000000" d="M 18.34375 14.179688 C 18.386719 14.316406 18.40625 14.453125 18.40625 14.589844 C 18.40625 14.730469 18.378906 14.859375 18.332031 14.980469 C 18.285156 15.101562 18.222656 15.207031 18.136719 15.292969 C 18.050781 15.375 17.953125 15.4375 17.84375 15.472656 C 17.734375 15.507812 17.617188 15.519531 17.5 15.5 C 17.382812 15.480469 17.269531 15.4375 17.160156 15.367188 C 17.050781 15.296875 16.953125 15.207031 16.871094 15.09375 C 16.789062 14.984375 16.726562 14.859375 16.683594 14.726562 C 16.636719 14.589844 16.617188 14.453125 16.617188 14.3125 C 16.621094 14.175781 16.644531 14.042969 16.691406 13.921875 C 16.738281 13.800781 16.804688 13.699219 16.890625 13.613281 C 16.972656 13.527344 17.070312 13.464844 17.179688 13.429688 C 17.292969 13.394531 17.40625 13.386719 17.523438 13.402344 C 17.644531 13.421875 17.757812 13.464844 17.867188 13.535156 C 17.972656 13.605469 18.070312 13.699219 18.152344 13.808594 C 18.234375 13.921875 18.296875 14.042969 18.34375 14.179688 Z M 18.34375 14.179688 " fill-opacity="1" fill-rule="nonzero"/><path fill="#000000" d="M 13.863281 15.699219 C 13.648438 15.898438 13.398438 15.984375 13.109375 15.957031 C 12.976562 15.957031 12.917969 15.886719 12.929688 15.753906 C 12.941406 15.621094 13.011719 15.566406 13.144531 15.589844 C 13.394531 15.609375 13.582031 15.515625 13.714844 15.296875 C 13.753906 15.230469 13.808594 15.203125 13.882812 15.207031 C 13.960938 15.210938 14.011719 15.25 14.039062 15.316406 C 14.078125 15.402344 14.140625 15.46875 14.226562 15.507812 C 14.3125 15.546875 14.398438 15.550781 14.488281 15.523438 C 14.605469 15.492188 14.683594 15.53125 14.71875 15.652344 C 14.753906 15.769531 14.710938 15.847656 14.59375 15.882812 C 14.3125 15.964844 14.070312 15.902344 13.863281 15.699219 Z M 13.863281 15.699219 " fill-opacity="1" fill-rule="evenodd"/><path fill="#ffffff" d="M 12.277344 21.398438 C 12.039062 22.71875 10.976562 22.789062 10.5625 21.714844 C 10.820312 21.652344 11.019531 21.515625 11.167969 21.296875 C 11.527344 21.472656 11.898438 21.503906 12.28125 21.398438 Z M 12.277344 21.398438 " fill-opacity="1" fill-rule="evenodd"/><path fill="#ffffff" d="M 15.527344 21.109375 C 15.625 22.265625 16.835938 22.234375 17.253906 21.25 C 16.976562 21.300781 16.609375 21.199219 16.464844 21.003906 C 16.117188 21.160156 15.898438 21.203125 15.527344 21.109375 Z M 15.527344 21.109375 " fill-opacity="1" fill-rule="evenodd"/><path fill="#ffffff" d="M 10.890625 25.050781 C 11.007812 25.1875 11.148438 25.296875 11.3125 25.375 C 11.476562 25.453125 11.648438 25.496094 11.828125 25.503906 C 12.007812 25.511719 12.183594 25.484375 12.351562 25.417969 C 12.523438 25.351562 12.671875 25.257812 12.800781 25.128906 C 12.800781 25.121094 12.800781 25.109375 12.800781 25.097656 C 12.585938 25.050781 12.375 24.988281 12.171875 24.910156 C 11.851562 24.789062 11.535156 24.792969 11.222656 24.925781 C 11.113281 24.972656 11 25.011719 10.890625 25.050781 Z M 10.890625 25.050781 " fill-opacity="1" fill-rule="evenodd"/><path fill="#ffffff" d="M 16.097656 24.519531 C 16.339844 24.671875 16.597656 24.75 16.878906 24.757812 C 17.164062 24.765625 17.425781 24.699219 17.671875 24.5625 C 17.464844 24.554688 17.253906 24.527344 17.050781 24.488281 C 16.730469 24.414062 16.414062 24.421875 16.097656 24.519531 Z M 16.097656 24.519531 " fill-opacity="1" fill-rule="evenodd"/><path fill="#ffffff" d="M 9.339844 9.945312 C 9.339844 10.109375 9.285156 10.246094 9.171875 10.359375 C 9.058594 10.472656 8.921875 10.527344 8.765625 10.527344 C 8.605469 10.527344 8.46875 10.472656 8.355469 10.359375 C 8.242188 10.246094 8.1875 10.109375 8.1875 9.945312 C 8.1875 9.785156 8.242188 9.648438 8.355469 9.535156 C 8.46875 9.421875 8.605469 9.363281 8.765625 9.363281 C 8.921875 9.363281 9.058594 9.421875 9.171875 9.535156 C 9.285156 9.648438 9.339844 9.785156 9.339844 9.945312 Z M 9.339844 9.945312 " fill-opacity="1" fill-rule="nonzero"/></svg>