<svg xmlns="http://www.w3.org/2000/svg" xmlns:xlink="http://www.w3.org/1999/xlink" width="40" zoomAndPan="magnify" viewBox="0 0 30 30.000001" height="40" preserveAspectRatio="xMidYMid meet" version="1.0"><defs><clipPath id="909995887d"><path d="M 0.484375 1 L 29.515625 1 L 29.515625 27.796875 L 0.484375 27.796875 Z M 0.484375 1 " clip-rule="nonzero"/></clipPath></defs><g clip-path="url(#909995887d)"><path fill="#000000" d="M 17.367188 26.726562 C 16.996094 27.21875 16.5 27.476562 15.878906 27.503906 C 15.363281 27.519531 14.910156 27.355469 14.527344 27.015625 C 14.242188 27.097656 13.957031 27.097656 13.671875 27.015625 C 12.734375 27.789062 11.628906 27.808594 10.832031 26.890625 C 10.804688 26.894531 10.78125 26.894531 10.753906 26.890625 C 8.171875 26.722656 5.222656 26.148438 3.15625 24.496094 C 1.25 22.96875 0.492188 20.820312 0.613281 18.425781 C 0.84375 13.703125 3.074219 9.957031 7.214844 7.617188 C 6.632812 6.628906 6.371094 5.566406 6.4375 4.421875 C 6.460938 3.996094 6.574219 3.597656 6.78125 3.226562 C 6.988281 2.855469 7.261719 2.542969 7.613281 2.296875 C 7.960938 2.042969 8.347656 1.878906 8.769531 1.804688 C 9.195312 1.730469 9.613281 1.75 10.03125 1.867188 C 11.636719 2.332031 12.125 4.09375 12.25 5.746094 C 12.324219 5.726562 12.402344 5.714844 12.480469 5.710938 C 12.558594 5.707031 12.636719 5.714844 12.714844 5.726562 C 12.738281 5.289062 12.808594 4.859375 12.925781 4.4375 C 13.242188 3.386719 13.789062 2.273438 14.710938 1.625 C 15.636719 0.976562 16.671875 0.949219 17.679688 1.390625 C 18.582031 1.785156 19.246094 2.496094 19.320312 3.496094 C 19.394531 4.464844 18.894531 5.386719 18.28125 6.109375 C 23.421875 7.984375 26.625 11.269531 27.378906 16.382812 C 27.582031 16.316406 27.789062 16.304688 27.996094 16.351562 C 28.203125 16.402344 28.382812 16.5 28.53125 16.652344 C 28.777344 16.921875 28.929688 17.242188 28.984375 17.601562 C 29.507812 18.21875 29.496094 18.941406 28.921875 19.496094 C 28.859375 19.832031 28.707031 20.121094 28.453125 20.359375 C 28.296875 20.492188 28.113281 20.570312 27.90625 20.597656 C 27.699219 20.621094 27.503906 20.589844 27.316406 20.5 C 26.972656 21.882812 26.253906 23.035156 25.152344 23.953125 C 23.125 25.679688 20.132812 26.390625 17.542969 26.722656 C 17.488281 26.726562 17.429688 26.726562 17.375 26.722656 Z M 17.367188 26.726562 " fill-opacity="1" fill-rule="evenodd"/></g><path fill="#ffffff" d="M 8.128906 8.824219 C 7.9375 8.648438 7.761719 8.457031 7.605469 8.246094 C 3.902344 10.328125 1.589844 13.71875 1.355469 18.460938 C 1.121094 23.175781 4.496094 25.746094 10.800781 26.152344 C 10.964844 25.855469 11.027344 25.875 11.183594 26.121094 C 11.769531 27.058594 12.613281 27.085938 13.433594 26.21875 C 13.566406 26.082031 13.554688 26.113281 13.71875 26.226562 C 13.972656 26.386719 14.230469 26.386719 14.484375 26.226562 C 14.671875 26.09375 14.714844 26.042969 14.824219 26.226562 C 15.066406 26.605469 15.410156 26.78125 15.859375 26.761719 C 16.300781 26.734375 16.632812 26.53125 16.855469 26.15625 C 17.023438 25.898438 17.242188 25.859375 17.4375 25.984375 C 24.035156 25.136719 26.976562 22.527344 26.796875 18.125 C 26.574219 12.652344 23.785156 8.851562 17.894531 6.75 C 17.519531 7.03125 17.203125 7.367188 16.949219 7.757812 C 16.878906 7.894531 16.765625 7.972656 16.613281 7.996094 C 16.457031 8.007812 16.332031 7.949219 16.246094 7.820312 C 16.152344 7.691406 16.144531 7.554688 16.222656 7.417969 C 16.734375 6.613281 17.304688 6.109375 17.671875 5.675781 C 18.96875 4.167969 18.878906 2.726562 17.371094 2.066406 C 15.71875 1.332031 14.328125 2.355469 13.640625 4.644531 C 13.445312 5.292969 13.425781 6.175781 13.425781 7.246094 C 13.445312 7.4375 13.359375 7.554688 13.175781 7.605469 C 13.09375 7.628906 13.015625 7.617188 12.941406 7.574219 C 12.867188 7.53125 12.820312 7.46875 12.800781 7.386719 C 12.769531 7.136719 12.761719 6.882812 12.769531 6.628906 C 12.738281 6.496094 12.652344 6.433594 12.511719 6.441406 C 12.371094 6.441406 12.292969 6.511719 12.28125 6.652344 C 12.265625 7.242188 12.28125 7.539062 12.28125 7.539062 C 12.28125 7.640625 12.25 7.730469 12.179688 7.804688 C 12.113281 7.878906 12.027344 7.921875 11.921875 7.925781 C 11.820312 7.941406 11.726562 7.914062 11.648438 7.847656 C 11.566406 7.777344 11.523438 7.695312 11.519531 7.589844 C 11.640625 4.632812 11.113281 2.949219 9.820312 2.574219 C 9.175781 2.398438 8.585938 2.503906 8.046875 2.898438 C 7.507812 3.28125 7.21875 3.804688 7.179688 4.460938 C 7.101562 5.886719 7.601562 7.152344 8.625 8.296875 C 8.679688 8.367188 8.707031 8.445312 8.699219 8.535156 C 8.695312 8.625 8.660156 8.699219 8.597656 8.765625 C 8.476562 8.898438 8.253906 8.949219 8.128906 8.824219 Z M 8.128906 8.824219 " fill-opacity="1" fill-rule="evenodd"/><path fill="#ffb9b1" d="M 10.742188 7.796875 C 11.246094 6.519531 10.8125 5.414062 10.199219 4.609375 C 9.550781 3.75 8.957031 3.757812 8.578125 4.800781 C 8.398438 5.253906 8.335938 5.722656 8.398438 6.207031 C 8.457031 6.6875 8.632812 7.128906 8.917969 7.527344 C 9.507812 8.367188 10.449219 8.535156 10.738281 7.792969 Z M 10.742188 7.796875 " fill-opacity="1" fill-rule="evenodd"/><path fill="#ffb9b1" d="M 15.617188 7.203125 C 16.046875 6.585938 16.386719 5.914062 16.8125 5.300781 C 17.292969 4.605469 17.261719 4.074219 16.550781 3.777344 C 15.085938 3.164062 14.082031 5.402344 14.199219 6.515625 C 14.335938 7.730469 14.964844 8.144531 15.617188 7.203125 Z M 15.617188 7.203125 " fill-opacity="1" fill-rule="evenodd"/><path fill="#ffb9b1" d="M 8.714844 21.628906 C 8.71875 21.78125 8.675781 21.925781 8.582031 22.070312 C 8.484375 22.210938 8.347656 22.339844 8.164062 22.457031 C 7.984375 22.570312 7.773438 22.660156 7.53125 22.730469 C 7.289062 22.796875 7.035156 22.835938 6.773438 22.847656 C 6.507812 22.859375 6.253906 22.839844 6.007812 22.792969 C 5.757812 22.746094 5.539062 22.675781 5.347656 22.578125 C 5.15625 22.480469 5.007812 22.363281 4.902344 22.230469 C 4.792969 22.09375 4.738281 21.953125 4.730469 21.800781 C 4.722656 21.652344 4.769531 21.507812 4.863281 21.363281 C 4.957031 21.21875 5.097656 21.09375 5.277344 20.976562 C 5.460938 20.863281 5.671875 20.773438 5.914062 20.703125 C 6.15625 20.636719 6.40625 20.597656 6.671875 20.585938 C 6.9375 20.574219 7.191406 20.59375 7.4375 20.640625 C 7.683594 20.6875 7.902344 20.757812 8.09375 20.855469 C 8.285156 20.953125 8.433594 21.070312 8.542969 21.203125 C 8.648438 21.339844 8.707031 21.480469 8.714844 21.628906 Z M 8.714844 21.628906 " fill-opacity="1" fill-rule="nonzero"/><path fill="#ffb9b1" d="M 21.472656 20.484375 C 21.492188 20.617188 21.460938 20.75 21.386719 20.882812 C 21.308594 21.019531 21.1875 21.144531 21.027344 21.261719 C 20.867188 21.378906 20.679688 21.476562 20.457031 21.558594 C 20.238281 21.636719 20.007812 21.695312 19.761719 21.726562 C 19.515625 21.757812 19.277344 21.765625 19.046875 21.742188 C 18.8125 21.722656 18.601562 21.679688 18.417969 21.605469 C 18.230469 21.535156 18.082031 21.445312 17.972656 21.335938 C 17.863281 21.226562 17.796875 21.105469 17.78125 20.972656 C 17.761719 20.839844 17.792969 20.707031 17.871094 20.574219 C 17.945312 20.4375 18.066406 20.3125 18.226562 20.195312 C 18.386719 20.082031 18.578125 19.980469 18.796875 19.902344 C 19.015625 19.820312 19.246094 19.765625 19.492188 19.730469 C 19.738281 19.699219 19.976562 19.691406 20.210938 19.714844 C 20.441406 19.734375 20.652344 19.78125 20.835938 19.851562 C 21.023438 19.921875 21.171875 20.011719 21.28125 20.121094 C 21.390625 20.230469 21.457031 20.351562 21.472656 20.484375 Z M 21.472656 20.484375 " fill-opacity="1" fill-rule="nonzero"/><path fill="#000000" d="M 9.179688 19.042969 C 9.285156 19.058594 9.386719 19.105469 9.480469 19.183594 C 9.570312 19.261719 9.644531 19.363281 9.707031 19.492188 C 9.765625 19.621094 9.808594 19.765625 9.828125 19.925781 C 9.847656 20.085938 9.847656 20.25 9.824219 20.417969 C 9.800781 20.585938 9.757812 20.742188 9.695312 20.894531 C 9.632812 21.042969 9.554688 21.171875 9.460938 21.28125 C 9.367188 21.386719 9.265625 21.46875 9.160156 21.515625 C 9.050781 21.566406 8.941406 21.585938 8.832031 21.570312 C 8.722656 21.558594 8.625 21.511719 8.53125 21.433594 C 8.441406 21.355469 8.363281 21.253906 8.304688 21.125 C 8.242188 20.996094 8.203125 20.851562 8.183594 20.691406 C 8.164062 20.53125 8.164062 20.367188 8.1875 20.199219 C 8.210938 20.03125 8.253906 19.871094 8.316406 19.722656 C 8.378906 19.574219 8.457031 19.445312 8.550781 19.335938 C 8.640625 19.230469 8.742188 19.148438 8.851562 19.097656 C 8.960938 19.046875 9.070312 19.03125 9.179688 19.042969 Z M 9.179688 19.042969 " fill-opacity="1" fill-rule="nonzero"/><path fill="#000000" d="M 18.085938 19.5 C 18.132812 19.644531 18.15625 19.789062 18.15625 19.9375 C 18.160156 20.082031 18.140625 20.21875 18.101562 20.34375 C 18.058594 20.46875 18 20.570312 17.921875 20.65625 C 17.84375 20.742188 17.753906 20.800781 17.648438 20.832031 C 17.546875 20.863281 17.4375 20.863281 17.328125 20.835938 C 17.214844 20.8125 17.105469 20.757812 17 20.675781 C 16.898438 20.597656 16.804688 20.496094 16.722656 20.375 C 16.640625 20.25 16.578125 20.117188 16.535156 19.972656 C 16.488281 19.828125 16.464844 19.683594 16.460938 19.535156 C 16.460938 19.390625 16.480469 19.253906 16.519531 19.128906 C 16.5625 19.007812 16.621094 18.902344 16.699219 18.816406 C 16.777344 18.734375 16.867188 18.675781 16.96875 18.644531 C 17.074219 18.613281 17.179688 18.609375 17.292969 18.636719 C 17.40625 18.664062 17.515625 18.714844 17.617188 18.796875 C 17.722656 18.875 17.816406 18.976562 17.898438 19.101562 C 17.980469 19.222656 18.042969 19.355469 18.085938 19.5 Z M 18.085938 19.5 " fill-opacity="1" fill-rule="nonzero"/><path fill="#000000" d="M 13.128906 20.894531 C 12.890625 21.207031 12.523438 21.351562 12.109375 21.382812 C 11.992188 21.390625 11.925781 21.339844 11.917969 21.222656 C 11.910156 21.105469 11.960938 21.042969 12.082031 21.03125 C 12.457031 21 12.78125 20.871094 12.9375 20.515625 C 12.96875 20.449219 13.015625 20.414062 13.085938 20.410156 C 13.15625 20.402344 13.210938 20.429688 13.25 20.488281 C 13.519531 20.886719 13.945312 20.992188 14.40625 20.964844 C 14.527344 20.957031 14.589844 21.015625 14.59375 21.132812 C 14.601562 21.25 14.542969 21.308594 14.425781 21.316406 C 13.925781 21.34375 13.464844 21.234375 13.128906 20.894531 Z M 13.128906 20.894531 " fill-opacity="1" fill-rule="evenodd"/><path fill="#ffffff" d="M 27.472656 17.132812 C 27.503906 17.449219 27.527344 17.773438 27.542969 18.101562 C 27.566406 18.648438 27.539062 19.195312 27.460938 19.742188 C 27.875 20.027344 28.132812 19.8125 28.238281 19.09375 C 28.726562 18.746094 28.746094 18.359375 28.285156 17.9375 C 28.179688 17.175781 27.910156 16.90625 27.476562 17.132812 Z M 27.472656 17.132812 " fill-opacity="1" fill-rule="evenodd"/></svg>