<svg xmlns="http://www.w3.org/2000/svg" xmlns:xlink="http://www.w3.org/1999/xlink" width="1400" zoomAndPan="magnify" viewBox="0 0 1050 30.000001" height="40" preserveAspectRatio="xMidYMid meet" version="1.0"><defs><clipPath id="8e0c514dd3"><path d="M 508 8 L 538.789062 8 L 538.789062 18 L 508 18 Z M 508 8 " clip-rule="nonzero"/></clipPath><clipPath id="2493560c52"><path d="M 455 7.566406 L 484 7.566406 L 484 17 L 455 17 Z M 455 7.566406 " clip-rule="nonzero"/></clipPath><clipPath id="0b793b1339"><path d="M 29.273438 12 L 47 12 L 47 19 L 29.273438 19 Z M 29.273438 12 " clip-rule="nonzero"/></clipPath><clipPath id="ebb96c27ed"><path d="M 510.992188 7.566406 L 1020.507812 7.566406 L 1020.507812 21.355469 L 510.992188 21.355469 Z M 510.992188 7.566406 " clip-rule="nonzero"/></clipPath><clipPath id="aecee4dfd8"><path d="M 1.207031 1 L 32 1 L 32 11 L 1.207031 11 Z M 1.207031 1 " clip-rule="nonzero"/></clipPath><clipPath id="908bf0eb4f"><path d="M 56 0.566406 L 85 0.566406 L 85 10 L 56 10 Z M 56 0.566406 " clip-rule="nonzero"/></clipPath><clipPath id="2ce545185d"><path d="M 493 5 L 510.507812 5 L 510.507812 12 L 493 12 Z M 493 5 " clip-rule="nonzero"/></clipPath><clipPath id="6d7d33aa71"><rect x="0" width="511" y="0" height="15"/></clipPath></defs><g clip-path="url(#8e0c514dd3)"><path fill="#000000" d="M 523.585938 9.273438 C 526.992188 9.273438 530.335938 9.273438 533.742188 9.273438 C 534.679688 9.273438 535.679688 9.332031 536.617188 9.503906 C 537.027344 9.5625 537.558594 9.972656 537.734375 10.320312 C 538.613281 12.128906 538.789062 13.992188 538.027344 15.859375 C 537.617188 16.792969 536.851562 17.433594 535.855469 17.550781 C 534.679688 17.667969 533.390625 17.726562 532.214844 17.492188 C 525.582031 16.210938 518.832031 15.566406 512.082031 15.042969 C 511.378906 14.984375 510.671875 14.75 509.96875 14.636719 C 509.265625 14.460938 508.324219 13.292969 508.265625 12.476562 C 508.207031 11.488281 509.148438 9.679688 509.910156 9.445312 C 510.847656 9.214844 511.789062 8.921875 512.726562 8.921875 C 516.367188 8.921875 519.949219 9.097656 523.585938 9.15625 C 523.585938 9.214844 523.585938 9.214844 523.585938 9.273438 Z M 523.585938 9.273438 " fill-opacity="1" fill-rule="nonzero"/></g><path fill="#000000" d="M 367.621094 20.464844 C 366.09375 20.289062 365.097656 20.230469 364.15625 20.054688 C 362.808594 19.882812 361.808594 18.191406 362.21875 16.734375 C 362.515625 15.566406 363.101562 14.519531 364.15625 13.820312 C 364.746094 13.410156 365.390625 13.003906 366.09375 12.886719 C 371.730469 11.835938 377.304688 10.320312 383.117188 10.378906 C 383.761719 10.378906 384.585938 10.671875 385.113281 11.078125 C 386.347656 12.011719 386.992188 14.984375 386.230469 16.324219 C 385.933594 16.910156 385.40625 17.492188 384.820312 17.898438 C 384.234375 18.308594 383.527344 18.539062 382.824219 18.597656 C 377.542969 19.355469 372.316406 19.941406 367.621094 20.464844 Z M 367.621094 20.464844 " fill-opacity="1" fill-rule="nonzero"/><g clip-path="url(#2493560c52)"><path fill="#000000" d="M 468.410156 8.921875 C 470.109375 8.863281 473.457031 8.863281 476.863281 8.222656 C 478.035156 7.988281 479.269531 7.875 480.441406 7.875 C 481.441406 7.875 482.320312 8.28125 482.789062 9.332031 C 483.144531 10.203125 483.554688 11.078125 483.789062 12.011719 C 484.257812 13.820312 482.613281 16.035156 480.734375 16.152344 C 480.265625 16.210938 479.738281 16.265625 479.269531 16.265625 C 472.222656 15.859375 465.238281 15.453125 458.195312 15.042969 C 457.726562 15.042969 457.257812 14.75 456.785156 14.636719 C 456.082031 14.402344 455.4375 13.179688 455.496094 12.246094 C 455.671875 10.730469 456.726562 9.273438 457.960938 9.039062 C 458.898438 8.863281 459.898438 8.632812 460.835938 8.632812 C 462.832031 8.632812 464.769531 8.746094 468.410156 8.921875 Z M 468.410156 8.921875 " fill-opacity="1" fill-rule="nonzero"/></g><path fill="#000000" d="M 279.335938 20.464844 C 276.226562 20.289062 273.054688 20.113281 269.945312 19.882812 C 268.769531 19.765625 267.539062 19.53125 266.363281 19.296875 C 265.484375 19.125 264.660156 18.191406 264.484375 17.316406 C 264.308594 16.210938 265.070312 14.636719 266.070312 14.402344 C 267.714844 13.992188 269.355469 13.585938 271 13.527344 C 276.285156 13.46875 281.625 13.527344 286.910156 13.585938 C 288.375 13.585938 289.667969 14.578125 290.078125 16.09375 C 290.253906 16.792969 290.3125 17.492188 290.371094 18.191406 C 290.488281 20 289.550781 21.046875 287.90625 20.988281 C 285.089844 20.871094 282.210938 20.640625 279.335938 20.464844 Z M 279.335938 20.464844 " fill-opacity="1" fill-rule="nonzero"/><path fill="#000000" d="M 230.261719 18.308594 C 227.914062 18.191406 224.980469 18.015625 222.105469 17.839844 C 220.460938 17.726562 219.226562 15.976562 219.460938 14.167969 C 219.578125 12.886719 220.519531 11.777344 221.574219 11.546875 C 222.515625 11.371094 223.453125 11.136719 224.453125 11.195312 C 229.96875 11.488281 235.488281 11.777344 241.003906 12.1875 C 241.886719 12.246094 242.824219 12.710938 243.648438 13.121094 C 244.761719 13.703125 245.113281 15.21875 244.410156 16.152344 C 243.824219 16.910156 243.175781 17.609375 242.53125 18.367188 C 241.886719 19.183594 241.0625 19.589844 240.007812 19.472656 C 236.953125 19.183594 233.902344 18.773438 230.261719 18.308594 Z M 230.261719 18.308594 " fill-opacity="1" fill-rule="nonzero"/><path fill="#000000" d="M 334.808594 20.8125 C 329.9375 19.472656 325.355469 19.414062 320.777344 19.355469 C 319.136719 19.355469 317.433594 19.066406 315.789062 18.773438 C 314.730469 18.597656 313.851562 17.199219 313.792969 16.035156 C 313.734375 14.867188 314.554688 13.527344 315.671875 13.234375 C 316.84375 12.945312 318.019531 12.59375 319.195312 12.535156 C 323.773438 12.476562 328.351562 12.59375 332.988281 12.652344 C 334.808594 12.652344 336.214844 13.527344 337.390625 14.867188 C 337.859375 15.453125 338.210938 16.210938 337.800781 16.851562 C 336.980469 18.074219 336.039062 19.125 334.808594 20.8125 Z M 334.808594 20.8125 " fill-opacity="1" fill-rule="nonzero"/><path fill="#000000" d="M 415.519531 16.5 C 413.347656 16.5 411.175781 16.558594 408.945312 16.441406 C 408.007812 16.382812 407.066406 16.035156 406.128906 15.742188 C 405.011719 15.394531 404.542969 13.9375 404.953125 12.710938 C 405.484375 11.253906 406.539062 10.261719 407.949219 9.796875 C 409.0625 9.445312 410.296875 9.273438 411.527344 9.214844 C 415.636719 8.980469 419.746094 8.804688 423.855469 8.632812 C 425.617188 8.574219 427.4375 10.730469 427.144531 12.652344 C 427.085938 13.121094 426.90625 13.585938 426.730469 14.050781 C 426.261719 15.21875 425.5 16.210938 424.148438 16.265625 C 421.214844 16.324219 418.335938 16.265625 415.402344 16.265625 C 415.519531 16.382812 415.519531 16.441406 415.519531 16.5 Z M 415.519531 16.5 " fill-opacity="1" fill-rule="nonzero"/><path fill="#000000" d="M 189.113281 16.5 C 186.238281 16.382812 183.304688 16.265625 180.425781 16.035156 C 179.722656 15.976562 179.019531 15.742188 178.371094 15.453125 C 177.375 15.042969 177.023438 14.167969 176.964844 13.121094 C 176.90625 12.1875 177.609375 11.078125 178.429688 10.847656 C 179.371094 10.613281 180.308594 10.320312 181.25 10.203125 C 185.59375 9.855469 189.9375 9.621094 194.222656 9.273438 C 196.511719 9.097656 198.449219 10.03125 200.324219 11.195312 C 201.089844 11.664062 201.441406 12.945312 200.972656 13.703125 C 199.914062 15.453125 198.683594 16.675781 196.394531 16.558594 C 193.988281 16.441406 191.578125 16.5 189.171875 16.5 C 189.113281 16.558594 189.113281 16.5 189.113281 16.5 Z M 189.113281 16.5 " fill-opacity="1" fill-rule="nonzero"/><path fill="#000000" d="M 149.316406 17.78125 C 147.144531 17.78125 144.972656 17.78125 142.800781 17.78125 C 140.980469 17.78125 139.863281 16.675781 139.570312 14.636719 C 139.335938 12.886719 140.628906 11.078125 142.214844 10.960938 C 145.089844 10.730469 148.023438 10.554688 150.902344 10.261719 C 152.367188 10.148438 153.777344 9.796875 155.1875 9.679688 C 156.476562 9.5625 157.535156 10.320312 158.179688 11.371094 C 158.941406 12.59375 159.292969 14.050781 159.234375 15.507812 C 159.234375 16.035156 158.472656 17.082031 157.945312 17.082031 C 155.066406 17.257812 152.191406 17.375 149.257812 17.550781 C 149.316406 17.609375 149.316406 17.726562 149.316406 17.78125 Z M 149.316406 17.78125 " fill-opacity="1" fill-rule="nonzero"/><path fill="#000000" d="M 108.695312 18.015625 C 106.757812 18.015625 104.820312 18.015625 102.882812 18.015625 C 102.179688 18.015625 101.476562 17.839844 100.769531 17.726562 C 99.714844 17.550781 98.597656 16.265625 98.597656 15.21875 C 98.539062 13.992188 99.480469 12.652344 100.476562 12.476562 C 101.652344 12.246094 102.824219 12.070312 104.058594 11.953125 C 107.167969 11.664062 110.339844 11.546875 113.449219 11.195312 C 115.210938 11.019531 116.796875 11.429688 118.378906 12.011719 C 119.613281 12.476562 120.550781 13.179688 120.730469 14.460938 C 120.847656 15.453125 119.203125 17.375 118.085938 17.609375 C 117.382812 17.78125 116.679688 17.957031 115.972656 17.957031 C 113.566406 18.015625 111.160156 17.957031 108.695312 17.957031 C 108.695312 17.957031 108.695312 18.015625 108.695312 18.015625 Z M 108.695312 18.015625 " fill-opacity="1" fill-rule="nonzero"/><g clip-path="url(#0b793b1339)"><path fill="#000000" d="M 38.078125 18.191406 C 36.199219 18.425781 34.324219 18.714844 32.445312 18.949219 C 31.445312 19.066406 30.097656 18.074219 29.742188 16.96875 C 29.390625 15.800781 29.273438 14.636719 30.15625 13.644531 C 30.449219 13.292969 30.917969 13.003906 31.328125 12.886719 C 35.320312 12.011719 39.371094 11.894531 43.421875 12.421875 C 44.066406 12.476562 44.710938 13.003906 45.300781 13.410156 C 46.121094 13.992188 46.414062 14.925781 46.296875 15.917969 C 46.121094 17.023438 44.828125 18.191406 43.890625 18.191406 C 41.894531 18.191406 40.015625 18.191406 38.078125 18.191406 Z M 38.078125 18.191406 " fill-opacity="1" fill-rule="nonzero"/></g><path fill="#000000" d="M 70.480469 18.890625 C 67.488281 18.714844 65.609375 18.65625 63.671875 18.484375 C 62.203125 18.367188 61.265625 16.910156 61.5 15.335938 C 61.617188 14.636719 61.851562 13.878906 62.734375 13.761719 C 66.488281 13.292969 70.304688 12.769531 74.121094 12.535156 C 75.882812 12.421875 77.113281 13.761719 77.820312 15.394531 C 78.289062 16.558594 77.703125 18.015625 76.527344 18.132812 C 74.179688 18.484375 71.773438 18.714844 70.480469 18.890625 Z M 70.480469 18.890625 " fill-opacity="1" fill-rule="nonzero"/><g clip-path="url(#ebb96c27ed)"><g transform="matrix(1, 0, 0, 1, 510, 7)"><g clip-path="url(#6d7d33aa71)"><g clip-path="url(#aecee4dfd8)"><path fill="#000000" d="M 16.410156 2.273438 C 13.003906 2.273438 9.660156 2.273438 6.253906 2.273438 C 5.316406 2.273438 4.316406 2.332031 3.378906 2.503906 C 2.96875 2.5625 2.441406 2.972656 2.261719 3.320312 C 1.382812 5.128906 1.207031 6.992188 1.96875 8.859375 C 2.382812 9.792969 3.144531 10.433594 4.140625 10.550781 C 5.316406 10.667969 6.605469 10.726562 7.78125 10.492188 C 14.414062 9.210938 21.164062 8.566406 27.914062 8.042969 C 28.621094 7.984375 29.324219 7.75 30.027344 7.636719 C 30.734375 7.460938 31.671875 6.292969 31.730469 5.476562 C 31.789062 4.488281 30.851562 2.679688 30.085938 2.445312 C 29.148438 2.214844 28.207031 1.921875 27.269531 1.921875 C 23.628906 1.921875 20.050781 2.097656 16.410156 2.15625 C 16.410156 2.214844 16.410156 2.214844 16.410156 2.273438 Z M 16.410156 2.273438 " fill-opacity="1" fill-rule="nonzero"/></g><path fill="#000000" d="M 172.375 13.464844 C 173.902344 13.289062 174.898438 13.230469 175.839844 13.054688 C 177.191406 12.882812 178.1875 11.191406 177.777344 9.734375 C 177.484375 8.566406 176.894531 7.519531 175.839844 6.820312 C 175.253906 6.410156 174.605469 6.003906 173.902344 5.886719 C 168.265625 4.835938 162.691406 3.320312 156.878906 3.378906 C 156.234375 3.378906 155.410156 3.671875 154.882812 4.078125 C 153.652344 5.011719 153.003906 7.984375 153.769531 9.324219 C 154.0625 9.910156 154.589844 10.492188 155.175781 10.898438 C 155.765625 11.308594 156.46875 11.539062 157.171875 11.597656 C 162.457031 12.355469 167.679688 12.941406 172.375 13.464844 Z M 172.375 13.464844 " fill-opacity="1" fill-rule="nonzero"/><g clip-path="url(#908bf0eb4f)"><path fill="#000000" d="M 71.589844 1.921875 C 69.886719 1.863281 66.539062 1.863281 63.136719 1.222656 C 61.960938 0.988281 60.730469 0.875 59.554688 0.875 C 58.558594 0.875 57.675781 1.28125 57.207031 2.332031 C 56.855469 3.203125 56.445312 4.078125 56.207031 5.011719 C 55.738281 6.820312 57.382812 9.035156 59.261719 9.152344 C 59.730469 9.210938 60.257812 9.265625 60.730469 9.265625 C 67.773438 8.859375 74.757812 8.453125 81.800781 8.042969 C 82.273438 8.042969 82.742188 7.75 83.210938 7.636719 C 83.914062 7.402344 84.5625 6.179688 84.503906 5.246094 C 84.328125 3.730469 83.269531 2.273438 82.035156 2.039062 C 81.097656 1.863281 80.101562 1.632812 79.160156 1.632812 C 77.164062 1.632812 75.226562 1.746094 71.589844 1.921875 Z M 71.589844 1.921875 " fill-opacity="1" fill-rule="nonzero"/></g><path fill="#000000" d="M 260.660156 13.464844 C 263.773438 13.289062 266.941406 13.113281 270.054688 12.882812 C 271.226562 12.765625 272.460938 12.53125 273.632812 12.296875 C 274.515625 12.125 275.335938 11.191406 275.511719 10.316406 C 275.6875 9.210938 274.925781 7.636719 273.925781 7.402344 C 272.285156 6.992188 270.640625 6.585938 268.996094 6.527344 C 263.714844 6.46875 258.371094 6.527344 253.089844 6.585938 C 251.621094 6.585938 250.328125 7.578125 249.917969 9.09375 C 249.742188 9.792969 249.683594 10.492188 249.625 11.191406 C 249.507812 13 250.445312 14.046875 252.089844 13.988281 C 254.910156 13.871094 257.785156 13.640625 260.660156 13.464844 Z M 260.660156 13.464844 " fill-opacity="1" fill-rule="nonzero"/><path fill="#000000" d="M 309.734375 11.308594 C 312.082031 11.191406 315.015625 11.015625 317.894531 10.839844 C 319.535156 10.726562 320.769531 8.976562 320.535156 7.167969 C 320.417969 5.886719 319.476562 4.777344 318.421875 4.546875 C 317.484375 4.371094 316.542969 4.136719 315.546875 4.195312 C 310.027344 4.488281 304.511719 4.777344 298.992188 5.1875 C 298.113281 5.246094 297.171875 5.710938 296.351562 6.121094 C 295.234375 6.703125 294.882812 8.21875 295.585938 9.152344 C 296.175781 9.910156 296.820312 10.609375 297.464844 11.367188 C 298.113281 12.183594 298.933594 12.589844 299.988281 12.472656 C 303.042969 12.183594 306.09375 11.773438 309.734375 11.308594 Z M 309.734375 11.308594 " fill-opacity="1" fill-rule="nonzero"/><path fill="#000000" d="M 205.191406 13.8125 C 210.0625 12.472656 214.640625 12.414062 219.21875 12.355469 C 220.863281 12.355469 222.566406 12.066406 224.207031 11.773438 C 225.265625 11.597656 226.144531 10.199219 226.203125 9.035156 C 226.261719 7.867188 225.441406 6.527344 224.324219 6.234375 C 223.152344 5.945312 221.976562 5.59375 220.804688 5.535156 C 216.226562 5.476562 211.648438 5.59375 207.007812 5.652344 C 205.191406 5.652344 203.78125 6.527344 202.605469 7.867188 C 202.136719 8.453125 201.785156 9.210938 202.195312 9.851562 C 203.015625 11.074219 203.957031 12.125 205.191406 13.8125 Z M 205.191406 13.8125 " fill-opacity="1" fill-rule="nonzero"/><path fill="#000000" d="M 124.476562 9.5 C 126.648438 9.5 128.820312 9.558594 131.050781 9.441406 C 131.992188 9.382812 132.929688 9.035156 133.867188 8.742188 C 134.984375 8.394531 135.453125 6.9375 135.042969 5.710938 C 134.515625 4.253906 133.457031 3.261719 132.050781 2.796875 C 130.933594 2.445312 129.703125 2.273438 128.46875 2.214844 C 124.359375 1.980469 120.25 1.804688 116.140625 1.632812 C 114.378906 1.574219 112.5625 3.730469 112.855469 5.652344 C 112.914062 6.121094 113.089844 6.585938 113.265625 7.050781 C 113.734375 8.21875 114.496094 9.210938 115.847656 9.265625 C 118.78125 9.324219 121.660156 9.265625 124.59375 9.265625 C 124.476562 9.382812 124.476562 9.441406 124.476562 9.5 Z M 124.476562 9.5 " fill-opacity="1" fill-rule="nonzero"/><path fill="#000000" d="M 350.882812 9.5 C 353.757812 9.382812 356.695312 9.265625 359.570312 9.035156 C 360.273438 8.976562 360.980469 8.742188 361.625 8.453125 C 362.621094 8.042969 362.976562 7.167969 363.035156 6.121094 C 363.09375 5.1875 362.386719 4.078125 361.566406 3.847656 C 360.628906 3.613281 359.6875 3.320312 358.75 3.203125 C 354.40625 2.855469 350.0625 2.621094 345.777344 2.273438 C 343.488281 2.097656 341.550781 3.03125 339.671875 4.195312 C 338.90625 4.664062 338.554688 5.945312 339.027344 6.703125 C 340.082031 8.453125 341.316406 9.675781 343.605469 9.558594 C 346.011719 9.441406 348.417969 9.5 350.824219 9.5 C 350.882812 9.558594 350.882812 9.5 350.882812 9.5 Z M 350.882812 9.5 " fill-opacity="1" fill-rule="nonzero"/><path fill="#000000" d="M 390.679688 10.78125 C 392.851562 10.78125 395.023438 10.78125 397.195312 10.78125 C 399.015625 10.78125 400.132812 9.675781 400.425781 7.636719 C 400.660156 5.886719 399.367188 4.078125 397.785156 3.960938 C 394.90625 3.730469 391.972656 3.554688 389.097656 3.261719 C 387.628906 3.148438 386.21875 2.796875 384.8125 2.679688 C 383.519531 2.5625 382.464844 3.320312 381.816406 4.371094 C 381.054688 5.59375 380.703125 7.050781 380.761719 8.507812 C 380.761719 9.035156 381.523438 10.082031 382.050781 10.082031 C 384.929688 10.257812 387.804688 10.375 390.738281 10.550781 C 390.679688 10.609375 390.679688 10.726562 390.679688 10.78125 Z M 390.679688 10.78125 " fill-opacity="1" fill-rule="nonzero"/><path fill="#000000" d="M 431.300781 11.015625 C 433.238281 11.015625 435.175781 11.015625 437.113281 11.015625 C 437.816406 11.015625 438.523438 10.839844 439.226562 10.726562 C 440.28125 10.550781 441.398438 9.265625 441.398438 8.21875 C 441.457031 6.992188 440.519531 5.652344 439.519531 5.476562 C 438.347656 5.246094 437.171875 5.070312 435.9375 4.953125 C 432.828125 4.664062 429.660156 4.546875 426.546875 4.195312 C 424.785156 4.019531 423.203125 4.429688 421.617188 5.011719 C 420.382812 5.476562 419.445312 6.179688 419.269531 7.460938 C 419.152344 8.453125 420.792969 10.375 421.910156 10.609375 C 422.613281 10.78125 423.320312 10.957031 424.023438 10.957031 C 426.429688 11.015625 428.835938 10.957031 431.300781 10.957031 C 431.300781 10.957031 431.300781 11.015625 431.300781 11.015625 Z M 431.300781 11.015625 " fill-opacity="1" fill-rule="nonzero"/><g clip-path="url(#2ce545185d)"><path fill="#000000" d="M 501.917969 11.191406 C 503.796875 11.425781 505.675781 11.714844 507.554688 11.949219 C 508.550781 12.066406 509.902344 11.074219 510.253906 9.96875 C 510.605469 8.800781 510.722656 7.636719 509.84375 6.644531 C 509.550781 6.292969 509.078125 6.003906 508.667969 5.886719 C 504.675781 5.011719 500.625 4.894531 496.578125 5.421875 C 495.929688 5.476562 495.285156 6.003906 494.699219 6.410156 C 493.875 6.992188 493.582031 7.925781 493.699219 8.917969 C 493.875 10.023438 495.167969 11.191406 496.105469 11.191406 C 498.101562 11.191406 499.980469 11.191406 501.917969 11.191406 Z M 501.917969 11.191406 " fill-opacity="1" fill-rule="nonzero"/></g><path fill="#000000" d="M 469.515625 11.890625 C 472.507812 11.714844 474.386719 11.65625 476.324219 11.484375 C 477.792969 11.367188 478.730469 9.910156 478.496094 8.335938 C 478.378906 7.636719 478.144531 6.878906 477.265625 6.761719 C 473.507812 6.292969 469.691406 5.769531 465.875 5.535156 C 464.113281 5.421875 462.882812 6.761719 462.179688 8.394531 C 461.707031 9.558594 462.296875 11.015625 463.46875 11.132812 C 465.816406 11.484375 468.222656 11.714844 469.515625 11.890625 Z M 469.515625 11.890625 " fill-opacity="1" fill-rule="nonzero"/></g></g></g></svg>