<svg xmlns="http://www.w3.org/2000/svg" xmlns:xlink="http://www.w3.org/1999/xlink" width="40" zoomAndPan="magnify" viewBox="0 0 30 449.999984" height="600" preserveAspectRatio="xMidYMid meet" version="1.0"><defs><clipPath id="026ce929d8"><path d="M 2 217 L 7 217 L 7 231.40625 L 2 231.40625 Z M 2 217 " clip-rule="nonzero"/></clipPath><clipPath id="252c67fff3"><path d="M 3 193 L 7.152344 193 L 7.152344 207 L 3 207 Z M 3 193 " clip-rule="nonzero"/></clipPath><clipPath id="1018b79c58"><path d="M 0.980469 218.640625 L 7.152344 218.640625 L 7.152344 450 L 0.980469 450 Z M 0.980469 218.640625 " clip-rule="nonzero"/></clipPath><clipPath id="2c67e6168b"><path d="M 2 0.640625 L 7 0.640625 L 7 15 L 2 15 Z M 2 0.640625 " clip-rule="nonzero"/></clipPath><clipPath id="9edff82391"><path d="M 3 25 L 7.152344 25 L 7.152344 39 L 3 39 Z M 3 25 " clip-rule="nonzero"/></clipPath><clipPath id="8a02aa60ed"><path d="M 2 224 L 6 224 L 6 231.996094 L 2 231.996094 Z M 2 224 " clip-rule="nonzero"/></clipPath><clipPath id="1d50d4a2bb"><rect x="0" width="8" y="0" height="232"/></clipPath><clipPath id="b29fd4990e"><rect x="0" width="8" y="0" height="450"/></clipPath></defs><g transform="matrix(1, 0, 0, 1, 11, 0)"><g clip-path="url(#b29fd4990e)"><g clip-path="url(#026ce929d8)"><path fill="#000000" d="M 6.390625 224.503906 C 6.390625 226.050781 6.390625 227.570312 6.390625 229.117188 C 6.390625 229.542969 6.363281 229.996094 6.285156 230.421875 C 6.257812 230.609375 6.074219 230.847656 5.917969 230.929688 C 5.109375 231.328125 4.277344 231.40625 3.441406 231.0625 C 3.023438 230.875 2.738281 230.527344 2.683594 230.074219 C 2.632812 229.542969 2.605469 228.957031 2.710938 228.421875 C 3.285156 225.410156 3.570312 222.34375 3.804688 219.277344 C 3.832031 218.957031 3.9375 218.636719 3.988281 218.316406 C 4.066406 217.996094 4.589844 217.570312 4.953125 217.542969 C 5.398438 217.519531 6.207031 217.945312 6.308594 218.292969 C 6.414062 218.71875 6.546875 219.144531 6.546875 219.570312 C 6.546875 221.222656 6.46875 222.851562 6.441406 224.503906 C 6.414062 224.503906 6.414062 224.503906 6.390625 224.503906 Z M 6.390625 224.503906 " fill-opacity="1" fill-rule="nonzero"/></g><path fill="#000000" d="M 1.378906 153.667969 C 1.457031 152.972656 1.484375 152.519531 1.5625 152.09375 C 1.640625 151.480469 2.398438 151.027344 3.050781 151.214844 C 3.570312 151.347656 4.039062 151.613281 4.355469 152.09375 C 4.535156 152.359375 4.71875 152.652344 4.769531 152.972656 C 5.242188 155.53125 5.917969 158.066406 5.894531 160.707031 C 5.894531 161 5.761719 161.371094 5.578125 161.613281 C 5.164062 162.171875 3.832031 162.464844 3.230469 162.117188 C 2.972656 161.984375 2.710938 161.746094 2.527344 161.476562 C 2.34375 161.210938 2.242188 160.890625 2.214844 160.570312 C 1.875 158.171875 1.613281 155.800781 1.378906 153.667969 Z M 1.378906 153.667969 " fill-opacity="1" fill-rule="nonzero"/><g clip-path="url(#252c67fff3)"><path fill="#000000" d="M 6.546875 199.441406 C 6.570312 200.214844 6.570312 201.734375 6.859375 203.28125 C 6.960938 203.816406 7.015625 204.375 7.015625 204.90625 C 7.015625 205.359375 6.832031 205.761719 6.363281 205.972656 C 5.972656 206.132812 5.578125 206.320312 5.164062 206.425781 C 4.355469 206.640625 3.363281 205.894531 3.308594 205.042969 C 3.285156 204.828125 3.257812 204.585938 3.257812 204.375 C 3.441406 201.175781 3.625 198.003906 3.804688 194.804688 C 3.804688 194.589844 3.9375 194.378906 3.988281 194.164062 C 4.09375 193.84375 4.640625 193.550781 5.058594 193.578125 C 5.738281 193.65625 6.390625 194.136719 6.492188 194.695312 C 6.570312 195.125 6.675781 195.578125 6.675781 196.003906 C 6.675781 196.910156 6.625 197.789062 6.546875 199.441406 Z M 6.546875 199.441406 " fill-opacity="1" fill-rule="nonzero"/></g><path fill="#000000" d="M 1.378906 113.570312 C 1.457031 112.15625 1.535156 110.71875 1.640625 109.304688 C 1.691406 108.769531 1.796875 108.210938 1.902344 107.679688 C 1.980469 107.277344 2.398438 106.90625 2.789062 106.824219 C 3.285156 106.746094 3.988281 107.089844 4.09375 107.542969 C 4.277344 108.292969 4.457031 109.039062 4.484375 109.785156 C 4.511719 112.183594 4.484375 114.609375 4.457031 117.007812 C 4.457031 117.675781 4.015625 118.261719 3.335938 118.449219 C 3.023438 118.527344 2.710938 118.554688 2.398438 118.582031 C 1.589844 118.636719 1.117188 118.207031 1.144531 117.460938 C 1.195312 116.183594 1.300781 114.875 1.378906 113.570312 Z M 1.378906 113.570312 " fill-opacity="1" fill-rule="nonzero"/><path fill="#000000" d="M 2.34375 91.28125 C 2.398438 90.214844 2.476562 88.882812 2.554688 87.578125 C 2.605469 86.828125 3.386719 86.269531 4.199219 86.375 C 4.769531 86.429688 5.265625 86.855469 5.371094 87.335938 C 5.449219 87.761719 5.554688 88.1875 5.527344 88.644531 C 5.398438 91.148438 5.265625 93.65625 5.085938 96.160156 C 5.058594 96.5625 4.847656 96.988281 4.667969 97.359375 C 4.40625 97.867188 3.726562 98.027344 3.308594 97.707031 C 2.972656 97.441406 2.65625 97.148438 2.320312 96.855469 C 1.953125 96.5625 1.769531 96.1875 1.824219 95.707031 C 1.953125 94.320312 2.136719 92.933594 2.34375 91.28125 Z M 2.34375 91.28125 " fill-opacity="1" fill-rule="nonzero"/><path fill="#000000" d="M 1.222656 138.765625 C 1.824219 136.550781 1.847656 134.472656 1.875 132.390625 C 1.875 131.644531 2.007812 130.871094 2.136719 130.125 C 2.214844 129.644531 2.839844 129.246094 3.363281 129.21875 C 3.882812 129.191406 4.484375 129.566406 4.613281 130.074219 C 4.746094 130.605469 4.902344 131.140625 4.929688 131.671875 C 4.953125 133.75 4.902344 135.832031 4.875 137.9375 C 4.875 138.765625 4.484375 139.402344 3.882812 139.9375 C 3.625 140.148438 3.285156 140.308594 2.996094 140.125 C 2.449219 139.75 1.980469 139.324219 1.222656 138.765625 Z M 1.222656 138.765625 " fill-opacity="1" fill-rule="nonzero"/><path fill="#000000" d="M 3.152344 175.421875 C 3.152344 174.433594 3.128906 173.449219 3.179688 172.4375 C 3.207031 172.007812 3.363281 171.582031 3.492188 171.15625 C 3.648438 170.648438 4.300781 170.4375 4.847656 170.621094 C 5.5 170.863281 5.945312 171.34375 6.152344 171.984375 C 6.308594 172.488281 6.390625 173.050781 6.414062 173.609375 C 6.519531 175.476562 6.597656 177.339844 6.675781 179.207031 C 6.703125 180.007812 5.738281 180.832031 4.875 180.699219 C 4.667969 180.671875 4.457031 180.59375 4.25 180.515625 C 3.726562 180.300781 3.285156 179.953125 3.257812 179.339844 C 3.230469 178.007812 3.257812 176.703125 3.257812 175.367188 C 3.207031 175.421875 3.179688 175.421875 3.152344 175.421875 Z M 3.152344 175.421875 " fill-opacity="1" fill-rule="nonzero"/><path fill="#000000" d="M 3.152344 72.59375 C 3.207031 71.285156 3.257812 69.953125 3.363281 68.648438 C 3.386719 68.328125 3.492188 68.007812 3.625 67.714844 C 3.804688 67.261719 4.199219 67.101562 4.667969 67.074219 C 5.085938 67.046875 5.578125 67.367188 5.683594 67.742188 C 5.789062 68.167969 5.917969 68.59375 5.972656 69.019531 C 6.128906 70.992188 6.230469 72.964844 6.390625 74.914062 C 6.46875 75.953125 6.050781 76.832031 5.527344 77.683594 C 5.320312 78.03125 4.746094 78.191406 4.40625 77.980469 C 3.625 77.5 3.074219 76.9375 3.128906 75.898438 C 3.179688 74.804688 3.152344 73.714844 3.152344 72.621094 C 3.128906 72.59375 3.152344 72.59375 3.152344 72.59375 Z M 3.152344 72.59375 " fill-opacity="1" fill-rule="nonzero"/><path fill="#000000" d="M 2.578125 54.519531 C 2.578125 53.53125 2.578125 52.542969 2.578125 51.558594 C 2.578125 50.730469 3.074219 50.226562 3.988281 50.09375 C 4.769531 49.984375 5.578125 50.570312 5.632812 51.292969 C 5.738281 52.597656 5.816406 53.929688 5.945312 55.238281 C 5.996094 55.902344 6.152344 56.542969 6.207031 57.183594 C 6.257812 57.769531 5.917969 58.25 5.449219 58.542969 C 4.902344 58.890625 4.25 59.050781 3.597656 59.023438 C 3.363281 59.023438 2.894531 58.675781 2.894531 58.4375 C 2.816406 57.128906 2.761719 55.824219 2.683594 54.492188 C 2.65625 54.519531 2.605469 54.519531 2.578125 54.519531 Z M 2.578125 54.519531 " fill-opacity="1" fill-rule="nonzero"/><path fill="#000000" d="M 2.476562 36.070312 C 2.476562 35.1875 2.476562 34.308594 2.476562 33.429688 C 2.476562 33.109375 2.554688 32.789062 2.605469 32.46875 C 2.683594 31.988281 3.257812 31.484375 3.726562 31.484375 C 4.277344 31.457031 4.875 31.882812 4.953125 32.335938 C 5.058594 32.871094 5.136719 33.402344 5.1875 33.960938 C 5.320312 35.375 5.371094 36.816406 5.527344 38.226562 C 5.605469 39.027344 5.421875 39.746094 5.164062 40.46875 C 4.953125 41.027344 4.640625 41.453125 4.066406 41.535156 C 3.625 41.585938 2.761719 40.839844 2.65625 40.335938 C 2.578125 40.015625 2.5 39.695312 2.5 39.375 C 2.476562 38.28125 2.5 37.1875 2.5 36.070312 C 2.5 36.070312 2.476562 36.070312 2.476562 36.070312 Z M 2.476562 36.070312 " fill-opacity="1" fill-rule="nonzero"/><path fill="#000000" d="M 2.398438 3.996094 C 2.292969 3.144531 2.164062 2.289062 2.058594 1.4375 C 2.007812 0.984375 2.449219 0.371094 2.945312 0.210938 C 3.46875 0.0507812 3.988281 -0.00390625 4.433594 0.398438 C 4.589844 0.53125 4.71875 0.742188 4.769531 0.929688 C 5.164062 2.742188 5.214844 4.582031 4.980469 6.421875 C 4.953125 6.714844 4.71875 7.007812 4.535156 7.277344 C 4.277344 7.648438 3.859375 7.78125 3.414062 7.730469 C 2.917969 7.648438 2.398438 7.0625 2.398438 6.636719 C 2.398438 5.730469 2.398438 4.875 2.398438 3.996094 Z M 2.398438 3.996094 " fill-opacity="1" fill-rule="nonzero"/><path fill="#000000" d="M 2.085938 18.714844 C 2.164062 17.351562 2.1875 16.5 2.265625 15.621094 C 2.320312 14.953125 2.972656 14.527344 3.675781 14.632812 C 3.988281 14.6875 4.328125 14.792969 4.378906 15.195312 C 4.589844 16.898438 4.824219 18.632812 4.929688 20.367188 C 4.980469 21.164062 4.378906 21.726562 3.648438 22.046875 C 3.128906 22.257812 2.476562 21.992188 2.421875 21.457031 C 2.265625 20.390625 2.164062 19.300781 2.085938 18.714844 Z M 2.085938 18.714844 " fill-opacity="1" fill-rule="nonzero"/><g clip-path="url(#1018b79c58)"><g transform="matrix(1, 0, 0, 1, -0.000000000000001776, 218)"><g clip-path="url(#1d50d4a2bb)"><g clip-path="url(#2c67e6168b)"><path fill="#000000" d="M 6.390625 7.492188 C 6.390625 5.945312 6.390625 4.425781 6.390625 2.878906 C 6.390625 2.453125 6.363281 2 6.285156 1.570312 C 6.257812 1.386719 6.074219 1.144531 5.917969 1.066406 C 5.109375 0.664062 4.277344 0.585938 3.441406 0.933594 C 3.023438 1.117188 2.738281 1.464844 2.683594 1.917969 C 2.632812 2.453125 2.605469 3.039062 2.710938 3.570312 C 3.285156 6.585938 3.570312 9.648438 3.804688 12.714844 C 3.832031 13.035156 3.9375 13.355469 3.988281 13.675781 C 4.066406 13.996094 4.589844 14.421875 4.953125 14.449219 C 5.398438 14.476562 6.207031 14.050781 6.308594 13.703125 C 6.414062 13.277344 6.546875 12.847656 6.546875 12.421875 C 6.546875 10.769531 6.46875 9.144531 6.441406 7.492188 C 6.414062 7.492188 6.414062 7.492188 6.390625 7.492188 Z M 6.390625 7.492188 " fill-opacity="1" fill-rule="nonzero"/></g><path fill="#000000" d="M 1.378906 78.328125 C 1.457031 79.019531 1.484375 79.472656 1.5625 79.898438 C 1.640625 80.511719 2.398438 80.964844 3.050781 80.78125 C 3.570312 80.644531 4.039062 80.378906 4.355469 79.898438 C 4.535156 79.632812 4.71875 79.339844 4.769531 79.019531 C 5.242188 76.460938 5.917969 73.929688 5.894531 71.289062 C 5.894531 70.996094 5.761719 70.621094 5.578125 70.382812 C 5.164062 69.824219 3.832031 69.527344 3.230469 69.875 C 2.972656 70.007812 2.710938 70.25 2.527344 70.515625 C 2.34375 70.78125 2.242188 71.101562 2.214844 71.421875 C 1.875 73.820312 1.613281 76.195312 1.378906 78.328125 Z M 1.378906 78.328125 " fill-opacity="1" fill-rule="nonzero"/><g clip-path="url(#9edff82391)"><path fill="#000000" d="M 6.546875 32.550781 C 6.570312 31.777344 6.570312 30.257812 6.859375 28.710938 C 6.960938 28.179688 7.015625 27.621094 7.015625 27.085938 C 7.015625 26.632812 6.832031 26.234375 6.363281 26.019531 C 5.972656 25.859375 5.578125 25.671875 5.164062 25.566406 C 4.355469 25.351562 3.363281 26.097656 3.308594 26.953125 C 3.285156 27.164062 3.257812 27.40625 3.257812 27.621094 C 3.441406 30.820312 3.625 33.992188 3.804688 37.191406 C 3.804688 37.402344 3.9375 37.617188 3.988281 37.828125 C 4.09375 38.148438 4.640625 38.441406 5.058594 38.417969 C 5.738281 38.335938 6.390625 37.855469 6.492188 37.296875 C 6.570312 36.871094 6.675781 36.417969 6.675781 35.992188 C 6.675781 35.085938 6.625 34.203125 6.546875 32.550781 Z M 6.546875 32.550781 " fill-opacity="1" fill-rule="nonzero"/></g><path fill="#000000" d="M 1.378906 118.421875 C 1.457031 119.835938 1.535156 121.277344 1.640625 122.6875 C 1.691406 123.222656 1.796875 123.78125 1.902344 124.316406 C 1.980469 124.714844 2.398438 125.089844 2.789062 125.167969 C 3.285156 125.25 3.988281 124.902344 4.09375 124.449219 C 4.277344 123.703125 4.457031 122.957031 4.484375 122.210938 C 4.511719 119.808594 4.484375 117.382812 4.457031 114.984375 C 4.457031 114.316406 4.015625 113.730469 3.335938 113.546875 C 3.023438 113.464844 2.710938 113.4375 2.398438 113.410156 C 1.589844 113.359375 1.117188 113.785156 1.144531 114.53125 C 1.195312 115.8125 1.300781 117.117188 1.378906 118.421875 Z M 1.378906 118.421875 " fill-opacity="1" fill-rule="nonzero"/><path fill="#000000" d="M 2.34375 140.710938 C 2.398438 141.777344 2.476562 143.109375 2.554688 144.417969 C 2.605469 145.164062 3.386719 145.722656 4.199219 145.617188 C 4.769531 145.5625 5.265625 145.136719 5.371094 144.65625 C 5.449219 144.230469 5.554688 143.804688 5.527344 143.351562 C 5.398438 140.84375 5.265625 138.339844 5.085938 135.832031 C 5.058594 135.433594 4.847656 135.007812 4.667969 134.632812 C 4.40625 134.125 3.726562 133.964844 3.308594 134.285156 C 2.972656 134.554688 2.65625 134.847656 2.320312 135.140625 C 1.953125 135.433594 1.769531 135.804688 1.824219 136.285156 C 1.953125 137.671875 2.136719 139.058594 2.34375 140.710938 Z M 2.34375 140.710938 " fill-opacity="1" fill-rule="nonzero"/><path fill="#000000" d="M 1.222656 93.230469 C 1.824219 95.441406 1.847656 97.523438 1.875 99.601562 C 1.875 100.347656 2.007812 101.121094 2.136719 101.867188 C 2.214844 102.347656 2.839844 102.746094 3.363281 102.773438 C 3.882812 102.800781 4.484375 102.425781 4.613281 101.921875 C 4.746094 101.386719 4.902344 100.855469 4.929688 100.320312 C 4.953125 98.242188 4.902344 96.164062 4.875 94.054688 C 4.875 93.230469 4.484375 92.589844 3.882812 92.058594 C 3.625 91.84375 3.285156 91.683594 2.996094 91.871094 C 2.449219 92.242188 1.980469 92.671875 1.222656 93.230469 Z M 1.222656 93.230469 " fill-opacity="1" fill-rule="nonzero"/><path fill="#000000" d="M 3.152344 56.570312 C 3.152344 57.558594 3.128906 58.546875 3.179688 59.558594 C 3.207031 59.984375 3.363281 60.410156 3.492188 60.835938 C 3.648438 61.34375 4.300781 61.558594 4.847656 61.371094 C 5.5 61.132812 5.945312 60.652344 6.152344 60.011719 C 6.308594 59.503906 6.390625 58.945312 6.414062 58.386719 C 6.519531 56.519531 6.597656 54.652344 6.675781 52.785156 C 6.703125 51.988281 5.738281 51.160156 4.875 51.292969 C 4.667969 51.320312 4.457031 51.398438 4.25 51.480469 C 3.726562 51.691406 3.285156 52.039062 3.257812 52.652344 C 3.230469 53.984375 3.257812 55.292969 3.257812 56.625 C 3.207031 56.570312 3.179688 56.570312 3.152344 56.570312 Z M 3.152344 56.570312 " fill-opacity="1" fill-rule="nonzero"/><path fill="#000000" d="M 3.152344 159.402344 C 3.207031 160.707031 3.257812 162.039062 3.363281 163.347656 C 3.386719 163.667969 3.492188 163.984375 3.625 164.28125 C 3.804688 164.734375 4.199219 164.890625 4.667969 164.917969 C 5.085938 164.945312 5.578125 164.625 5.683594 164.253906 C 5.789062 163.824219 5.917969 163.398438 5.972656 162.972656 C 6.128906 161 6.230469 159.027344 6.390625 157.082031 C 6.46875 156.042969 6.050781 155.160156 5.527344 154.308594 C 5.320312 153.960938 4.746094 153.800781 4.40625 154.015625 C 3.625 154.496094 3.074219 155.054688 3.128906 156.09375 C 3.179688 157.1875 3.152344 158.28125 3.152344 159.375 C 3.128906 159.402344 3.152344 159.402344 3.152344 159.402344 Z M 3.152344 159.402344 " fill-opacity="1" fill-rule="nonzero"/><path fill="#000000" d="M 2.578125 177.476562 C 2.578125 178.460938 2.578125 179.449219 2.578125 180.433594 C 2.578125 181.261719 3.074219 181.769531 3.988281 181.902344 C 4.769531 182.007812 5.578125 181.421875 5.632812 180.703125 C 5.738281 179.394531 5.816406 178.0625 5.945312 176.757812 C 5.996094 176.089844 6.152344 175.449219 6.207031 174.808594 C 6.257812 174.222656 5.917969 173.742188 5.449219 173.449219 C 4.902344 173.105469 4.25 172.945312 3.597656 172.96875 C 3.363281 172.96875 2.894531 173.316406 2.894531 173.558594 C 2.816406 174.863281 2.761719 176.167969 2.683594 177.503906 C 2.65625 177.476562 2.605469 177.476562 2.578125 177.476562 Z M 2.578125 177.476562 " fill-opacity="1" fill-rule="nonzero"/><path fill="#000000" d="M 2.476562 195.925781 C 2.476562 196.804688 2.476562 197.683594 2.476562 198.5625 C 2.476562 198.882812 2.554688 199.203125 2.605469 199.523438 C 2.683594 200.003906 3.257812 200.511719 3.726562 200.511719 C 4.277344 200.539062 4.875 200.109375 4.953125 199.65625 C 5.058594 199.125 5.136719 198.589844 5.1875 198.03125 C 5.320312 196.617188 5.371094 195.179688 5.527344 193.765625 C 5.605469 192.964844 5.421875 192.246094 5.164062 191.527344 C 4.953125 190.964844 4.640625 190.539062 4.066406 190.460938 C 3.625 190.40625 2.761719 191.152344 2.65625 191.660156 C 2.578125 191.980469 2.5 192.300781 2.5 192.621094 C 2.476562 193.710938 2.5 194.804688 2.5 195.925781 C 2.5 195.925781 2.476562 195.925781 2.476562 195.925781 Z M 2.476562 195.925781 " fill-opacity="1" fill-rule="nonzero"/><g clip-path="url(#8a02aa60ed)"><path fill="#000000" d="M 2.398438 227.996094 C 2.292969 228.851562 2.164062 229.703125 2.058594 230.554688 C 2.007812 231.011719 2.449219 231.621094 2.945312 231.78125 C 3.46875 231.941406 3.988281 231.996094 4.433594 231.597656 C 4.589844 231.464844 4.71875 231.25 4.769531 231.0625 C 5.164062 229.25 5.214844 227.410156 4.980469 225.570312 C 4.953125 225.277344 4.71875 224.984375 4.535156 224.71875 C 4.277344 224.34375 3.859375 224.210938 3.414062 224.265625 C 2.917969 224.34375 2.398438 224.929688 2.398438 225.359375 C 2.398438 226.265625 2.398438 227.117188 2.398438 227.996094 Z M 2.398438 227.996094 " fill-opacity="1" fill-rule="nonzero"/></g><path fill="#000000" d="M 2.085938 213.28125 C 2.164062 214.640625 2.1875 215.492188 2.265625 216.375 C 2.320312 217.039062 2.972656 217.464844 3.675781 217.359375 C 3.988281 217.304688 4.328125 217.199219 4.378906 216.800781 C 4.589844 215.09375 4.824219 213.359375 4.929688 211.628906 C 4.980469 210.828125 4.378906 210.269531 3.648438 209.949219 C 3.128906 209.734375 2.476562 210 2.421875 210.535156 C 2.265625 211.601562 2.164062 212.695312 2.085938 213.28125 Z M 2.085938 213.28125 " fill-opacity="1" fill-rule="nonzero"/></g></g></g></g></g></svg>