<svg xmlns="http://www.w3.org/2000/svg" xmlns:xlink="http://www.w3.org/1999/xlink" width="1400" zoomAndPan="magnify" viewBox="0 0 1050 30.000001" height="40" preserveAspectRatio="xMidYMid meet" version="1.0"><defs><clipPath id="908a14b3b6"><path d="M 0.273438 1.566406 L 510.125 1.566406 L 510.125 15.160156 L 0.273438 15.160156 Z M 0.273438 1.566406 " clip-rule="nonzero"/></clipPath><clipPath id="8dc1fe326a"><path d="M 426 5 L 456 5 L 456 14.160156 L 426 14.160156 Z M 426 5 " clip-rule="nonzero"/></clipPath><clipPath id="2985d8649b"><path d="M 0.273438 3 L 18 3 L 18 10 L 0.273438 10 Z M 0.273438 3 " clip-rule="nonzero"/></clipPath><clipPath id="ad66646f28"><rect x="0" width="511" y="0" height="15"/></clipPath><clipPath id="e9809ae117"><path d="M 481.992188 1.566406 L 991.753906 1.566406 L 991.753906 15.160156 L 481.992188 15.160156 Z M 481.992188 1.566406 " clip-rule="nonzero"/></clipPath><clipPath id="5b3b0cb5db"><path d="M 55 5 L 85 5 L 85 14.160156 L 55 14.160156 Z M 55 5 " clip-rule="nonzero"/></clipPath><clipPath id="483504e610"><path d="M 493 3 L 510.722656 3 L 510.722656 10 L 493 10 Z M 493 3 " clip-rule="nonzero"/></clipPath><clipPath id="8256a43cdb"><rect x="0" width="511" y="0" height="15"/></clipPath><clipPath id="ab7402bc57"><rect x="0" width="992" y="0" height="16"/></clipPath></defs><g transform="matrix(1, 0, 0, 1, 29, 6)"><g clip-path="url(#ab7402bc57)"><g clip-path="url(#908a14b3b6)"><g transform="matrix(1, 0, 0, 1, 0, 1)"><g clip-path="url(#ad66646f28)"><path fill="#000000" d="M 494.910156 12.773438 C 498.316406 12.773438 501.664062 12.773438 505.074219 12.773438 C 506.011719 12.773438 507.011719 12.714844 507.949219 12.542969 C 508.363281 12.488281 508.890625 12.085938 509.066406 11.738281 C 509.949219 9.957031 510.125 8.117188 509.359375 6.277344 C 508.949219 5.359375 508.1875 4.726562 507.1875 4.613281 C 506.011719 4.496094 504.71875 4.441406 503.546875 4.667969 C 496.90625 5.933594 490.152344 6.566406 483.398438 7.082031 C 482.691406 7.140625 481.988281 7.371094 481.285156 7.484375 C 480.578125 7.660156 479.640625 8.808594 479.578125 9.613281 C 479.519531 10.589844 480.460938 12.371094 481.226562 12.601562 C 482.164062 12.832031 483.105469 13.117188 484.042969 13.117188 C 487.6875 13.117188 491.269531 12.945312 494.910156 12.890625 C 494.910156 12.832031 494.910156 12.832031 494.910156 12.773438 Z M 494.910156 12.773438 " fill-opacity="1" fill-rule="nonzero"/><path fill="#000000" d="M 338.84375 1.738281 C 337.316406 1.910156 336.316406 1.96875 335.378906 2.140625 C 334.027344 2.3125 333.027344 3.980469 333.4375 5.417969 C 333.730469 6.566406 334.320312 7.601562 335.378906 8.289062 C 335.964844 8.691406 336.609375 9.09375 337.316406 9.210938 C 342.953125 10.246094 348.535156 11.738281 354.347656 11.683594 C 354.996094 11.683594 355.816406 11.394531 356.347656 10.992188 C 357.582031 10.074219 358.226562 7.140625 357.460938 5.820312 C 357.167969 5.246094 356.640625 4.667969 356.054688 4.265625 C 355.464844 3.863281 354.761719 3.636719 354.054688 3.578125 C 348.769531 2.832031 343.542969 2.253906 338.84375 1.738281 Z M 338.84375 1.738281 " fill-opacity="1" fill-rule="nonzero"/><g clip-path="url(#8dc1fe326a)"><path fill="#000000" d="M 439.695312 13.117188 C 441.398438 13.175781 444.75 13.175781 448.15625 13.808594 C 449.328125 14.039062 450.5625 14.152344 451.738281 14.152344 C 452.738281 14.152344 453.617188 13.75 454.085938 12.714844 C 454.441406 11.855469 454.851562 10.992188 455.085938 10.074219 C 455.554688 8.289062 453.910156 6.105469 452.03125 5.992188 C 451.5625 5.933594 451.03125 5.875 450.5625 5.875 C 443.515625 6.277344 436.523438 6.679688 429.476562 7.082031 C 429.007812 7.082031 428.535156 7.371094 428.066406 7.484375 C 427.363281 7.714844 426.714844 8.921875 426.773438 9.84375 C 426.949219 11.335938 428.007812 12.773438 429.242188 13.003906 C 430.179688 13.175781 431.179688 13.40625 432.121094 13.40625 C 434.117188 13.40625 436.054688 13.292969 439.695312 13.117188 Z M 439.695312 13.117188 " fill-opacity="1" fill-rule="nonzero"/></g><path fill="#000000" d="M 250.5 1.738281 C 247.386719 1.910156 244.214844 2.082031 241.101562 2.3125 C 239.925781 2.429688 238.695312 2.65625 237.519531 2.886719 C 236.636719 3.058594 235.816406 3.980469 235.640625 4.84375 C 235.464844 5.933594 236.226562 7.484375 237.226562 7.714844 C 238.871094 8.117188 240.515625 8.519531 242.160156 8.578125 C 247.445312 8.636719 252.789062 8.578125 258.078125 8.519531 C 259.546875 8.519531 260.839844 7.542969 261.25 6.050781 C 261.425781 5.359375 261.484375 4.667969 261.542969 3.980469 C 261.660156 2.199219 260.71875 1.164062 259.074219 1.222656 C 256.257812 1.335938 253.378906 1.566406 250.5 1.738281 Z M 250.5 1.738281 " fill-opacity="1" fill-rule="nonzero"/><path fill="#000000" d="M 201.394531 3.863281 C 199.046875 3.980469 196.109375 4.152344 193.230469 4.324219 C 191.585938 4.441406 190.351562 6.164062 190.585938 7.945312 C 190.703125 9.210938 191.644531 10.300781 192.703125 10.53125 C 193.640625 10.703125 194.582031 10.933594 195.578125 10.878906 C 201.101562 10.589844 206.621094 10.300781 212.144531 9.898438 C 213.023438 9.84375 213.964844 9.382812 214.785156 8.980469 C 215.902344 8.40625 216.253906 6.910156 215.550781 5.992188 C 214.964844 5.246094 214.316406 4.554688 213.671875 3.808594 C 213.023438 3.003906 212.203125 2.601562 211.144531 2.714844 C 208.089844 3.003906 205.035156 3.40625 201.394531 3.863281 Z M 201.394531 3.863281 " fill-opacity="1" fill-rule="nonzero"/><path fill="#000000" d="M 306.007812 1.394531 C 301.132812 2.714844 296.550781 2.773438 291.96875 2.832031 C 290.324219 2.832031 288.621094 3.117188 286.976562 3.40625 C 285.917969 3.578125 285.039062 4.957031 284.980469 6.105469 C 284.921875 7.257812 285.742188 8.578125 286.859375 8.867188 C 288.035156 9.152344 289.207031 9.496094 290.382812 9.554688 C 294.964844 9.613281 299.546875 9.496094 304.1875 9.441406 C 306.007812 9.441406 307.417969 8.578125 308.59375 7.257812 C 309.0625 6.679688 309.414062 5.933594 309.003906 5.300781 C 308.179688 4.09375 307.242188 3.058594 306.007812 1.394531 Z M 306.007812 1.394531 " fill-opacity="1" fill-rule="nonzero"/><path fill="#000000" d="M 386.773438 5.648438 C 384.601562 5.648438 382.425781 5.589844 380.195312 5.703125 C 379.253906 5.761719 378.316406 6.105469 377.375 6.394531 C 376.257812 6.738281 375.789062 8.175781 376.199219 9.382812 C 376.730469 10.820312 377.785156 11.796875 379.195312 12.257812 C 380.3125 12.601562 381.546875 12.773438 382.777344 12.832031 C 386.890625 13.0625 391.003906 13.234375 395.113281 13.40625 C 396.875 13.464844 398.695312 11.335938 398.402344 9.441406 C 398.34375 8.980469 398.167969 8.519531 397.992188 8.0625 C 397.523438 6.910156 396.757812 5.933594 395.40625 5.875 C 392.472656 5.820312 389.59375 5.875 386.65625 5.875 C 386.773438 5.761719 386.773438 5.703125 386.773438 5.648438 Z M 386.773438 5.648438 " fill-opacity="1" fill-rule="nonzero"/><path fill="#000000" d="M 160.21875 5.648438 C 157.339844 5.761719 154.402344 5.875 151.527344 6.105469 C 150.820312 6.164062 150.117188 6.394531 149.46875 6.679688 C 148.472656 7.082031 148.117188 7.945312 148.058594 8.980469 C 148 9.898438 148.707031 10.992188 149.527344 11.222656 C 150.46875 11.453125 151.410156 11.738281 152.347656 11.855469 C 156.695312 12.199219 161.042969 12.429688 165.328125 12.773438 C 167.621094 12.945312 169.558594 12.027344 171.4375 10.878906 C 172.203125 10.417969 172.554688 9.152344 172.085938 8.40625 C 171.027344 6.679688 169.792969 5.472656 167.503906 5.589844 C 165.09375 5.703125 162.6875 5.648438 160.277344 5.648438 C 160.21875 5.589844 160.21875 5.648438 160.21875 5.648438 Z M 160.21875 5.648438 " fill-opacity="1" fill-rule="nonzero"/><path fill="#000000" d="M 120.394531 4.382812 C 118.222656 4.382812 116.046875 4.382812 113.875 4.382812 C 112.054688 4.382812 110.9375 5.472656 110.644531 7.484375 C 110.410156 9.210938 111.699219 10.992188 113.285156 11.105469 C 116.164062 11.335938 119.101562 11.507812 121.980469 11.796875 C 123.449219 11.910156 124.859375 12.257812 126.269531 12.371094 C 127.558594 12.488281 128.617188 11.738281 129.265625 10.703125 C 130.027344 9.496094 130.378906 8.0625 130.320312 6.625 C 130.320312 6.105469 129.558594 5.070312 129.027344 5.070312 C 126.152344 4.898438 123.273438 4.785156 120.335938 4.613281 C 120.394531 4.554688 120.394531 4.441406 120.394531 4.382812 Z M 120.394531 4.382812 " fill-opacity="1" fill-rule="nonzero"/><path fill="#000000" d="M 79.746094 4.152344 C 77.808594 4.152344 75.871094 4.152344 73.933594 4.152344 C 73.226562 4.152344 72.523438 4.324219 71.816406 4.441406 C 70.761719 4.613281 69.644531 5.875 69.644531 6.910156 C 69.585938 8.117188 70.523438 9.441406 71.523438 9.613281 C 72.699219 9.84375 73.875 10.015625 75.105469 10.128906 C 78.21875 10.417969 81.390625 10.53125 84.503906 10.878906 C 86.265625 11.050781 87.851562 10.648438 89.4375 10.074219 C 90.671875 9.613281 91.613281 8.921875 91.789062 7.660156 C 91.90625 6.679688 90.261719 4.785156 89.144531 4.554688 C 88.441406 4.382812 87.734375 4.210938 87.03125 4.210938 C 84.621094 4.152344 82.214844 4.210938 79.746094 4.210938 C 79.746094 4.210938 79.746094 4.152344 79.746094 4.152344 Z M 79.746094 4.152344 " fill-opacity="1" fill-rule="nonzero"/><g clip-path="url(#2985d8649b)"><path fill="#000000" d="M 9.085938 3.980469 C 7.207031 3.75 5.324219 3.460938 3.445312 3.234375 C 2.449219 3.117188 1.097656 4.09375 0.742188 5.1875 C 0.390625 6.335938 0.273438 7.484375 1.15625 8.464844 C 1.449219 8.808594 1.917969 9.09375 2.328125 9.210938 C 6.324219 10.074219 10.378906 10.1875 14.429688 9.671875 C 15.078125 9.613281 15.722656 9.09375 16.308594 8.691406 C 17.132812 8.117188 17.425781 7.199219 17.308594 6.222656 C 17.132812 5.128906 15.839844 3.980469 14.898438 3.980469 C 12.902344 3.980469 11.023438 3.980469 9.085938 3.980469 Z M 9.085938 3.980469 " fill-opacity="1" fill-rule="nonzero"/></g><path fill="#000000" d="M 41.507812 3.289062 C 38.511719 3.460938 36.632812 3.519531 34.695312 3.691406 C 33.226562 3.808594 32.285156 5.246094 32.523438 6.796875 C 32.640625 7.484375 32.875 8.234375 33.753906 8.347656 C 37.515625 8.808594 41.332031 9.324219 45.148438 9.554688 C 46.914062 9.671875 48.144531 8.347656 48.851562 6.738281 C 49.320312 5.589844 48.734375 4.152344 47.558594 4.039062 C 45.210938 3.691406 42.800781 3.460938 41.507812 3.289062 Z M 41.507812 3.289062 " fill-opacity="1" fill-rule="nonzero"/></g></g></g><g clip-path="url(#e9809ae117)"><g transform="matrix(1, 0, 0, 1, 481, 1)"><g clip-path="url(#8256a43cdb)"><path fill="#000000" d="M 16.085938 12.773438 C 12.679688 12.773438 9.332031 12.773438 5.925781 12.773438 C 4.984375 12.773438 3.988281 12.714844 3.046875 12.542969 C 2.636719 12.488281 2.105469 12.085938 1.929688 11.738281 C 1.050781 9.957031 0.875 8.117188 1.636719 6.277344 C 2.046875 5.359375 2.8125 4.726562 3.808594 4.613281 C 4.984375 4.496094 6.277344 4.441406 7.453125 4.667969 C 14.089844 5.933594 20.84375 6.566406 27.597656 7.082031 C 28.304688 7.140625 29.007812 7.371094 29.714844 7.484375 C 30.417969 7.660156 31.359375 8.808594 31.417969 9.613281 C 31.476562 10.589844 30.535156 12.371094 29.773438 12.601562 C 28.832031 12.832031 27.894531 13.117188 26.953125 13.117188 C 23.3125 13.117188 19.730469 12.945312 16.085938 12.890625 C 16.085938 12.832031 16.085938 12.832031 16.085938 12.773438 Z M 16.085938 12.773438 " fill-opacity="1" fill-rule="nonzero"/><path fill="#000000" d="M 172.15625 1.738281 C 173.683594 1.910156 174.679688 1.96875 175.621094 2.140625 C 176.972656 2.3125 177.96875 3.980469 177.558594 5.417969 C 177.265625 6.566406 176.675781 7.601562 175.621094 8.289062 C 175.03125 8.691406 174.386719 9.09375 173.683594 9.210938 C 168.042969 10.246094 162.464844 11.738281 156.648438 11.683594 C 156 11.683594 155.179688 11.394531 154.652344 10.992188 C 153.417969 10.074219 152.769531 7.140625 153.535156 5.820312 C 153.828125 5.246094 154.355469 4.667969 154.945312 4.265625 C 155.53125 3.863281 156.238281 3.636719 156.941406 3.578125 C 162.226562 2.832031 167.457031 2.253906 172.15625 1.738281 Z M 172.15625 1.738281 " fill-opacity="1" fill-rule="nonzero"/><g clip-path="url(#5b3b0cb5db)"><path fill="#000000" d="M 71.300781 13.117188 C 69.597656 13.175781 66.25 13.175781 62.84375 13.808594 C 61.667969 14.039062 60.433594 14.152344 59.257812 14.152344 C 58.261719 14.152344 57.378906 13.75 56.910156 12.714844 C 56.558594 11.855469 56.144531 10.992188 55.910156 10.074219 C 55.441406 8.289062 57.085938 6.105469 58.964844 5.992188 C 59.4375 5.933594 59.964844 5.875 60.433594 5.875 C 67.484375 6.277344 74.472656 6.679688 81.519531 7.082031 C 81.992188 7.082031 82.460938 7.371094 82.929688 7.484375 C 83.636719 7.714844 84.28125 8.921875 84.222656 9.84375 C 84.046875 11.335938 82.988281 12.773438 81.757812 13.003906 C 80.816406 13.175781 79.816406 13.40625 78.878906 13.40625 C 76.882812 13.40625 74.941406 13.292969 71.300781 13.117188 Z M 71.300781 13.117188 " fill-opacity="1" fill-rule="nonzero"/></g><path fill="#000000" d="M 260.496094 1.738281 C 263.609375 1.910156 266.78125 2.082031 269.894531 2.3125 C 271.070312 2.429688 272.304688 2.65625 273.480469 2.886719 C 274.359375 3.058594 275.183594 3.980469 275.359375 4.84375 C 275.535156 5.933594 274.769531 7.484375 273.773438 7.714844 C 272.128906 8.117188 270.484375 8.519531 268.839844 8.578125 C 263.550781 8.636719 258.207031 8.578125 252.921875 8.519531 C 251.453125 8.519531 250.160156 7.542969 249.75 6.050781 C 249.570312 5.359375 249.511719 4.667969 249.453125 3.980469 C 249.335938 2.199219 250.277344 1.164062 251.921875 1.222656 C 254.742188 1.335938 257.621094 1.566406 260.496094 1.738281 Z M 260.496094 1.738281 " fill-opacity="1" fill-rule="nonzero"/><path fill="#000000" d="M 309.601562 3.863281 C 311.953125 3.980469 314.890625 4.152344 317.765625 4.324219 C 319.414062 4.441406 320.644531 6.164062 320.410156 7.945312 C 320.292969 9.210938 319.351562 10.300781 318.296875 10.53125 C 317.355469 10.703125 316.417969 10.933594 315.417969 10.878906 C 309.898438 10.589844 304.375 10.300781 298.855469 9.898438 C 297.972656 9.84375 297.03125 9.382812 296.210938 8.980469 C 295.09375 8.40625 294.742188 6.910156 295.445312 5.992188 C 296.035156 5.246094 296.679688 4.554688 297.328125 3.808594 C 297.972656 3.003906 298.796875 2.601562 299.851562 2.714844 C 302.90625 3.003906 305.960938 3.40625 309.601562 3.863281 Z M 309.601562 3.863281 " fill-opacity="1" fill-rule="nonzero"/><path fill="#000000" d="M 204.988281 1.394531 C 209.863281 2.714844 214.445312 2.773438 219.027344 2.832031 C 220.671875 2.832031 222.375 3.117188 224.019531 3.40625 C 225.078125 3.578125 225.960938 4.957031 226.019531 6.105469 C 226.078125 7.257812 225.253906 8.578125 224.136719 8.867188 C 222.964844 9.152344 221.789062 9.496094 220.613281 9.554688 C 216.03125 9.613281 211.449219 9.496094 206.8125 9.441406 C 204.988281 9.441406 203.578125 8.578125 202.40625 7.257812 C 201.933594 6.679688 201.582031 5.933594 201.992188 5.300781 C 202.816406 4.09375 203.757812 3.058594 204.988281 1.394531 Z M 204.988281 1.394531 " fill-opacity="1" fill-rule="nonzero"/><path fill="#000000" d="M 124.222656 5.648438 C 126.398438 5.648438 128.570312 5.589844 130.804688 5.703125 C 131.742188 5.761719 132.683594 6.105469 133.621094 6.394531 C 134.738281 6.738281 135.207031 8.175781 134.796875 9.382812 C 134.269531 10.820312 133.210938 11.796875 131.800781 12.257812 C 130.683594 12.601562 129.453125 12.773438 128.21875 12.832031 C 124.105469 13.0625 119.996094 13.234375 115.882812 13.40625 C 114.121094 13.464844 112.300781 11.335938 112.59375 9.441406 C 112.652344 8.980469 112.828125 8.519531 113.003906 8.0625 C 113.476562 6.910156 114.238281 5.933594 115.589844 5.875 C 118.527344 5.820312 121.40625 5.875 124.34375 5.875 C 124.222656 5.761719 124.222656 5.703125 124.222656 5.648438 Z M 124.222656 5.648438 " fill-opacity="1" fill-rule="nonzero"/><path fill="#000000" d="M 350.777344 5.648438 C 353.65625 5.761719 356.59375 5.875 359.472656 6.105469 C 360.175781 6.164062 360.882812 6.394531 361.527344 6.679688 C 362.527344 7.082031 362.878906 7.945312 362.9375 8.980469 C 362.996094 9.898438 362.292969 10.992188 361.46875 11.222656 C 360.527344 11.453125 359.589844 11.738281 358.648438 11.855469 C 354.304688 12.199219 349.957031 12.429688 345.667969 12.773438 C 343.378906 12.945312 341.4375 12.027344 339.558594 10.878906 C 338.796875 10.417969 338.445312 9.152344 338.914062 8.40625 C 339.96875 6.679688 341.203125 5.472656 343.496094 5.589844 C 345.902344 5.703125 348.3125 5.648438 350.71875 5.648438 C 350.777344 5.589844 350.777344 5.648438 350.777344 5.648438 Z M 350.777344 5.648438 " fill-opacity="1" fill-rule="nonzero"/><path fill="#000000" d="M 390.601562 4.382812 C 392.777344 4.382812 394.949219 4.382812 397.125 4.382812 C 398.945312 4.382812 400.058594 5.472656 400.355469 7.484375 C 400.589844 9.210938 399.296875 10.992188 397.710938 11.105469 C 394.832031 11.335938 391.894531 11.507812 389.015625 11.796875 C 387.546875 11.910156 386.140625 12.257812 384.730469 12.371094 C 383.4375 12.488281 382.378906 11.738281 381.734375 10.703125 C 380.96875 9.496094 380.617188 8.0625 380.675781 6.625 C 380.675781 6.105469 381.441406 5.070312 381.96875 5.070312 C 384.847656 4.898438 387.726562 4.785156 390.660156 4.613281 C 390.601562 4.554688 390.601562 4.441406 390.601562 4.382812 Z M 390.601562 4.382812 " fill-opacity="1" fill-rule="nonzero"/><path fill="#000000" d="M 431.25 4.152344 C 433.1875 4.152344 435.125 4.152344 437.066406 4.152344 C 437.769531 4.152344 438.476562 4.324219 439.179688 4.441406 C 440.238281 4.613281 441.351562 5.875 441.351562 6.910156 C 441.410156 8.117188 440.472656 9.441406 439.472656 9.613281 C 438.296875 9.84375 437.125 10.015625 435.890625 10.128906 C 432.777344 10.417969 429.605469 10.53125 426.492188 10.878906 C 424.730469 11.050781 423.144531 10.648438 421.558594 10.074219 C 420.324219 9.613281 419.386719 8.921875 419.207031 7.660156 C 419.089844 6.679688 420.734375 4.785156 421.851562 4.554688 C 422.558594 4.382812 423.261719 4.210938 423.964844 4.210938 C 426.375 4.152344 428.78125 4.210938 431.25 4.210938 C 431.25 4.210938 431.25 4.152344 431.25 4.152344 Z M 431.25 4.152344 " fill-opacity="1" fill-rule="nonzero"/><g clip-path="url(#483504e610)"><path fill="#000000" d="M 501.914062 3.980469 C 503.792969 3.75 505.671875 3.460938 507.550781 3.234375 C 508.550781 3.117188 509.902344 4.09375 510.253906 5.1875 C 510.605469 6.335938 510.722656 7.484375 509.84375 8.464844 C 509.546875 8.808594 509.078125 9.09375 508.667969 9.210938 C 504.671875 10.074219 500.621094 10.1875 496.566406 9.671875 C 495.921875 9.613281 495.273438 9.09375 494.6875 8.691406 C 493.867188 8.117188 493.570312 7.199219 493.6875 6.222656 C 493.867188 5.128906 495.15625 3.980469 496.097656 3.980469 C 498.09375 3.980469 499.972656 3.980469 501.914062 3.980469 Z M 501.914062 3.980469 " fill-opacity="1" fill-rule="nonzero"/></g><path fill="#000000" d="M 469.488281 3.289062 C 472.484375 3.460938 474.363281 3.519531 476.300781 3.691406 C 477.769531 3.808594 478.710938 5.246094 478.476562 6.796875 C 478.359375 7.484375 478.125 8.234375 477.242188 8.347656 C 473.484375 8.808594 469.664062 9.324219 465.847656 9.554688 C 464.085938 9.671875 462.851562 8.347656 462.148438 6.738281 C 461.675781 5.589844 462.265625 4.152344 463.4375 4.039062 C 465.789062 3.691406 468.195312 3.460938 469.488281 3.289062 Z M 469.488281 3.289062 " fill-opacity="1" fill-rule="nonzero"/></g></g></g></g></g></svg>