<svg xmlns="http://www.w3.org/2000/svg" xmlns:xlink="http://www.w3.org/1999/xlink" width="40" zoomAndPan="magnify" viewBox="0 0 30 449.999984" height="600" preserveAspectRatio="xMidYMid meet" version="1.0"><defs><clipPath id="e95876f0cc"><path d="M 12.148438 0 L 18.148438 0 L 18.148438 231 L 12.148438 231 Z M 12.148438 0 " clip-rule="nonzero"/></clipPath><clipPath id="e1f76f1c39"><path d="M 0.148438 217 L 5 217 L 5 231 L 0.148438 231 Z M 0.148438 217 " clip-rule="nonzero"/></clipPath><clipPath id="8185a337a2"><path d="M 1 150 L 5.84375 150 L 5.84375 162 L 1 162 Z M 1 150 " clip-rule="nonzero"/></clipPath><clipPath id="f069d7b422"><path d="M 0.148438 193 L 4 193 L 4 207 L 0.148438 207 Z M 0.148438 193 " clip-rule="nonzero"/></clipPath><clipPath id="9d2153f2ec"><path d="M 2 106 L 5.84375 106 L 5.84375 119 L 2 119 Z M 2 106 " clip-rule="nonzero"/></clipPath><clipPath id="ebf0294cbb"><path d="M 1 86 L 5.84375 86 L 5.84375 98 L 1 98 Z M 1 86 " clip-rule="nonzero"/></clipPath><clipPath id="9a2fe19557"><path d="M 2 128 L 5.84375 128 L 5.84375 140 L 2 140 Z M 2 128 " clip-rule="nonzero"/></clipPath><clipPath id="2aff3e90e6"><path d="M 0.148438 170 L 4 170 L 4 181 L 0.148438 181 Z M 0.148438 170 " clip-rule="nonzero"/></clipPath><clipPath id="34dd148613"><path d="M 0.148438 66 L 4 66 L 4 78 L 0.148438 78 Z M 0.148438 66 " clip-rule="nonzero"/></clipPath><clipPath id="c19369df26"><path d="M 0.148438 49 L 5 49 L 5 59 L 0.148438 59 Z M 0.148438 49 " clip-rule="nonzero"/></clipPath><clipPath id="9d5e16120e"><rect x="0" width="7" y="0" height="231"/></clipPath><clipPath id="e74f20f115"><path d="M 12.148438 218.644531 L 18.148438 218.644531 L 18.148438 449.640625 L 12.148438 449.640625 Z M 12.148438 218.644531 " clip-rule="nonzero"/></clipPath><clipPath id="62afb7b85f"><path d="M 0.148438 1 L 5 1 L 5 15 L 0.148438 15 Z M 0.148438 1 " clip-rule="nonzero"/></clipPath><clipPath id="fc59adc3ad"><path d="M 1 70 L 5.84375 70 L 5.84375 82 L 1 82 Z M 1 70 " clip-rule="nonzero"/></clipPath><clipPath id="5263e5ec88"><path d="M 0.148438 25 L 4 25 L 4 39 L 0.148438 39 Z M 0.148438 25 " clip-rule="nonzero"/></clipPath><clipPath id="0a04dcc8f0"><path d="M 2 113 L 5.84375 113 L 5.84375 126 L 2 126 Z M 2 113 " clip-rule="nonzero"/></clipPath><clipPath id="57e2a9c6fc"><path d="M 1 134 L 5.84375 134 L 5.84375 146 L 1 146 Z M 1 134 " clip-rule="nonzero"/></clipPath><clipPath id="f0f338b713"><path d="M 2 92 L 5.84375 92 L 5.84375 103 L 2 103 Z M 2 92 " clip-rule="nonzero"/></clipPath><clipPath id="fd031e74bd"><path d="M 0.148438 51 L 4 51 L 4 62 L 0.148438 62 Z M 0.148438 51 " clip-rule="nonzero"/></clipPath><clipPath id="1924cc9638"><path d="M 0.148438 154 L 4 154 L 4 166 L 0.148438 166 Z M 0.148438 154 " clip-rule="nonzero"/></clipPath><clipPath id="c9e57cd5da"><path d="M 0.148438 173 L 5 173 L 5 182 L 0.148438 182 Z M 0.148438 173 " clip-rule="nonzero"/></clipPath><clipPath id="7beb4836d9"><path d="M 1 224 L 5 224 L 5 231.640625 L 1 231.640625 Z M 1 224 " clip-rule="nonzero"/></clipPath><clipPath id="6295b39c24"><rect x="0" width="7" y="0" height="232"/></clipPath></defs><g clip-path="url(#e95876f0cc)"><g transform="matrix(1, 0, 0, 1, 12, 0)"><g clip-path="url(#9d5e16120e)"><g clip-path="url(#e1f76f1c39)"><path fill="#000000" d="M 0.585938 224.109375 C 0.585938 225.652344 0.585938 227.167969 0.585938 228.710938 C 0.585938 229.136719 0.613281 229.589844 0.6875 230.015625 C 0.714844 230.203125 0.890625 230.441406 1.042969 230.523438 C 1.828125 230.921875 2.640625 231 3.453125 230.65625 C 3.859375 230.46875 4.136719 230.121094 4.1875 229.671875 C 4.238281 229.136719 4.265625 228.550781 4.164062 228.019531 C 3.605469 225.011719 3.328125 221.953125 3.097656 218.890625 C 3.074219 218.574219 2.972656 218.253906 2.921875 217.933594 C 2.84375 217.613281 2.335938 217.1875 1.980469 217.160156 C 1.550781 217.136719 0.765625 217.5625 0.664062 217.90625 C 0.5625 218.332031 0.433594 218.757812 0.433594 219.183594 C 0.433594 220.835938 0.511719 222.457031 0.535156 224.109375 C 0.5625 224.109375 0.5625 224.109375 0.585938 224.109375 Z M 0.585938 224.109375 " fill-opacity="1" fill-rule="nonzero"/></g><g clip-path="url(#8185a337a2)"><path fill="#000000" d="M 5.457031 153.398438 C 5.382812 152.707031 5.355469 152.253906 5.28125 151.828125 C 5.203125 151.214844 4.46875 150.761719 3.832031 150.949219 C 3.328125 151.082031 2.871094 151.347656 2.566406 151.828125 C 2.386719 152.09375 2.210938 152.386719 2.160156 152.707031 C 1.703125 155.261719 1.042969 157.789062 1.070312 160.421875 C 1.070312 160.714844 1.195312 161.089844 1.375 161.328125 C 1.777344 161.886719 3.074219 162.179688 3.65625 161.832031 C 3.910156 161.699219 4.164062 161.460938 4.339844 161.195312 C 4.519531 160.929688 4.621094 160.609375 4.644531 160.289062 C 4.976562 157.894531 5.230469 155.527344 5.457031 153.398438 Z M 5.457031 153.398438 " fill-opacity="1" fill-rule="nonzero"/></g><g clip-path="url(#f069d7b422)"><path fill="#000000" d="M 0.433594 199.09375 C 0.410156 199.863281 0.410156 201.378906 0.128906 202.925781 C 0.0273438 203.457031 -0.0234375 204.015625 -0.0234375 204.546875 C -0.0234375 205 0.15625 205.398438 0.613281 205.613281 C 0.992188 205.773438 1.375 205.957031 1.777344 206.0625 C 2.566406 206.277344 3.527344 205.53125 3.578125 204.679688 C 3.605469 204.46875 3.628906 204.226562 3.628906 204.015625 C 3.453125 200.820312 3.277344 197.65625 3.097656 194.460938 C 3.097656 194.25 2.972656 194.035156 2.921875 193.824219 C 2.820312 193.503906 2.285156 193.210938 1.878906 193.238281 C 1.222656 193.316406 0.585938 193.796875 0.484375 194.355469 C 0.410156 194.78125 0.308594 195.234375 0.308594 195.660156 C 0.308594 196.5625 0.359375 197.441406 0.433594 199.09375 Z M 0.433594 199.09375 " fill-opacity="1" fill-rule="nonzero"/></g><g clip-path="url(#9d2153f2ec)"><path fill="#000000" d="M 5.457031 113.371094 C 5.382812 111.960938 5.304688 110.523438 5.203125 109.113281 C 5.152344 108.582031 5.050781 108.023438 4.949219 107.492188 C 4.875 107.089844 4.46875 106.71875 4.085938 106.636719 C 3.605469 106.558594 2.921875 106.90625 2.820312 107.355469 C 2.640625 108.101562 2.464844 108.847656 2.4375 109.59375 C 2.414062 111.988281 2.4375 114.410156 2.464844 116.804688 C 2.464844 117.46875 2.894531 118.054688 3.554688 118.242188 C 3.859375 118.320312 4.164062 118.347656 4.46875 118.375 C 5.253906 118.429688 5.710938 118.003906 5.683594 117.257812 C 5.632812 115.980469 5.53125 114.675781 5.457031 113.371094 Z M 5.457031 113.371094 " fill-opacity="1" fill-rule="nonzero"/></g><g clip-path="url(#ebf0294cbb)"><path fill="#000000" d="M 4.519531 91.125 C 4.46875 90.058594 4.390625 88.726562 4.316406 87.425781 C 4.265625 86.679688 3.503906 86.121094 2.71875 86.226562 C 2.160156 86.28125 1.675781 86.707031 1.574219 87.183594 C 1.5 87.609375 1.398438 88.035156 1.425781 88.488281 C 1.550781 90.992188 1.675781 93.492188 1.855469 95.992188 C 1.878906 96.394531 2.082031 96.820312 2.261719 97.191406 C 2.515625 97.695312 3.175781 97.855469 3.578125 97.535156 C 3.910156 97.269531 4.214844 96.976562 4.542969 96.683594 C 4.898438 96.394531 5.078125 96.019531 5.027344 95.542969 C 4.898438 94.15625 4.722656 92.773438 4.519531 91.125 Z M 4.519531 91.125 " fill-opacity="1" fill-rule="nonzero"/></g><g clip-path="url(#9a2fe19557)"><path fill="#000000" d="M 5.609375 138.519531 C 5.027344 136.3125 5 134.234375 4.976562 132.160156 C 4.976562 131.414062 4.847656 130.644531 4.722656 129.898438 C 4.644531 129.417969 4.035156 129.019531 3.527344 128.992188 C 3.023438 128.96875 2.4375 129.339844 2.3125 129.84375 C 2.183594 130.378906 2.03125 130.910156 2.007812 131.441406 C 1.980469 133.519531 2.03125 135.59375 2.058594 137.695312 C 2.058594 138.519531 2.4375 139.160156 3.023438 139.691406 C 3.277344 139.90625 3.605469 140.066406 3.882812 139.878906 C 4.417969 139.503906 4.875 139.078125 5.609375 138.519531 Z M 5.609375 138.519531 " fill-opacity="1" fill-rule="nonzero"/></g><g clip-path="url(#2aff3e90e6)"><path fill="#000000" d="M 3.730469 175.113281 C 3.730469 174.128906 3.757812 173.144531 3.707031 172.132812 C 3.679688 171.707031 3.527344 171.28125 3.402344 170.855469 C 3.25 170.351562 2.617188 170.136719 2.082031 170.324219 C 1.449219 170.5625 1.019531 171.042969 0.816406 171.679688 C 0.664062 172.1875 0.585938 172.746094 0.5625 173.304688 C 0.460938 175.167969 0.382812 177.03125 0.308594 178.894531 C 0.28125 179.691406 1.222656 180.515625 2.058594 180.382812 C 2.261719 180.355469 2.464844 180.277344 2.667969 180.195312 C 3.175781 179.984375 3.605469 179.636719 3.628906 179.027344 C 3.65625 177.695312 3.628906 176.390625 3.628906 175.058594 C 3.679688 175.113281 3.707031 175.113281 3.730469 175.113281 Z M 3.730469 175.113281 " fill-opacity="1" fill-rule="nonzero"/></g><g clip-path="url(#34dd148613)"><path fill="#000000" d="M 3.730469 72.46875 C 3.679688 71.164062 3.628906 69.832031 3.527344 68.527344 C 3.503906 68.210938 3.402344 67.890625 3.277344 67.597656 C 3.097656 67.144531 2.71875 66.984375 2.261719 66.957031 C 1.855469 66.933594 1.375 67.25 1.273438 67.625 C 1.171875 68.050781 1.042969 68.476562 0.992188 68.902344 C 0.839844 70.871094 0.738281 72.839844 0.585938 74.78125 C 0.511719 75.820312 0.917969 76.699219 1.425781 77.550781 C 1.625 77.898438 2.183594 78.054688 2.515625 77.84375 C 3.277344 77.363281 3.808594 76.804688 3.757812 75.769531 C 3.707031 74.675781 3.730469 73.585938 3.730469 72.496094 C 3.757812 72.46875 3.730469 72.46875 3.730469 72.46875 Z M 3.730469 72.46875 " fill-opacity="1" fill-rule="nonzero"/></g><g clip-path="url(#c19369df26)"><path fill="#000000" d="M 4.289062 54.425781 C 4.289062 53.441406 4.289062 52.453125 4.289062 51.46875 C 4.289062 50.644531 3.808594 50.140625 2.921875 50.007812 C 2.160156 49.898438 1.375 50.484375 1.324219 51.203125 C 1.222656 52.507812 1.144531 53.839844 1.019531 55.144531 C 0.96875 55.808594 0.816406 56.445312 0.765625 57.085938 C 0.714844 57.671875 1.042969 58.148438 1.5 58.441406 C 2.03125 58.789062 2.667969 58.949219 3.300781 58.921875 C 3.527344 58.921875 3.984375 58.574219 3.984375 58.335938 C 4.0625 57.03125 4.113281 55.726562 4.1875 54.398438 C 4.214844 54.425781 4.265625 54.425781 4.289062 54.425781 Z M 4.289062 54.425781 " fill-opacity="1" fill-rule="nonzero"/></g><path fill="#000000" d="M 4.390625 36.007812 C 4.390625 35.128906 4.390625 34.25 4.390625 33.375 C 4.390625 33.054688 4.316406 32.734375 4.265625 32.414062 C 4.1875 31.9375 3.628906 31.429688 3.175781 31.429688 C 2.640625 31.402344 2.058594 31.828125 1.980469 32.28125 C 1.878906 32.816406 1.804688 33.347656 1.753906 33.90625 C 1.625 35.316406 1.574219 36.753906 1.425781 38.164062 C 1.347656 38.960938 1.523438 39.679688 1.777344 40.398438 C 1.980469 40.957031 2.285156 41.382812 2.84375 41.464844 C 3.277344 41.515625 4.113281 40.773438 4.214844 40.265625 C 4.289062 39.945312 4.367188 39.628906 4.367188 39.308594 C 4.390625 38.21875 4.367188 37.125 4.367188 36.007812 C 4.367188 36.007812 4.390625 36.007812 4.390625 36.007812 Z M 4.390625 36.007812 " fill-opacity="1" fill-rule="nonzero"/><path fill="#000000" d="M 4.46875 3.992188 C 4.570312 3.140625 4.695312 2.289062 4.796875 1.4375 C 4.847656 0.984375 4.417969 0.375 3.933594 0.214844 C 3.429688 0.0546875 2.921875 0 2.488281 0.398438 C 2.335938 0.53125 2.210938 0.746094 2.160156 0.933594 C 1.777344 2.742188 1.726562 4.578125 1.957031 6.414062 C 1.980469 6.707031 2.210938 7 2.386719 7.265625 C 2.640625 7.636719 3.046875 7.773438 3.476562 7.71875 C 3.960938 7.636719 4.46875 7.054688 4.46875 6.628906 C 4.46875 5.722656 4.46875 4.871094 4.46875 3.992188 Z M 4.46875 3.992188 " fill-opacity="1" fill-rule="nonzero"/><path fill="#000000" d="M 4.773438 18.683594 C 4.695312 17.324219 4.671875 16.472656 4.59375 15.597656 C 4.542969 14.929688 3.910156 14.503906 3.226562 14.609375 C 2.921875 14.664062 2.589844 14.769531 2.539062 15.171875 C 2.335938 16.875 2.109375 18.601562 2.007812 20.332031 C 1.957031 21.132812 2.539062 21.691406 3.25 22.007812 C 3.757812 22.222656 4.390625 21.957031 4.441406 21.425781 C 4.59375 20.359375 4.695312 19.269531 4.773438 18.683594 Z M 4.773438 18.683594 " fill-opacity="1" fill-rule="nonzero"/></g></g></g><g clip-path="url(#e74f20f115)"><g transform="matrix(1, 0, 0, 1, 12, 218)"><g clip-path="url(#6295b39c24)"><g clip-path="url(#62afb7b85f)"><path fill="#000000" d="M 0.585938 7.886719 C 0.585938 6.34375 0.585938 4.828125 0.585938 3.28125 C 0.585938 2.855469 0.613281 2.40625 0.6875 1.980469 C 0.714844 1.792969 0.890625 1.554688 1.042969 1.472656 C 1.828125 1.074219 2.640625 0.992188 3.453125 1.339844 C 3.859375 1.527344 4.136719 1.871094 4.1875 2.324219 C 4.238281 2.855469 4.265625 3.441406 4.164062 3.976562 C 3.605469 6.980469 3.328125 10.042969 3.097656 13.101562 C 3.074219 13.421875 2.972656 13.742188 2.921875 14.0625 C 2.84375 14.378906 2.335938 14.804688 1.980469 14.832031 C 1.550781 14.859375 0.765625 14.433594 0.664062 14.085938 C 0.5625 13.660156 0.433594 13.234375 0.433594 12.808594 C 0.433594 11.160156 0.511719 9.535156 0.535156 7.886719 C 0.5625 7.886719 0.5625 7.886719 0.585938 7.886719 Z M 0.585938 7.886719 " fill-opacity="1" fill-rule="nonzero"/></g><g clip-path="url(#fc59adc3ad)"><path fill="#000000" d="M 5.457031 78.597656 C 5.382812 79.289062 5.355469 79.742188 5.28125 80.167969 C 5.203125 80.78125 4.46875 81.230469 3.832031 81.046875 C 3.328125 80.914062 2.871094 80.648438 2.566406 80.167969 C 2.386719 79.902344 2.210938 79.609375 2.160156 79.289062 C 1.703125 76.734375 1.042969 74.207031 1.070312 71.570312 C 1.070312 71.277344 1.195312 70.90625 1.375 70.667969 C 1.777344 70.109375 3.074219 69.816406 3.65625 70.160156 C 3.910156 70.292969 4.164062 70.535156 4.339844 70.800781 C 4.519531 71.066406 4.621094 71.386719 4.644531 71.703125 C 4.976562 74.101562 5.230469 76.46875 5.457031 78.597656 Z M 5.457031 78.597656 " fill-opacity="1" fill-rule="nonzero"/></g><g clip-path="url(#5263e5ec88)"><path fill="#000000" d="M 0.433594 32.902344 C 0.410156 32.132812 0.410156 30.613281 0.128906 29.070312 C 0.0273438 28.539062 -0.0234375 27.980469 -0.0234375 27.449219 C -0.0234375 26.996094 0.15625 26.597656 0.613281 26.382812 C 0.992188 26.222656 1.375 26.035156 1.777344 25.929688 C 2.566406 25.71875 3.527344 26.460938 3.578125 27.3125 C 3.605469 27.527344 3.628906 27.765625 3.628906 27.980469 C 3.453125 31.171875 3.277344 34.339844 3.097656 37.535156 C 3.097656 37.746094 2.972656 37.960938 2.921875 38.171875 C 2.820312 38.492188 2.285156 38.785156 1.878906 38.757812 C 1.222656 38.679688 0.585938 38.199219 0.484375 37.640625 C 0.410156 37.214844 0.308594 36.761719 0.308594 36.335938 C 0.308594 35.429688 0.359375 34.554688 0.433594 32.902344 Z M 0.433594 32.902344 " fill-opacity="1" fill-rule="nonzero"/></g><g clip-path="url(#0a04dcc8f0)"><path fill="#000000" d="M 5.457031 118.625 C 5.382812 120.035156 5.304688 121.472656 5.203125 122.882812 C 5.152344 123.414062 5.050781 123.972656 4.949219 124.503906 C 4.875 124.902344 4.46875 125.277344 4.085938 125.355469 C 3.605469 125.4375 2.921875 125.089844 2.820312 124.636719 C 2.640625 123.890625 2.464844 123.148438 2.4375 122.402344 C 2.414062 120.007812 2.4375 117.585938 2.464844 115.191406 C 2.464844 114.523438 2.894531 113.9375 3.554688 113.753906 C 3.859375 113.671875 4.164062 113.648438 4.46875 113.621094 C 5.253906 113.566406 5.710938 113.992188 5.683594 114.738281 C 5.632812 116.015625 5.53125 117.320312 5.457031 118.625 Z M 5.457031 118.625 " fill-opacity="1" fill-rule="nonzero"/></g><g clip-path="url(#57e2a9c6fc)"><path fill="#000000" d="M 4.519531 140.871094 C 4.46875 141.9375 4.390625 143.265625 4.316406 144.570312 C 4.265625 145.316406 3.503906 145.875 2.71875 145.769531 C 2.160156 145.714844 1.675781 145.289062 1.574219 144.808594 C 1.5 144.382812 1.398438 143.957031 1.425781 143.507812 C 1.550781 141.003906 1.675781 138.503906 1.855469 136 C 1.878906 135.601562 2.082031 135.175781 2.261719 134.804688 C 2.515625 134.296875 3.175781 134.136719 3.578125 134.457031 C 3.910156 134.722656 4.214844 135.015625 4.542969 135.308594 C 4.898438 135.601562 5.078125 135.976562 5.027344 136.453125 C 4.898438 137.835938 4.722656 139.222656 4.519531 140.871094 Z M 4.519531 140.871094 " fill-opacity="1" fill-rule="nonzero"/></g><g clip-path="url(#f0f338b713)"><path fill="#000000" d="M 5.609375 93.472656 C 5.027344 95.683594 5 97.757812 4.976562 99.835938 C 4.976562 100.578125 4.847656 101.351562 4.722656 102.097656 C 4.644531 102.574219 4.035156 102.976562 3.527344 103 C 3.023438 103.027344 2.4375 102.65625 2.3125 102.148438 C 2.183594 101.617188 2.03125 101.085938 2.007812 100.554688 C 1.980469 98.476562 2.03125 96.402344 2.058594 94.300781 C 2.058594 93.472656 2.4375 92.835938 3.023438 92.304688 C 3.277344 92.089844 3.605469 91.929688 3.882812 92.117188 C 4.417969 92.488281 4.875 92.914062 5.609375 93.472656 Z M 5.609375 93.472656 " fill-opacity="1" fill-rule="nonzero"/></g><g clip-path="url(#fd031e74bd)"><path fill="#000000" d="M 3.730469 56.882812 C 3.730469 57.867188 3.757812 58.851562 3.707031 59.863281 C 3.679688 60.289062 3.527344 60.714844 3.402344 61.140625 C 3.25 61.644531 2.617188 61.859375 2.082031 61.671875 C 1.449219 61.433594 1.019531 60.953125 0.816406 60.3125 C 0.664062 59.808594 0.585938 59.25 0.5625 58.691406 C 0.460938 56.828125 0.382812 54.964844 0.308594 53.101562 C 0.28125 52.304688 1.222656 51.480469 2.058594 51.613281 C 2.261719 51.636719 2.464844 51.71875 2.667969 51.796875 C 3.175781 52.011719 3.605469 52.355469 3.628906 52.96875 C 3.65625 54.300781 3.628906 55.605469 3.628906 56.933594 C 3.679688 56.882812 3.707031 56.882812 3.730469 56.882812 Z M 3.730469 56.882812 " fill-opacity="1" fill-rule="nonzero"/></g><g clip-path="url(#1924cc9638)"><path fill="#000000" d="M 3.730469 159.527344 C 3.679688 160.832031 3.628906 162.160156 3.527344 163.464844 C 3.503906 163.785156 3.402344 164.105469 3.277344 164.398438 C 3.097656 164.851562 2.71875 165.007812 2.261719 165.035156 C 1.855469 165.0625 1.375 164.742188 1.273438 164.371094 C 1.171875 163.945312 1.042969 163.519531 0.992188 163.09375 C 0.839844 161.125 0.738281 159.15625 0.585938 157.210938 C 0.511719 156.175781 0.917969 155.296875 1.425781 154.445312 C 1.625 154.097656 2.183594 153.9375 2.515625 154.152344 C 3.277344 154.628906 3.808594 155.1875 3.757812 156.226562 C 3.707031 157.316406 3.730469 158.410156 3.730469 159.5 C 3.757812 159.527344 3.730469 159.527344 3.730469 159.527344 Z M 3.730469 159.527344 " fill-opacity="1" fill-rule="nonzero"/></g><g clip-path="url(#c9e57cd5da)"><path fill="#000000" d="M 4.289062 177.570312 C 4.289062 178.554688 4.289062 179.539062 4.289062 180.523438 C 4.289062 181.351562 3.808594 181.855469 2.921875 181.988281 C 2.160156 182.09375 1.375 181.507812 1.324219 180.789062 C 1.222656 179.488281 1.144531 178.15625 1.019531 176.851562 C 0.96875 176.1875 0.816406 175.546875 0.765625 174.910156 C 0.714844 174.324219 1.042969 173.84375 1.5 173.550781 C 2.03125 173.207031 2.667969 173.046875 3.300781 173.074219 C 3.527344 173.074219 3.984375 173.417969 3.984375 173.660156 C 4.0625 174.960938 4.113281 176.265625 4.1875 177.597656 C 4.214844 177.570312 4.265625 177.570312 4.289062 177.570312 Z M 4.289062 177.570312 " fill-opacity="1" fill-rule="nonzero"/></g><path fill="#000000" d="M 4.390625 195.988281 C 4.390625 196.863281 4.390625 197.742188 4.390625 198.621094 C 4.390625 198.941406 4.316406 199.261719 4.265625 199.578125 C 4.1875 200.058594 3.628906 200.5625 3.175781 200.5625 C 2.640625 200.589844 2.058594 200.164062 1.980469 199.710938 C 1.878906 199.179688 1.804688 198.648438 1.753906 198.089844 C 1.625 196.679688 1.574219 195.242188 1.425781 193.832031 C 1.347656 193.03125 1.523438 192.3125 1.777344 191.597656 C 1.980469 191.035156 2.285156 190.609375 2.84375 190.53125 C 3.277344 190.476562 4.113281 191.222656 4.214844 191.730469 C 4.289062 192.046875 4.367188 192.367188 4.367188 192.6875 C 4.390625 193.777344 4.367188 194.867188 4.367188 195.988281 C 4.367188 195.988281 4.390625 195.988281 4.390625 195.988281 Z M 4.390625 195.988281 " fill-opacity="1" fill-rule="nonzero"/><g clip-path="url(#7beb4836d9)"><path fill="#000000" d="M 4.46875 228.003906 C 4.570312 228.855469 4.695312 229.707031 4.796875 230.558594 C 4.847656 231.007812 4.417969 231.621094 3.933594 231.78125 C 3.429688 231.941406 2.921875 231.992188 2.488281 231.59375 C 2.335938 231.460938 2.210938 231.25 2.160156 231.0625 C 1.777344 229.253906 1.726562 227.417969 1.957031 225.582031 C 1.980469 225.289062 2.210938 224.996094 2.386719 224.730469 C 2.640625 224.355469 3.046875 224.222656 3.476562 224.277344 C 3.960938 224.355469 4.46875 224.941406 4.46875 225.367188 C 4.46875 226.273438 4.46875 227.125 4.46875 228.003906 Z M 4.46875 228.003906 " fill-opacity="1" fill-rule="nonzero"/></g><path fill="#000000" d="M 4.773438 213.3125 C 4.695312 214.667969 4.671875 215.519531 4.59375 216.398438 C 4.542969 217.0625 3.910156 217.488281 3.226562 217.382812 C 2.921875 217.332031 2.589844 217.222656 2.539062 216.824219 C 2.335938 215.121094 2.109375 213.390625 2.007812 211.660156 C 1.957031 210.863281 2.539062 210.304688 3.25 209.984375 C 3.757812 209.773438 4.390625 210.039062 4.441406 210.570312 C 4.59375 211.636719 4.695312 212.726562 4.773438 213.3125 Z M 4.773438 213.3125 " fill-opacity="1" fill-rule="nonzero"/></g></g></g></svg>